STARTFONT 2.1
COMMENT
COMMENT Converted from OpenType font "Q:\font stuff\winfont\Rationale-Regular.ttf" by "otf2bdf 3.0".
COMMENT
FONT -FreeType-Rationale-Medium-R-Normal--102-1020-72-72-P-310-ISO10646-1
SIZE 102 72 72
FONTBOUNDINGBOX 81 119 -3 -26
STARTPROPERTIES 19
FOUNDRY "FreeType"
FAMILY_NAME "Rationale"
WEIGHT_NAME "Medium"
SLANT "R"
SETWIDTH_NAME "Normal"
ADD_STYLE_NAME ""
PIXEL_SIZE 102
POINT_SIZE 1020
RESOLUTION_X 72
RESOLUTION_Y 72
SPACING "P"
AVERAGE_WIDTH 310
CHARSET_REGISTRY "ISO10646"
CHARSET_ENCODING "1"
FONT_ASCENT 92
FONT_DESCENT 25
COPYRIGHT "Copyright (c) 2011, Cyreal (www.cyreal.org) with Reserved Font Name "Rationale"."
_OTF_FONTFILE "Q:\font stuff\winfont\Rationale-Regular.ttf"
_OTF_PSNAME "Rationale-Regular"
ENDPROPERTIES
CHARS 214
STARTCHAR 0020
ENCODING 32
SWIDTH 196 0
DWIDTH 20 0
BBX 0 0 0 0
BITMAP
ENDCHAR
STARTCHAR 0021
ENCODING 33
SWIDTH 225 0
DWIDTH 23 0
BBX 9 71 7 0
BITMAP
7F80
FF80
FF80
FF80
FF80
FF80
FF80
FF80
FF80
FF80
FF80
FF80
FF80
FF80
FF80
FF80
FF80
FF80
FF80
FF80
FF80
FF80
FF80
FF80
FF80
FF80
FF80
FF80
FF80
FF80
FF80
FF80
FF80
FF80
FF80
FF80
FF80
FF80
FF80
FF80
FF80
FF80
FF80
FF80
FF80
FF80
FF80
FF80
FF80
FF80
FF80
FF80
FF80
FF00
FF00
0000
0000
0000
0000
0000
0000
0000
0000
FF80
FF80
FF80
FF80
FF80
FF80
FF80
7F80
ENDCHAR
STARTCHAR 0022
ENCODING 34
SWIDTH 323 0
DWIDTH 33 0
BBX 20 16 6 55
BITMAP
FC07E0
FE07F0
FE07F0
FE07F0
FE07F0
FE07F0
FE07F0
FE07F0
FE07F0
FE07F0
FE07F0
FE07F0
FE07F0
FE07F0
FE07F0
7E03F0
ENDCHAR
STARTCHAR 0023
ENCODING 35
SWIDTH 803 0
DWIDTH 82 0
BBX 69 71 7 0
BITMAP
7F800003FC001FFF80
FFC00003FC007FFFE0
FFC00003FC00FFFFF0
FFC00003FC00FFFFF0
FFE00003FC00FFFFF8
FFE00003FC01FFFFF8
FFF00003FC01FE07F8
FFF00003FC01FC03F8
FFF00003FC01FC03F8
FFF80003FC01FC03F8
FFF80003FC01FC03F8
FFFC0003FC01FC03F8
FFFC0003FC01FC03F8
FFFC0003FC01FC03F8
FFFE0003FC01FC03F8
FFFE0003FC01FC03F8
FFFF0003FC01FC03F8
FF7F0003FC01FC03F8
FF7F8003FC01FC03F8
FF7F8003FC01FC03F8
FF3F8003FC01FC03F8
FF3FC003FC01FC03F8
FF3FC003FC01FC03F8
FF1FE003FC01FE07F8
FF1FE003FC01FFFFF8
FF1FE003FC00FFFFF8
FF0FF003FC00FFFFF0
FF8FF003FC00FFFFF0
FF87F803FC007FFFE0
FF87F803FC001FFF80
FF87FC03FC00000000
FF83FC03FC00000000
FF83FC03FC00000000
FF81FE03FC00000000
FF81FE03FC00000000
FF80FF03FC01FFFFF0
FF80FF03FC01FFFFF8
FF80FF03FC01FFFFF8
FF807F83FC01FFFFF8
FF807F83FC01FFFFF8
FF803FC3FC00FFFFF8
FF803FC3FC00000000
FF803FE3FC00000000
FF801FE3FC00000000
FF801FE3FC00000000
FF800FE3FC00000000
FF800FF3FC00000000
FF8007F3FC00000000
FF8007F3FC00000000
FF8007FBFC00000000
FF8003FBFC00000000
FF8003FBFC00000000
FF8001FFFC00000000
FF8001FFFC00000000
FF8000FFFC00000000
FF8000FFFC00000000
FF8000FFFC00000000
FF80007FFC00000000
FF80007FFC00000000
FF80003FFC00000000
FF80003FFC00000000
FF80003FFC00000000
FF80001FFC00000000
FF80001FFC00000000
FF80000FFC00000000
FF80000FFC00000000
FF800007FC00000000
FF800007FC00000000
FF800007FC00000000
FF000003FC00000000
FF000003F800000000
ENDCHAR
STARTCHAR 0024
ENCODING 36
SWIDTH 431 0
DWIDTH 44 0
BBX 31 71 7 0
BITMAP
0007E000
000FE000
000FE000
000FE000
000FE000
000FE000
000FE000
000FE000
000FE000
07FFFFF0
1FFFFFF8
7FFFFFF8
7FFFFFFC
FFFFFFFC
FFFFFFFC
FFC00000
FF000000
FF000000
FF000000
FF000000
FF000000
FF000000
FF000000
FF000000
FF000000
FF000000
FF000000
FF000000
FF000000
FF000000
FFC00000
FFFFFF80
FFFFFFF0
7FFFFFF8
7FFFFFFC
1FFFFFFC
07FFFFFC
000007FE
000003FE
000003FE
000001FE
000001FE
000001FE
000001FE
000001FE
000001FE
000001FE
000001FE
000001FE
000001FE
000001FE
000001FE
000001FE
000001FE
000003FE
000003FE
000007FE
FFFFFFFC
FFFFFFFC
FFFFFFFC
FFFFFFF8
7FFFFFF0
3FFFFF80
000FE000
000FE000
000FE000
000FE000
000FE000
000FE000
000FE000
000FC000
ENDCHAR
STARTCHAR 0025
ENCODING 37
SWIDTH 627 0
DWIDTH 64 0
BBX 54 71 5 0
BITMAP
0FFFC00000FE00
3FFFF00001FE00
7FFFF80003FC00
7FFFFC0003FC00
7FFFFC0007F800
FFFFFC0007F800
FF03FC000FF000
FE01FC000FF000
FE01FC001FE000
FE01FC001FE000
FE01FC003FC000
FE01FC003FC000
FE01FC007FC000
FE01FC007F8000
FE01FC00FF8000
FE01FC00FF0000
FE01FC01FF0000
FE01FC01FE0000
FE01FC03FE0000
FE01FC03FC0000
FE01FC07FC0000
FE01FC07F80000
FE01FC0FF80000
FF03FC0FF00000
FFFFFC1FF00000
7FFFFC1FE00000
7FFFFC3FE00000
7FFFF83FC00000
3FFFF03FC00000
0FFFC07F800000
0000007F800000
000000FF000000
000000FF000000
000001FE000000
000001FE000000
000003FC000000
000003FC000000
000007F8000000
000007F8000000
00000FF0000000
00000FF0000000
00001FE00FFFC0
00001FE03FFFF0
00003FC07FFFF8
00003FC07FFFFC
00007F807FFFFC
00007F80FFFFFC
0000FF00FF03FC
0000FF00FE01FC
0001FE00FE01FC
0001FE00FE01FC
0003FC00FE00FC
0003FC00FE00FC
0007F800FE00FC
0007F800FE00FC
000FF000FE00FC
000FF000FE00FC
001FE000FE00FC
001FE000FE00FC
003FC000FE00FC
003FC000FE00FC
007F8000FE01FC
007F8000FE01FC
00FF8000FE01FC
00FF0000FF03FC
01FF0000FFFFFC
01FE00007FFFFC
03FE00007FFFFC
03FC00007FFFF8
07F800003FFFF0
07F000000FFFC0
ENDCHAR
STARTCHAR 0026
ENCODING 38
SWIDTH 450 0
DWIDTH 46 0
BBX 36 71 7 0
BITMAP
07FFFF8000
1FFFFFC000
3FFFFFE000
7FFFFFE000
FFFFFFE000
FFFFFFF000
FFC0000000
FF80000000
FF00000000
FF00000000
FF00000000
FF00000000
FF00000000
FF00000000
FF00000000
FF00000000
FF00000000
FF00000000
FF00000000
FF00000000
FF00000000
FF00000000
FF00000000
FF00000000
FF00000000
FF0001FC00
FF0003FC00
FF0003FC00
FF0003FC00
7F8003FC00
7FC003FC00
3FFFFFFFE0
1FFFFFFFF0
07FFFFFFF0
1FFFFFFFF0
3FFFFFFFF0
7FFFFFFFF0
7FC003FC00
FF8003FC00
FF0003FC00
FF0003FC00
FF0003FC00
FF0003FC00
FF0003FC00
FF0003FC00
FF0003FC00
FF0003FC00
FF0003FC00
FF0003FC00
FF0003FC00
FF0003FC00
FF0003FC00
FF0003FC00
FF0003FC00
FF0003FC00
FF0003FC00
FF0003FC00
FF0003FC00
FF0003FC00
FF0003FC00
FF0003FC00
FF0003FC00
FF0003FC00
FF8003FC00
FFC003FC00
FFFFC3FC00
FFFFC3FC00
7FFFC3FC00
3FFFC3FC00
1FFFC3FC00
07FF83F800
ENDCHAR
STARTCHAR 0027
ENCODING 39
SWIDTH 186 0
DWIDTH 19 0
BBX 7 16 6 55
BITMAP
FC
FE
FE
FE
FE
FE
FE
FE
FE
FE
FE
FE
FE
FE
FE
7E
ENDCHAR
STARTCHAR 0028
ENCODING 40
SWIDTH 284 0
DWIDTH 29 0
BBX 18 91 7 -13
BITMAP
07FF80
1FFF80
3FFFC0
7FFFC0
7FFFC0
7FFFC0
FFC000
FF8000
FF0000
FF0000
FF0000
FF0000
FF0000
FF0000
FF0000
FF0000
FF0000
FF0000
FF0000
FF0000
FF0000
FF0000
FF0000
FF0000
FF0000
FF0000
FF0000
FF0000
FF0000
FF0000
FF0000
FF0000
FF0000
FF0000
FF0000
FF0000
FF0000
FF0000
FF0000
FF0000
FF0000
FF0000
FF0000
FF0000
FF0000
FF0000
FF0000
FF0000
FF0000
FF0000
FF0000
FF0000
FF0000
FF0000
FF0000
FF0000
FF0000
FF0000
FF0000
FF0000
FF0000
FF0000
FF0000
FF0000
FF0000
FF0000
FF0000
FF0000
FF0000
FF0000
FF0000
FF0000
FF0000
FF0000
FF0000
FF0000
FF0000
FF0000
FF0000
FF0000
FF0000
FF0000
FF0000
FF8000
FFC000
7FFFC0
7FFFC0
7FFFC0
3FFFC0
1FFF80
07FF80
ENDCHAR
STARTCHAR 0029
ENCODING 41
SWIDTH 284 0
DWIDTH 29 0
BBX 17 91 4 -13
BITMAP
7FF000
FFFE00
FFFF00
FFFF00
FFFF80
FFFF80
00FF80
007F80
007F80
007F80
003F80
003F80
003F80
003F80
003F80
003F80
003F80
003F80
003F80
003F80
003F80
003F80
003F80
003F80
003F80
003F80
003F80
003F80
003F80
003F80
003F80
003F80
003F80
003F80
003F80
003F80
003F80
003F80
003F80
003F80
003F80
003F80
003F80
003F80
003F80
003F80
003F80
003F80
003F80
003F80
003F80
003F80
003F80
003F80
003F80
003F80
003F80
003F80
003F80
003F80
003F80
003F80
003F80
003F80
003F80
003F80
003F80
003F80
003F80
003F80
003F80
003F80
003F80
003F80
003F80
003F80
003F80
003F80
003F80
003F80
003F80
007F80
007F80
007F80
00FF80
FFFF80
FFFF80
FFFF00
FFFF00
FFFE00
7FF000
ENDCHAR
STARTCHAR 002A
ENCODING 42
SWIDTH 441 0
DWIDTH 45 0
BBX 35 37 5 37
BITMAP
0001F00000
0001F00000
0003F00000
0003F00000
0003F00000
0003F00000
0003F00000
1003F00100
3C03F00780
7F03F01F80
7FC3F07FC0
7FE3F1FFE0
7FFBF3FFC0
1FFFFFFF00
07FFFFFC00
03FFFFF800
00FFFFE000
003FFF8000
001FFE0000
003FFF8000
00FFFFE000
03FFFFF000
07FFFFFC00
1FFFFFFF00
7FFBF3FF80
FFF3F1FFC0
7FC3F07FC0
7F03F01F80
3C03F00780
1003F00300
0003F00000
0003F00000
0003F00000
0003F00000
0003F00000
0003F00000
0003F00000
ENDCHAR
STARTCHAR 002B
ENCODING 43
SWIDTH 431 0
DWIDTH 44 0
BBX 31 30 7 22
BITMAP
0007C000
000FC000
000FC000
000FC000
000FC000
000FC000
000FC000
000FC000
000FC000
000FC000
000FC000
000FC000
FFFFFFFC
FFFFFFFC
FFFFFFFE
FFFFFFFE
FFFFFFFE
7FFFFFFE
000FC000
000FC000
000FC000
000FC000
000FC000
000FC000
000FC000
000FC000
000FC000
000FC000
000FC000
000FC000
ENDCHAR
STARTCHAR 002C
ENCODING 44
SWIDTH 215 0
DWIDTH 22 0
BBX 9 22 7 -14
BITMAP
FF00
FF00
FF80
FF80
FF80
FF80
FF80
FF80
1F80
1F80
1F80
1F80
1F80
1F00
1F00
1F00
1F00
1E00
1E00
1C00
1800
1000
ENDCHAR
STARTCHAR 002D
ENCODING 45
SWIDTH 431 0
DWIDTH 44 0
BBX 30 6 7 34
BITMAP
FFFFFFFC
FFFFFFFC
FFFFFFFC
FFFFFFFC
FFFFFFFC
FFFFFFFC
ENDCHAR
STARTCHAR 002E
ENCODING 46
SWIDTH 215 0
DWIDTH 22 0
BBX 9 8 7 0
BITMAP
FF00
FF00
FF80
FF80
FF80
FF80
FF80
FF80
ENDCHAR
STARTCHAR 002F
ENCODING 47
SWIDTH 392 0
DWIDTH 40 0
BBX 32 90 4 -12
BITMAP
0000007F
000000FE
000001FE
000001FE
000001FE
000001FC
000003FC
000003FC
000003FC
000003F8
000007F8
000007F8
000007F8
00000FF0
00000FF0
00000FF0
00000FE0
00001FE0
00001FE0
00001FE0
00001FC0
00003FC0
00003FC0
00003FC0
00003F80
00007F80
00007F80
00007F80
0000FF00
0000FF00
0000FF00
0000FE00
0001FE00
0001FE00
0001FE00
0001FC00
0003FC00
0003FC00
0003FC00
0003F800
0007F800
0007F800
0007F800
0007F000
000FF000
000FF000
000FE000
001FE000
001FE000
001FE000
001FC000
003FC000
003FC000
003FC000
003F8000
007F8000
007F8000
007F8000
007F0000
00FF0000
00FF0000
00FE0000
01FE0000
01FE0000
01FE0000
01FC0000
03FC0000
03FC0000
03FC0000
03F80000
07F80000
07F80000
07F80000
07F00000
0FF00000
0FF00000
0FF00000
1FE00000
1FE00000
1FE00000
1FC00000
3FC00000
3FC00000
3FC00000
3F800000
7F800000
7F800000
7F800000
7F000000
FE000000
ENDCHAR
STARTCHAR 0030
ENCODING 48
SWIDTH 441 0
DWIDTH 45 0
BBX 31 71 7 0
BITMAP
03FFFF80
1FFFFFF0
3FFFFFF8
7FFFFFF8
7FFFFFFC
7FFFFFFC
FFC007FC
FF8003FE
FF0001FE
FF0001FE
FF0001FE
FF0001FE
FF0001FE
FF0001FE
FF0001FE
FF0001FE
FF0001FE
FF0001FE
FF0001FE
FF0001FE
FF0001FE
FF0001FE
FF0001FE
FF0001FE
FF0001FE
FF0001FE
FF0001FE
FF0001FE
FF0001FE
FF0001FE
FF0001FE
FF0001FE
FF0001FE
FF0001FE
FF0001FE
FF0001FE
FF0001FE
FF0001FE
FF0001FE
FF0001FE
FF0001FE
FF0001FE
FF0001FE
FF0001FE
FF0001FE
FF0001FE
FF0001FE
FF0001FE
FF0001FE
FF0001FE
FF0001FE
FF0001FE
FF0001FE
FF0001FE
FF0001FE
FF0001FE
FF0001FE
FF0001FE
FF0001FE
FF0001FE
FF0001FE
FF0001FE
FF0001FE
FF0003FE
FFC007FC
7FFFFFFC
7FFFFFFC
7FFFFFF8
3FFFFFF8
1FFFFFF0
07FFFF80
ENDCHAR
STARTCHAR 0031
ENCODING 49
SWIDTH 225 0
DWIDTH 23 0
BBX 9 71 7 0
BITMAP
0180
0F80
3F80
7F80
7F80
7F80
FF80
FF80
FF80
FF80
FF80
FF80
FF80
FF80
FF80
FF80
FF80
FF80
FF80
FF80
FF80
FF80
FF80
FF80
FF80
FF80
FF80
FF80
FF80
FF80
FF80
FF80
FF80
FF80
FF80
FF80
FF80
FF80
FF80
FF80
FF80
FF80
FF80
FF80
FF80
FF80
FF80
FF80
FF80
FF80
FF80
FF80
FF80
FF80
FF80
FF80
FF80
FF80
FF80
FF80
FF80
FF80
FF80
FF80
FF80
FF80
FF80
FF80
FF80
FF00
FF00
ENDCHAR
STARTCHAR 0032
ENCODING 50
SWIDTH 401 0
DWIDTH 41 0
BBX 29 71 6 0
BITMAP
0FFFFE00
1FFFFFC0
3FFFFFE0
7FFFFFE0
7FFFFFF0
7FFFFFF0
00001FF0
00000FF8
00000FF8
00000FF8
00000FF8
000007F8
000007F8
000007F8
000007F8
000007F8
000007F8
000007F8
000007F8
000007F8
000007F8
000007F8
000007F8
000007F8
000007F8
00000FF8
00000FF8
00000FF8
00000FF8
00000FF8
00001FF8
07FFFFF0
1FFFFFF0
3FFFFFF0
7FFFFFE0
7FFFFFC0
FFFFFF00
FFC00000
FF800000
FF800000
FF000000
FF000000
FF000000
FF000000
FF000000
FF000000
FF000000
FF000000
FF000000
FF000000
FF000000
FF000000
FF000000
FF000000
FF000000
FF000000
FF000000
FF000000
FF000000
FF000000
FF000000
FF000000
FF800000
FF800000
FFC00000
7FFFFFF8
7FFFFFF8
7FFFFFF8
3FFFFFF8
1FFFFFF8
03FFFFF0
ENDCHAR
STARTCHAR 0033
ENCODING 51
SWIDTH 392 0
DWIDTH 40 0
BBX 28 71 5 0
BITMAP
1FFFFC00
7FFFFF00
7FFFFFC0
FFFFFFC0
FFFFFFE0
FFFFFFE0
00007FE0
00001FE0
00001FE0
00001FE0
00001FE0
00001FE0
00001FE0
00001FE0
00001FE0
00001FE0
00001FE0
00001FE0
00001FE0
00001FE0
00001FE0
00001FE0
00001FE0
00001FE0
00001FE0
00001FE0
00001FE0
00001FE0
00001FE0
00003FE0
00007FE0
03FFFFC0
03FFFF80
03FFFE00
03FFFF80
03FFFFC0
03FFFFE0
00007FE0
00001FF0
00000FF0
00000FF0
00000FF0
00000FF0
00000FF0
00000FF0
00000FF0
00000FF0
00000FF0
00000FF0
00000FF0
00000FF0
00000FF0
00000FF0
00000FF0
00000FF0
00000FF0
00000FF0
00000FF0
00000FF0
00000FF0
00000FF0
00000FF0
00000FF0
00001FF0
00003FF0
FFFFFFF0
7FFFFFE0
7FFFFFE0
7FFFFFC0
3FFFFF80
0FFFFE00
ENDCHAR
STARTCHAR 0034
ENCODING 52
SWIDTH 431 0
DWIDTH 44 0
BBX 32 71 5 0
BITMAP
7F0000FF
FF0001FF
FF0001FF
FF0001FF
FF0001FF
FF0001FF
FF0001FF
FF0001FF
FF0001FF
FF0001FF
FF0001FF
FF0001FF
FF0001FF
FF0001FF
FF0001FF
FF0001FF
FF0001FF
FF0001FF
FF0001FF
FF0001FF
FF0001FF
FF0001FF
FF0001FF
FF0001FF
FF0001FF
FF0001FF
FF0001FF
FF0001FF
FF0001FF
FF8001FF
FFC001FF
FFFFFFFF
FFFFFFFF
7FFFFFFF
7FFFFFFF
3FFFFFFF
07FFFFFF
000001FF
000001FF
000001FF
000001FF
000001FF
000001FF
000001FF
000001FF
000001FF
000001FF
000001FF
000001FF
000001FF
000001FF
000001FF
000001FF
000001FF
000001FF
000001FF
000001FF
000001FF
000001FF
000001FF
000001FF
000001FF
000001FF
000001FF
000001FF
000001FF
000001FF
000001FF
000001FF
000001FE
000001FE
ENDCHAR
STARTCHAR 0035
ENCODING 53
SWIDTH 411 0
DWIDTH 42 0
BBX 30 71 6 0
BITMAP
7FFFFFF8
7FFFFFF8
7FFFFFF8
7FFFFFF8
7FFFFFF0
7FFFFFF0
7F000000
7F000000
7F000000
7F000000
7F000000
7F000000
7F000000
7F000000
7F000000
7F000000
7F000000
7F000000
7F000000
7F000000
7F000000
7F000000
7F000000
7F000000
7F000000
7F000000
7F000000
7F000000
7F000000
7F000000
7F000000
7FFFFF00
7FFFFFE0
7FFFFFF0
7FFFFFF8
7FFFFFF8
7FFFFFF8
00000FFC
000007FC
000007FC
000003FC
000003FC
000003FC
000003FC
000003FC
000003FC
000003FC
000003FC
000003FC
000003FC
000003FC
000003FC
000003FC
000003FC
000003FC
000003FC
000003FC
000003FC
000003FC
000003FC
000003FC
000003FC
000007FC
000007FC
00000FFC
FFFFFFF8
7FFFFFF8
7FFFFFF8
7FFFFFF0
3FFFFFE0
0FFFFF80
ENDCHAR
STARTCHAR 0036
ENCODING 54
SWIDTH 441 0
DWIDTH 45 0
BBX 32 71 7 0
BITMAP
03FFFFE0
1FFFFFF0
3FFFFFF8
7FFFFFF8
7FFFFFFC
7FFFFFFC
FFC00000
FF800000
FF800000
FF000000
FF000000
FF000000
FF000000
FF000000
FF000000
FF000000
FF000000
FF000000
FF000000
FF000000
FF000000
FF000000
FF000000
FF000000
FF000000
FF000000
FF000000
FF000000
FF000000
FF000000
FF000000
FF07FFC0
FF0FFFF8
FF0FFFFC
FF0FFFFC
FF0FFFFE
FF0FFFFE
FF0003FE
FF0001FF
FF0001FF
FF0001FF
FF0001FF
FF0001FF
FF0001FF
FF0001FF
FF0001FF
FF0001FF
FF0001FF
FF0001FF
FF0001FF
FF0001FF
FF0001FF
FF0001FF
FF0001FF
FF0001FF
FF0001FF
FF0001FF
FF0001FF
FF0001FF
FF0001FF
FF0001FF
FF0001FF
FF8001FF
FF8001FF
FFC003FE
7FFFFFFE
7FFFFFFE
7FFFFFFC
3FFFFFFC
1FFFFFF8
07FFFFC0
ENDCHAR
STARTCHAR 0037
ENCODING 55
SWIDTH 362 0
DWIDTH 37 0
BBX 30 71 3 0
BITMAP
7FFFFFFC
FFFFFFFC
FFFFFFFC
FFFFFFFC
FFFFFFFC
FFFFFFFC
000003FC
000003FC
000003FC
000007F8
000007F8
000007F8
000007F8
00000FF0
00000FF0
00000FF0
00000FE0
00001FE0
00001FE0
00001FE0
00003FC0
00003FC0
00003FC0
00003FC0
00007F80
00007F80
00007F80
00007F00
0000FF00
0000FF00
0000FF00
0000FE00
0001FE00
0001FE00
0001FE00
0003FC00
0003FC00
0003FC00
0003FC00
0007F800
0007F800
0007F800
0007F000
000FF000
000FF000
000FF000
000FE000
001FE000
001FE000
001FE000
003FC000
003FC000
003FC000
003F8000
007F8000
007F8000
007F8000
007F0000
00FF0000
00FF0000
00FF0000
01FE0000
01FE0000
01FE0000
01FC0000
03FC0000
03FC0000
03FC0000
03F80000
07F80000
07F80000
ENDCHAR
STARTCHAR 0038
ENCODING 56
SWIDTH 441 0
DWIDTH 45 0
BBX 31 71 7 0
BITMAP
07FFFFC0
1FFFFFF8
3FFFFFFC
7FFFFFFC
7FFFFFFE
FFFFFFFE
FFC007FE
FF8003FE
FF8001FE
FF0001FE
FF0001FE
FF0001FE
FF0001FE
FF0001FE
FF0001FE
FF0001FE
FF0001FE
FF0001FE
FF0001FE
FF0001FE
FF0001FE
FF0001FE
FF0001FE
FF0001FE
FF0001FE
FF0001FE
FF0001FE
FF0001FE
FF8001FE
7F8003FC
7FC007FC
3FFFFFF8
1FFFFFF0
03FFFFC0
1FFFFFF0
3FFFFFF8
7FFFFFFC
7FC007FC
7F8003FE
FF8001FE
FF0001FE
FF0001FE
FF0001FE
FF0001FE
FF0001FE
FF0001FE
FF0001FE
FF0001FE
FF0001FE
FF0001FE
FF0001FE
FF0001FE
FF0001FE
FF0001FE
FF0001FE
FF0001FE
FF0001FE
FF0001FE
FF0001FE
FF0001FE
FF0001FE
FF0001FE
FF8001FE
FF8003FE
FFC007FE
FFFFFFFE
7FFFFFFE
7FFFFFFC
3FFFFFFC
1FFFFFF8
07FFFFE0
ENDCHAR
STARTCHAR 0039
ENCODING 57
SWIDTH 431 0
DWIDTH 44 0
BBX 30 71 6 0
BITMAP
07FFFF80
1FFFFFE0
3FFFFFF0
7FFFFFF8
7FFFFFFC
FFFFFFFC
FFC00FFC
FF8003FC
FF0003FC
FF0003FC
FF0003FC
FF0003FC
FF0003FC
FF0003FC
FF0003FC
FF0003FC
FF0003FC
FF0003FC
FF0003FC
FF0003FC
FF0003FC
FF0003FC
FF0003FC
FF0003FC
FF0003FC
FF0003FC
FF0003FC
FF0003FC
FF0003FC
FF0003FC
FF0003FC
FF0003FC
FF8003FC
FFC003FC
FFFFC3FC
7FFFC3FC
7FFFC3FC
3FFFC3FC
1FFFC3FC
07FFC3FC
000003FC
000003FC
000003FC
000003FC
000003FC
000003FC
000003FC
000003FC
000003FC
000003FC
000003FC
000003FC
000003FC
000003FC
000003FC
000003FC
000003FC
000003FC
000003FC
000003FC
000003FC
000003FC
000003FC
000003FC
00000FFC
7FFFFFFC
3FFFFFFC
3FFFFFF8
1FFFFFF8
1FFFFFE0
07FFFF80
ENDCHAR
STARTCHAR 003A
ENCODING 58
SWIDTH 215 0
DWIDTH 22 0
BBX 9 46 7 0
BITMAP
FF00
FF80
FF80
FF80
FF80
FF80
FF80
FF80
0000
0000
0000
0000
0000
0000
0000
0000
0000
0000
0000
0000
0000
0000
0000
0000
0000
0000
0000
0000
0000
0000
0000
0000
0000
0000
0000
0000
0000
0000
FF00
FF80
FF80
FF80
FF80
FF80
FF80
FF80
ENDCHAR
STARTCHAR 003B
ENCODING 59
SWIDTH 215 0
DWIDTH 22 0
BBX 9 60 7 -14
BITMAP
FF00
FF00
FF80
FF80
FF80
FF80
FF80
FF80
0000
0000
0000
0000
0000
0000
0000
0000
0000
0000
0000
0000
0000
0000
0000
0000
0000
0000
0000
0000
0000
0000
0000
0000
0000
0000
0000
0000
0000
0000
FF00
FF00
FF80
FF80
FF80
FF80
FF80
FF80
1F80
1F80
1F80
1F80
1F80
1F00
1F00
1F00
1F00
1E00
1E00
1C00
1800
1000
ENDCHAR
STARTCHAR 003C
ENCODING 60
SWIDTH 352 0
DWIDTH 36 0
BBX 26 45 4 13
BITMAP
00000200
00000700
00000F80
00001FC0
00003FC0
00007F80
0000FF00
0001FE00
0003FC00
0007F800
000FF000
001FE000
003FC000
007F8000
00FF0000
01FE0000
03FC0000
07F80000
0FF00000
1FE00000
3FC00000
7F800000
FF000000
7F800000
3FC00000
1FE00000
0FF00000
07F80000
03FC0000
01FE0000
00FF0000
007F8000
003FC000
001FE000
000FF000
0007F800
0003FC00
0001FE00
0000FF00
00007F80
00003FC0
00001FC0
00000F80
00000700
00000200
ENDCHAR
STARTCHAR 003D
ENCODING 61
SWIDTH 431 0
DWIDTH 44 0
BBX 31 20 7 25
BITMAP
FFFFFFFC
FFFFFFFC
FFFFFFFE
FFFFFFFE
FFFFFFFE
7FFFFFFE
00000000
00000000
00000000
00000000
00000000
00000000
00000000
00000000
FFFFFFFC
FFFFFFFC
FFFFFFFE
FFFFFFFE
FFFFFFFE
7FFFFFFE
ENDCHAR
STARTCHAR 003E
ENCODING 62
SWIDTH 352 0
DWIDTH 36 0
BBX 26 45 6 13
BITMAP
10000000
38000000
7C000000
FE000000
FF000000
7F800000
3FC00000
1FE00000
0FF00000
07F80000
03FC0000
01FE0000
00FF0000
007F8000
003FC000
001FE000
000FF000
0007F800
0003FC00
0001FE00
0000FF00
00007F80
00003FC0
00007F80
0000FF00
0001FE00
0003FC00
0007F800
000FF000
001FE000
003FC000
007F8000
00FF0000
01FE0000
03FC0000
07F80000
0FF00000
1FE00000
3FC00000
7F800000
FF000000
FE000000
7C000000
38000000
10000000
ENDCHAR
STARTCHAR 003F
ENCODING 63
SWIDTH 382 0
DWIDTH 39 0
BBX 28 71 5 0
BITMAP
1FFFFE00
3FFFFF80
7FFFFFC0
7FFFFFE0
FFFFFFE0
FFFFFFF0
00003FF0
00001FF0
00000FF0
00000FF0
00000FF0
00000FF0
00000FF0
00000FF0
00000FF0
00000FF0
00000FF0
00000FF0
00000FF0
00000FF0
00000FF0
00000FF0
00000FF0
00000FF0
00000FF0
00000FF0
00000FF0
00001FF0
00003FF0
003FFFF0
00FFFFE0
01FFFFE0
03FFFFC0
03FFFF80
07FFFE00
07FE0000
07FC0000
07F80000
07F80000
07F80000
07F80000
07F80000
07F80000
07F80000
07F80000
07F80000
07F80000
07F80000
07F80000
07F80000
07F80000
07F80000
07F80000
07F80000
07F00000
00000000
00000000
00000000
00000000
00000000
00000000
00000000
00000000
07F80000
07FC0000
07FC0000
07FC0000
07FC0000
07FC0000
07FC0000
07FC0000
ENDCHAR
STARTCHAR 0040
ENCODING 64
SWIDTH 500 0
DWIDTH 51 0
BBX 37 51 7 0
BITMAP
07FFFFFF00
1FFFFFFFE0
3FFFFFFFF0
7FFFFFFFF0
FFFFFFFFF8
FFFFFFFFF8
FF80000FF8
FF000007F8
FF000003F8
FF000003F8
FE000003F8
FE000003F8
FE000003F8
FE000FFFF8
FE007FFFF8
FE00FFFFF8
FE00FFFFF8
FE01FFFFF8
FE01FFFFF8
FE01FE03F8
FE03FC03F8
FE03FC03F8
FE03FC03F8
FE03F803F8
FE03F803F8
FE03F803F8
FE03F803F8
FE03F803F8
FE03FC03F8
FE03FC03F8
FE03FC03F8
FE01FE03F8
FE01FFE3F8
FE01FFE3F8
FE00FFE3F8
FE00FFE3F8
FE007FE3F8
FE000FC1F8
FE00000000
FE00000000
FE00000000
FE00000000
FF00000000
FF00000000
FF80000000
FFFFFFFFF0
FFFFFFFFF0
7FFFFFFFF0
3FFFFFFFF0
1FFFFFFFF0
07FFFFFFF0
ENDCHAR
STARTCHAR 0041
ENCODING 65
SWIDTH 480 0
DWIDTH 49 0
BBX 34 71 7 0
BITMAP
03FFFFF800
1FFFFFFE00
3FFFFFFF00
3FFFFFFF80
7FFFFFFFC0
7FFFFFFFC0
7FC000FFC0
FF80007FC0
FF80003FC0
FF80003FC0
FF80003FC0
FF80003FC0
FF80003FC0
FF80003FC0
FF80003FC0
FF80003FC0
FF80003FC0
FF80003FC0
FF80003FC0
FF80003FC0
FF80003FC0
FF80003FC0
FF80003FC0
FF80003FC0
FF80003FC0
FF80003FC0
FF80003FC0
FF80003FC0
FF80003FC0
FF80003FC0
FF80003FC0
FFFFFC3FC0
FFFFFC3FC0
FFFFFC3FC0
FFFFFC3FC0
FFFFFC3FC0
FFFFFC3FC0
FF80003FC0
FF80003FC0
FF80003FC0
FF80003FC0
FF80003FC0
FF80003FC0
FF80003FC0
FF80003FC0
FF80003FC0
FF80003FC0
FF80003FC0
FF80003FC0
FF80003FC0
FF80003FC0
FF80003FC0
FF80003FC0
FF80003FC0
FF80003FC0
FF80003FC0
FF80003FC0
FF80003FC0
FF80003FC0
FF80003FC0
FF80003FC0
FF80003FC0
FF80003FC0
FF80003FC0
FF80003FC0
FF80003FC0
FF80003FC0
FF80003FC0
FF80003FC0
FF00003FC0
FF00003FC0
ENDCHAR
STARTCHAR 0042
ENCODING 66
SWIDTH 460 0
DWIDTH 47 0
BBX 33 71 7 0
BITMAP
7FFFFFF000
FFFFFFFC00
FFFFFFFE00
FFFFFFFF00
FFFFFFFF80
FFFFFFFF80
FF8001FF80
FF8000FF80
FF80007F80
FF80007F80
FF80007F80
FF80007F80
FF80007F80
FF80007F80
FF80007F80
FF80007F80
FF80007F80
FF80007F80
FF80007F80
FF80007F80
FF80007F80
FF80007F80
FF80007F80
FF80007F80
FF80007F80
FF80007F80
FF80007F80
FF80007F80
FF80007F80
FF8000FF80
FF8001FF00
FFFFFFFE00
FFFFFFFC00
FFFFFFF000
FFFFFFFC00
FFFFFFFE00
FFFFFFFF00
FF8001FF00
FF8000FF80
FF80007F80
FF80007F80
FF80007F80
FF80007F80
FF80007F80
FF80007F80
FF80007F80
FF80007F80
FF80007F80
FF80007F80
FF80007F80
FF80007F80
FF80007F80
FF80007F80
FF80007F80
FF80007F80
FF80007F80
FF80007F80
FF80007F80
FF80007F80
FF80007F80
FF80007F80
FF80007F80
FF80007F80
FF8000FF80
FF8001FF80
FF87FFFF80
FF87FFFF80
FF87FFFF00
FF87FFFF00
FF87FFFC00
FF87FFF000
ENDCHAR
STARTCHAR 0043
ENCODING 67
SWIDTH 392 0
DWIDTH 40 0
BBX 29 71 7 0
BITMAP
03FFFFC0
1FFFFFE0
3FFFFFF0
7FFFFFF0
7FFFFFF8
7FFFFFF8
FFC00000
FF800000
FF800000
FF000000
FF000000
FF000000
FF000000
FF000000
FF000000
FF000000
FF000000
FF000000
FF000000
FF000000
FF000000
FF000000
FF000000
FF000000
FF000000
FF000000
FF000000
FF000000
FF000000
FF000000
FF000000
FF000000
FF000000
FF000000
FF000000
FF000000
FF000000
FF000000
FF000000
FF000000
FF000000
FF000000
FF000000
FF000000
FF000000
FF000000
FF000000
FF000000
FF000000
FF000000
FF000000
FF000000
FF000000
FF000000
FF000000
FF000000
FF000000
FF000000
FF000000
FF000000
FF000000
FF000000
FF800000
FF800000
FFC00000
7FFFFFF8
7FFFFFF8
7FFFFFF8
3FFFFFF8
1FFFFFF8
07FFFFF8
ENDCHAR
STARTCHAR 0044
ENCODING 68
SWIDTH 480 0
DWIDTH 49 0
BBX 34 71 7 0
BITMAP
7FFFFFF800
FFFFFFFE00
FFFFFFFF00
FFFFFFFF80
FFFFFFFFC0
FFFFFFFFC0
FF8000FFC0
FF80003FC0
FF80003FC0
FF80003FC0
FF80003FC0
FF80003FC0
FF80003FC0
FF80003FC0
FF80003FC0
FF80003FC0
FF80003FC0
FF80003FC0
FF80003FC0
FF80003FC0
FF80003FC0
FF80003FC0
FF80003FC0
FF80003FC0
FF80003FC0
FF80003FC0
FF80003FC0
FF80003FC0
FF80003FC0
FF80003FC0
FF80003FC0
FF80003FC0
FF80003FC0
FF80003FC0
FF80003FC0
FF80003FC0
FF80003FC0
FF80003FC0
FF80003FC0
FF80003FC0
FF80003FC0
FF80003FC0
FF80003FC0
FF80003FC0
FF80003FC0
FF80003FC0
FF80003FC0
FF80003FC0
FF80003FC0
FF80003FC0
FF80003FC0
FF80003FC0
FF80003FC0
FF80003FC0
FF80003FC0
FF80003FC0
FF80003FC0
FF80003FC0
FF80003FC0
FF80003FC0
FF80003FC0
FF80003FC0
FF80003FC0
FF80003FC0
FF8000FFC0
FF87FFFFC0
FF87FFFFC0
FF87FFFF80
FF87FFFF80
FF87FFFE00
FF87FFF800
ENDCHAR
STARTCHAR 0045
ENCODING 69
SWIDTH 392 0
DWIDTH 40 0
BBX 28 71 7 0
BITMAP
7FFFFFF0
FFFFFFF0
FFFFFFF0
FFFFFFF0
FFFFFFF0
FFFFFFE0
FF800000
FF800000
FF800000
FF800000
FF800000
FF800000
FF800000
FF800000
FF800000
FF800000
FF800000
FF800000
FF800000
FF800000
FF800000
FF800000
FF800000
FF800000
FF800000
FF800000
FF800000
FF800000
FF800000
FF800000
FF800000
FFFFFF80
FFFFFF80
FFFFFF80
FFFFFF80
FFFFFF80
FFFFFF00
FF800000
FF800000
FF800000
FF800000
FF800000
FF800000
FF800000
FF800000
FF800000
FF800000
FF800000
FF800000
FF800000
FF800000
FF800000
FF800000
FF800000
FF800000
FF800000
FF800000
FF800000
FF800000
FF800000
FF800000
FF800000
FF800000
FF800000
FF800000
FFFFFFF0
FFFFFFF0
FFFFFFF0
FFFFFFF0
FFFFFFF0
FFFFFFE0
ENDCHAR
STARTCHAR 0046
ENCODING 70
SWIDTH 372 0
DWIDTH 38 0
BBX 28 71 7 0
BITMAP
7FFFFFF0
FFFFFFF0
FFFFFFF0
FFFFFFF0
FFFFFFF0
FFFFFFE0
FF800000
FF800000
FF800000
FF800000
FF800000
FF800000
FF800000
FF800000
FF800000
FF800000
FF800000
FF800000
FF800000
FF800000
FF800000
FF800000
FF800000
FF800000
FF800000
FF800000
FF800000
FF800000
FF800000
FF800000
FF800000
FFFFFF80
FFFFFF80
FFFFFF80
FFFFFF80
FFFFFF80
FFFFFF00
FF800000
FF800000
FF800000
FF800000
FF800000
FF800000
FF800000
FF800000
FF800000
FF800000
FF800000
FF800000
FF800000
FF800000
FF800000
FF800000
FF800000
FF800000
FF800000
FF800000
FF800000
FF800000
FF800000
FF800000
FF800000
FF800000
FF800000
FF800000
FF800000
FF800000
FF800000
FF800000
FF000000
FF000000
ENDCHAR
STARTCHAR 0047
ENCODING 71
SWIDTH 460 0
DWIDTH 47 0
BBX 34 71 7 0
BITMAP
03FFFFFF00
1FFFFFFF00
3FFFFFFF00
7FFFFFFF00
7FFFFFFF00
7FFFFFFF00
FFC0000000
FF80000000
FF80000000
FF00000000
FF00000000
FF00000000
FF00000000
FF00000000
FF00000000
FF00000000
FF00000000
FF00000000
FF00000000
FF00000000
FF00000000
FF00000000
FF00000000
FF00000000
FF00000000
FF00000000
FF00000000
FF00000000
FF00000000
FF00000000
FF00000000
FF003FFFC0
FF007FFFC0
FF007FFFC0
FF007FFFC0
FF007FFFC0
FF007FFFC0
FF00003FC0
FF00003FC0
FF00003FC0
FF00003FC0
FF00003FC0
FF00003FC0
FF00003FC0
FF00003FC0
FF00003FC0
FF00003FC0
FF00003FC0
FF00003FC0
FF00003FC0
FF00003FC0
FF00003FC0
FF00003FC0
FF00003FC0
FF00003FC0
FF00003FC0
FF00003FC0
FF00003FC0
FF00003FC0
FF00003FC0
FF00003FC0
FF00003FC0
FF80003FC0
FF80007FC0
FFC000FFC0
7FFFFFFFC0
7FFFFFFF80
7FFFFFFF80
3FFFFFFF00
1FFFFFFE00
07FFFFF800
ENDCHAR
STARTCHAR 0048
ENCODING 72
SWIDTH 500 0
DWIDTH 51 0
BBX 36 71 7 0
BITMAP
7F800007F0
FF80000FF0
FF80000FF0
FF80000FF0
FF80000FF0
FF80000FF0
FF80000FF0
FF80000FF0
FF80000FF0
FF80000FF0
FF80000FF0
FF80000FF0
FF80000FF0
FF80000FF0
FF80000FF0
FF80000FF0
FF80000FF0
FF80000FF0
FF80000FF0
FF80000FF0
FF80000FF0
FF80000FF0
FF80000FF0
FF80000FF0
FF80000FF0
FF80000FF0
FF80000FF0
FF80000FF0
FF80000FF0
FF80000FF0
FF80000FF0
FFFFFF0FF0
FFFFFF0FF0
FFFFFF0FF0
FFFFFF0FF0
FFFFFF0FF0
FFFFFF0FF0
FF80000FF0
FF80000FF0
FF80000FF0
FF80000FF0
FF80000FF0
FF80000FF0
FF80000FF0
FF80000FF0
FF80000FF0
FF80000FF0
FF80000FF0
FF80000FF0
FF80000FF0
FF80000FF0
FF80000FF0
FF80000FF0
FF80000FF0
FF80000FF0
FF80000FF0
FF80000FF0
FF80000FF0
FF80000FF0
FF80000FF0
FF80000FF0
FF80000FF0
FF80000FF0
FF80000FF0
FF80000FF0
FF80000FF0
FF80000FF0
FF80000FF0
FF80000FF0
FF00000FF0
FF00000FF0
ENDCHAR
STARTCHAR 0049
ENCODING 73
SWIDTH 225 0
DWIDTH 23 0
BBX 9 71 7 0
BITMAP
7F80
FF80
FF80
FF80
FF80
FF80
FF80
FF80
FF80
FF80
FF80
FF80
FF80
FF80
FF80
FF80
FF80
FF80
FF80
FF80
FF80
FF80
FF80
FF80
FF80
FF80
FF80
FF80
FF80
FF80
FF80
FF80
FF80
FF80
FF80
FF80
FF80
FF80
FF80
FF80
FF80
FF80
FF80
FF80
FF80
FF80
FF80
FF80
FF80
FF80
FF80
FF80
FF80
FF80
FF80
FF80
FF80
FF80
FF80
FF80
FF80
FF80
FF80
FF80
FF80
FF80
FF80
FF80
FF80
FF00
FF00
ENDCHAR
STARTCHAR 004A
ENCODING 74
SWIDTH 225 0
DWIDTH 23 0
BBX 19 83 -3 -12
BITMAP
001FE0
003FE0
003FE0
003FE0
003FE0
003FE0
003FE0
003FE0
003FE0
003FE0
003FE0
003FE0
003FE0
003FE0
003FE0
003FE0
003FE0
003FE0
003FE0
003FE0
003FE0
003FE0
003FE0
003FE0
003FE0
003FE0
003FE0
003FE0
003FE0
003FE0
003FE0
003FE0
003FE0
003FE0
003FE0
003FE0
003FE0
003FE0
003FE0
003FE0
003FE0
003FE0
003FE0
003FE0
003FE0
003FE0
003FE0
003FE0
003FE0
003FE0
003FE0
003FE0
003FE0
003FE0
003FE0
003FE0
003FE0
003FE0
003FE0
003FE0
003FE0
003FE0
003FE0
003FE0
003FE0
003FE0
003FE0
003FE0
003FE0
003FE0
003FE0
003FE0
003FE0
003FE0
003FC0
003FC0
00FFC0
FFFFC0
FFFFC0
FFFF80
FFFF80
FFFE00
FFF800
ENDCHAR
STARTCHAR 004B
ENCODING 75
SWIDTH 460 0
DWIDTH 47 0
BBX 38 71 7 0
BITMAP
7F800003F0
FF80000FF0
FF80001FE0
FF80001FE0
FF80003FC0
FF80003FC0
FF80007F80
FF8000FF80
FF8000FF00
FF8001FE00
FF8001FE00
FF8003FC00
FF8003FC00
FF8007F800
FF8007F800
FF800FF000
FF800FF000
FF801FE000
FF801FE000
FF803FC000
FF803FC000
FF807F8000
FF807F8000
FF80FF0000
FF80FF0000
FF81FE0000
FF81FC0000
FF83FC0000
FF83F80000
FF87F80000
FF87F00000
FF87F00000
FF87E00000
FF87E00000
FF87E00000
FF87F00000
FF87F00000
FF87F80000
FF87F80000
FF87FC0000
FF83FC0000
FF83FE0000
FF81FE0000
FF81FF0000
FF80FF0000
FF80FF8000
FF807F8000
FF807FC000
FF803FC000
FF803FE000
FF801FE000
FF801FF000
FF800FF000
FF800FF800
FF8007FC00
FF8007FC00
FF8003FE00
FF8003FE00
FF8001FF00
FF8001FF00
FF8000FF80
FF8000FF80
FF80007FC0
FF80007FC0
FF80003FE0
FF80003FE0
FF80001FF0
FF80001FF0
FF80000FF8
FF000007F8
FF000003FC
ENDCHAR
STARTCHAR 004C
ENCODING 76
SWIDTH 392 0
DWIDTH 40 0
BBX 30 71 7 0
BITMAP
7F800000
FF800000
FF800000
FF800000
FF800000
FF800000
FF800000
FF800000
FF800000
FF800000
FF800000
FF800000
FF800000
FF800000
FF800000
FF800000
FF800000
FF800000
FF800000
FF800000
FF800000
FF800000
FF800000
FF800000
FF800000
FF800000
FF800000
FF800000
FF800000
FF800000
FF800000
FF800000
FF800000
FF800000
FF800000
FF800000
FF800000
FF800000
FF800000
FF800000
FF800000
FF800000
FF800000
FF800000
FF800000
FF800000
FF800000
FF800000
FF800000
FF800000
FF800000
FF800000
FF800000
FF800000
FF800000
FF800000
FF800000
FF800000
FF800000
FF800000
FF800000
FF800000
FF800000
FF800000
FF800000
FFFFFFFC
FFFFFFFC
FFFFFFFC
FFFFFFFC
FFFFFFFC
FFFFFFF8
ENDCHAR
STARTCHAR 004D
ENCODING 77
SWIDTH 637 0
DWIDTH 65 0
BBX 51 71 7 0
BITMAP
7FC00000001FE0
FFE00000003FE0
FFE00000007FE0
FFE00000007FE0
FFF0000000FFE0
FFF0000000FFE0
FFF8000001FFE0
FFF8000001FFE0
FFF8000001FFE0
FFFC000003FFE0
FFFC000003FFE0
FFFC000007FFE0
FEFE000007EFE0
FE7E00000FCFE0
FF7F00000FDFE0
FF7F00000FDFE0
FF3F00001F9FE0
FF3F80001F9FE0
FF3F80003F1FE0
FF1FC0003F1FE0
FF1FC0007F1FE0
FF0FC0007E1FE0
FF0FE0007E1FE0
FF0FE000FC1FE0
FF07F000FC1FE0
FF07F001F81FE0
FF03F001F81FE0
FF03F803F81FE0
FF03F803F01FE0
FF01FC03F01FE0
FF01FC07E01FE0
FF01FC07E01FE0
FF00FE0FE01FE0
FF00FE0FC01FE0
FF007E0FC01FE0
FF007F1F801FE0
FF007F1F801FE0
FF003F1F001FE0
FF003F1F001FE0
FF001FBF001FE0
FF001FBE001FE0
FF001FFE001FE0
FF000FFC001FE0
FF000FFC001FE0
FF000FFC001FE0
FF0007F8001FE0
FF0007F8001FE0
FF0003F0001FE0
FF0003E0001FE0
FF000000001FE0
FF000000001FE0
FF800000001FE0
FF800000001FE0
FF800000001FE0
FF800000001FE0
FF800000001FE0
FF800000001FE0
FF800000001FE0
FF800000001FE0
FF800000001FE0
FF800000001FE0
FF800000001FE0
FF800000001FE0
FF800000001FE0
FF800000001FE0
FF800000001FE0
FF800000001FE0
FF800000001FE0
FF800000001FE0
FF800000001FE0
FF000000001FC0
ENDCHAR
STARTCHAR 004E
ENCODING 78
SWIDTH 539 0
DWIDTH 55 0
BBX 40 71 7 0
BITMAP
7F8000007F
FF800000FF
FFC00000FF
FFC00000FF
FFE00000FF
FFE00000FF
FFE00000FF
FFF00000FF
FFF00000FF
FFF80000FF
FFF80000FF
FFFC0000FF
FEFC0000FF
FEFC0000FF
FEFE0000FF
FE7E0000FF
FE7F0000FF
FF7F0000FF
FF3F8000FF
FF3F8000FF
FF1FC000FF
FF1FC000FF
FF1FC000FF
FF0FE000FF
FF0FE000FF
FF0FF000FF
FF87F000FF
FF87F800FF
FF87F800FF
FF83F800FF
FF83FC00FF
FF81FC00FF
FF81FE00FF
FF80FE00FF
FF80FF00FF
FF80FF00FF
FF807F00FF
FF807F80FF
FF803F80FF
FF803FC0FF
FF801FC0FF
FF801FE0FF
FF800FE0FF
FF800FF0FF
FF800FF0FF
FF8007F0FF
FF8007F8FF
FF8003F87F
FF8003F87F
FF8001FC7F
FF8001FC7F
FF8000FC7F
FF8000FE7F
FF8000FE7F
FF80007F7F
FF80007F7F
FF80003F3F
FF80003FBF
FF80001FFF
FF80001FFF
FF80000FFF
FF80000FFF
FF80000FFF
FF800007FF
FF800007FF
FF800003FF
FF800003FF
FF800001FF
FF800001FF
FF000000FF
FF000000FF
ENDCHAR
STARTCHAR 004F
ENCODING 79
SWIDTH 480 0
DWIDTH 49 0
BBX 35 71 7 0
BITMAP
03FFFFFC00
1FFFFFFF00
3FFFFFFF80
7FFFFFFFC0
7FFFFFFFC0
7FFFFFFFE0
FFC0007FE0
FF80003FE0
FF80001FE0
FF00001FE0
FF00001FE0
FF00001FE0
FF00001FE0
FF00001FE0
FF00001FE0
FF00001FE0
FF00001FE0
FF00001FE0
FF00001FE0
FF00001FE0
FF00001FE0
FF00001FE0
FF00001FE0
FF00001FE0
FF00001FE0
FF00001FE0
FF00001FE0
FF00001FE0
FF00001FE0
FF00001FE0
FF00001FE0
FF00001FE0
FF00001FE0
FF00001FE0
FF00001FE0
FF00001FE0
FF00001FE0
FF00001FE0
FF00001FE0
FF00001FE0
FF00001FE0
FF00001FE0
FF00001FE0
FF00001FE0
FF00001FE0
FF00001FE0
FF00001FE0
FF00001FE0
FF00001FE0
FF00001FE0
FF00001FE0
FF00001FE0
FF00001FE0
FF00001FE0
FF00001FE0
FF00001FE0
FF00001FE0
FF00001FE0
FF00001FE0
FF00001FE0
FF00001FE0
FF00001FE0
FF80001FE0
FF80003FE0
FFC0007FE0
7FFFFFFFE0
7FFFFFFFC0
7FFFFFFFC0
3FFFFFFF80
1FFFFFFF00
07FFFFFC00
ENDCHAR
STARTCHAR 0050
ENCODING 80
SWIDTH 441 0
DWIDTH 45 0
BBX 33 71 7 0
BITMAP
7FFFFFF000
FFFFFFFC00
FFFFFFFE00
FFFFFFFF00
FFFFFFFF80
FFFFFFFF80
FF8001FF80
FF8000FF80
FF80007F80
FF80007F80
FF80007F80
FF80007F80
FF80007F80
FF80007F80
FF80007F80
FF80007F80
FF80007F80
FF80007F80
FF80007F80
FF80007F80
FF80007F80
FF80007F80
FF80007F80
FF80007F80
FF80007F80
FF80007F80
FF80007F80
FF80007F80
FF80007F80
FF80007F80
FF80007F80
FF80007F80
FF80007F80
FF8000FF80
FF8001FF80
FF87FFFF80
FF87FFFF80
FF87FFFF00
FF87FFFF00
FF87FFFC00
FF87FFF000
FF80000000
FF80000000
FF80000000
FF80000000
FF80000000
FF80000000
FF80000000
FF80000000
FF80000000
FF80000000
FF80000000
FF80000000
FF80000000
FF80000000
FF80000000
FF80000000
FF80000000
FF80000000
FF80000000
FF80000000
FF80000000
FF80000000
FF80000000
FF80000000
FF80000000
FF80000000
FF80000000
FF80000000
FF00000000
FF00000000
ENDCHAR
STARTCHAR 0051
ENCODING 81
SWIDTH 480 0
DWIDTH 49 0
BBX 35 84 7 -13
BITMAP
03FFFFFC00
1FFFFFFF00
3FFFFFFF80
7FFFFFFFC0
7FFFFFFFC0
7FFFFFFFE0
FFC0007FE0
FF80003FE0
FF80001FE0
FF00001FE0
FF00001FE0
FF00001FE0
FF00001FE0
FF00001FE0
FF00001FE0
FF00001FE0
FF00001FE0
FF00001FE0
FF00001FE0
FF00001FE0
FF00001FE0
FF00001FE0
FF00001FE0
FF00001FE0
FF00001FE0
FF00001FE0
FF00001FE0
FF00001FE0
FF00001FE0
FF00001FE0
FF00001FE0
FF00001FE0
FF00001FE0
FF00001FE0
FF00001FE0
FF00001FE0
FF00001FE0
FF00001FE0
FF00001FE0
FF00001FE0
FF00001FE0
FF00001FE0
FF00001FE0
FF00001FE0
FF00001FE0
FF00001FE0
FF00001FE0
FF00001FE0
FF00001FE0
FF00001FE0
FF00001FE0
FF00001FE0
FF00001FE0
FF00001FE0
FF00001FE0
FF00001FE0
FF00001FE0
FF00001FE0
FF00001FE0
FF00001FE0
FF00001FE0
FF00001FE0
FF80001FE0
FF80003FE0
FFC0007FE0
7FFFFFFFE0
7FFFFFFFC0
7FFFFFFFC0
3FFFFFFF80
1FFFFFFF00
07FFFFFC00
0003F00000
0003F00000
0003F00000
0003F00000
0003F00000
0003F80000
0003FC0000
0003FFF800
0001FFF800
0001FFF800
0000FFF800
00007FF800
00001FF000
ENDCHAR
STARTCHAR 0052
ENCODING 82
SWIDTH 470 0
DWIDTH 48 0
BBX 36 71 7 0
BITMAP
7FFFFFF000
FFFFFFFE00
FFFFFFFF00
FFFFFFFF80
FFFFFFFF80
FFFFFFFF80
FF8000FFC0
FF80007FC0
FF80007FC0
FF80003FC0
FF80003FC0
FF80003FC0
FF80003FC0
FF80003FC0
FF80003FC0
FF80003FC0
FF80003FC0
FF80003FC0
FF80003FC0
FF80003FC0
FF80003FC0
FF80003FC0
FF80003FC0
FF80003FC0
FF80003FC0
FF80003FC0
FF80003FC0
FF80003FC0
FF80007FC0
FF80007FC0
FF8000FFC0
FF87FFFF80
FF87FFFF80
FF87FFFF80
FF87FFFF00
FF87FFFE00
FF87FFF800
FF803FC000
FF801FE000
FF801FE000
FF801FE000
FF800FF000
FF800FF000
FF800FF000
FF800FF800
FF8007F800
FF8007F800
FF8007F800
FF8003FC00
FF8003FC00
FF8003FC00
FF8001FE00
FF8001FE00
FF8001FE00
FF8000FF00
FF8000FF00
FF8000FF00
FF8000FF00
FF80007F80
FF80007F80
FF80007F80
FF80003FC0
FF80003FC0
FF80003FC0
FF80001FE0
FF80001FE0
FF80001FE0
FF80001FE0
FF80000FF0
FF00000FF0
FF000007F0
ENDCHAR
STARTCHAR 0053
ENCODING 83
SWIDTH 392 0
DWIDTH 40 0
BBX 28 71 6 0
BITMAP
07FFFF80
1FFFFFC0
3FFFFFE0
7FFFFFE0
7FFFFFF0
FFFFFFF0
FFC00000
FF800000
FF800000
FF000000
FF000000
FF000000
FF000000
FF000000
FF000000
FF000000
FF000000
FF000000
FF000000
FF000000
FF000000
FF000000
FF000000
FF000000
FF000000
FF000000
FF000000
FF000000
FF000000
FF800000
FFC00000
FFFFFE00
7FFFFF80
7FFFFFC0
3FFFFFE0
1FFFFFE0
07FFFFF0
00003FF0
00001FF0
00000FF0
00000FF0
00000FF0
00000FF0
00000FF0
00000FF0
00000FF0
00000FF0
00000FF0
00000FF0
00000FF0
00000FF0
00000FF0
00000FF0
00000FF0
00000FF0
00000FF0
00000FF0
00000FF0
00000FF0
00000FF0
00000FF0
00000FF0
00000FF0
00001FF0
00003FF0
FFFFFFF0
FFFFFFF0
7FFFFFE0
7FFFFFC0
3FFFFF80
1FFFFE00
ENDCHAR
STARTCHAR 0054
ENCODING 84
SWIDTH 421 0
DWIDTH 43 0
BBX 38 71 3 0
BITMAP
FFFFFFFFFC
FFFFFFFFFC
FFFFFFFFFC
FFFFFFFFFC
FFFFFFFFF8
FFFFFFFFF8
0003FE0000
0003FE0000
0003FE0000
0003FE0000
0003FE0000
0003FE0000
0003FE0000
0003FE0000
0003FE0000
0003FE0000
0003FE0000
0003FE0000
0003FE0000
0003FE0000
0003FE0000
0003FE0000
0003FE0000
0003FE0000
0003FE0000
0003FE0000
0003FE0000
0003FE0000
0003FE0000
0003FE0000
0003FE0000
0003FE0000
0003FE0000
0003FE0000
0003FE0000
0003FE0000
0003FE0000
0003FE0000
0003FE0000
0003FE0000
0003FE0000
0003FE0000
0003FE0000
0003FE0000
0003FE0000
0003FE0000
0003FE0000
0003FE0000
0003FE0000
0003FE0000
0003FE0000
0003FE0000
0003FE0000
0003FE0000
0003FE0000
0003FE0000
0003FE0000
0003FE0000
0003FE0000
0003FE0000
0003FE0000
0003FE0000
0003FE0000
0003FE0000
0003FE0000
0003FE0000
0003FE0000
0003FE0000
0003FE0000
0003FE0000
0003FC0000
ENDCHAR
STARTCHAR 0055
ENCODING 85
SWIDTH 490 0
DWIDTH 50 0
BBX 36 71 7 0
BITMAP
7F00000FF0
FF00000FF0
FF00000FF0
FF00000FF0
FF00000FF0
FF00000FF0
FF00000FF0
FF00000FF0
FF00000FF0
FF00000FF0
FF00000FF0
FF00000FF0
FF00000FF0
FF00000FF0
FF00000FF0
FF00000FF0
FF00000FF0
FF00000FF0
FF00000FF0
FF00000FF0
FF00000FF0
FF00000FF0
FF00000FF0
FF00000FF0
FF00000FF0
FF00000FF0
FF00000FF0
FF00000FF0
FF00000FF0
FF00000FF0
FF00000FF0
FF00000FF0
FF00000FF0
FF00000FF0
FF00000FF0
FF00000FF0
FF00000FF0
FF00000FF0
FF00000FF0
FF00000FF0
FF00000FF0
FF00000FF0
FF00000FF0
FF00000FF0
FF00000FF0
FF00000FF0
FF00000FF0
FF00000FF0
FF00000FF0
FF00000FF0
FF00000FF0
FF00000FF0
FF00000FF0
FF00000FF0
FF00000FF0
FF00000FF0
FF00000FF0
FF00000FF0
FF00000FF0
FF00000FF0
FF00000FF0
FF80000FF0
FF80001FF0
FF80001FF0
FFC0003FF0
7FFFFFFFE0
7FFFFFFFE0
7FFFFFFFE0
3FFFFFFFC0
1FFFFFFF80
03FFFFFE00
ENDCHAR
STARTCHAR 0056
ENCODING 86
SWIDTH 450 0
DWIDTH 46 0
BBX 40 71 3 0
BITMAP
7F0000007F
FF000000FF
FF000000FF
FF800000FF
7F800000FE
7F800001FE
7F800001FE
7F800001FE
7FC00001FE
3FC00003FC
3FC00003FC
3FC00003FC
3FE00003FC
3FE00003FC
1FE00007F8
1FE00007F8
1FE00007F8
1FF00007F8
0FF00007F0
0FF0000FF0
0FF0000FF0
0FF0000FF0
0FF8000FF0
07F8000FE0
07F8001FE0
07F8001FE0
07FC001FE0
07FC001FE0
03FC001FC0
03FC003FC0
03FC003FC0
03FE003FC0
01FE003F80
01FE003F80
01FE007F80
01FE007F80
01FF007F80
00FF007F00
00FF007F00
00FF00FF00
00FF80FF00
00FF80FF00
007F80FE00
007F80FE00
007F81FE00
007FC1FE00
003FC1FC00
003FC1FC00
003FC1FC00
003FE3FC00
003FE3FC00
001FE3F800
001FE3F800
001FE3F800
001FE3F800
000FE3F800
000FF7F000
000FF7F000
000FF7F000
000FF7F000
0007F7E000
0007F7E000
0007FFE000
0007FFE000
0007FFE000
0003FFC000
0003FFC000
0003FFC000
0003FFC000
0001FF8000
0001FF8000
ENDCHAR
STARTCHAR 0057
ENCODING 87
SWIDTH 715 0
DWIDTH 73 0
BBX 65 71 4 -1
BITMAP
FF0000000000003F80
FF0000000000007F80
FF0000000000007F80
FF0000000000007F80
FF000000000000FF00
FF000000000000FF00
7F800000000000FF00
7F800000000000FF00
7F800000000000FF00
7F800000000000FF00
7F800000000001FE00
7F800000000001FE00
3FC00000000001FE00
3FC00000000001FE00
3FC00000000001FE00
3FC00000000001FC00
3FC00000000003FC00
1FC00000000003FC00
1FE00000000003FC00
1FE00003F80003FC00
1FE00007F80003FC00
1FE00007F80003F800
1FE0000FFC0003F800
0FE0000FFC0007F800
0FF0000FFC0007F800
0FF0000FFC0007F800
0FF0001FFC0007F800
0FF0001FFE0007F000
07F0001FFE0007F000
07F8001F7E000FF000
07F8003F7E000FF000
07F8003F7F000FF000
07F8003F7F000FE000
07F8007F3F000FE000
03F8007E3F000FE000
03FC007E3F801FE000
03FC007E3F801FE000
03FC00FE3F801FE000
03FC00FE3F801FC000
01FC00FE1FC01FC000
01FC00FC1FC01FC000
01FE01FC1FC03FC000
01FE01FC1FC03FC000
01FE01F80FE03F8000
01FE03F80FE03F8000
00FE03F80FE03F8000
00FE03F80FE03F8000
00FF03F007E07F8000
00FF07F007F07F8000
00FF07F007F07F0000
007F07E007F07F0000
007F07E003F07F0000
007F0FE003F87F0000
007F8FE003F8FF0000
007F8FC003F8FE0000
003F8FC001F8FE0000
003F8FC001F8FE0000
003F9FC001FCFE0000
003F9F8001FCFE0000
003FDF8000FDFE0000
003FDF8000FDFC0000
001FDF0000FDFC0000
001FFF0000FFFC0000
001FFF00007FFC0000
001FFF00007FFC0000
001FFE00007FFC0000
000FFE00007FF80000
000FFE00003FF80000
000FFC00003FF80000
000FFC00003FF80000
000FF800003FF00000
ENDCHAR
STARTCHAR 0058
ENCODING 88
SWIDTH 441 0
DWIDTH 45 0
BBX 38 71 3 0
BITMAP
7F000001FC
7F000001FC
FF000003FC
7F800003FC
7F800007F8
3FC00007F8
3FC0000FF8
1FE0000FF0
1FE0000FF0
1FE0001FE0
0FF0001FE0
0FF0003FC0
07F8003FC0
07F8007FC0
03FC007F80
03FC007F80
03FC00FF00
01FE00FF00
01FE01FE00
00FF01FE00
00FF03FC00
007F83FC00
007F83FC00
007F87F800
003FC7F800
003FC7F000
001FC7F000
001FCFE000
000FEFE000
000FEFE000
000FFFC000
0007FFC000
0007FF8000
0003FF8000
0003FF0000
0001FF0000
0003FF0000
0003FF8000
0007FF8000
0007FFC000
0007FFC000
000FEFC000
000FEFE000
001FCFE000
001FC7F000
003FC7F000
003F87F800
003F87F800
007F83F800
007F03FC00
00FF01FC00
00FF01FE00
01FE01FE00
01FE00FF00
03FC00FF00
03FC007F00
03F8007F80
07F8003F80
07F8003FC0
0FF0003FC0
0FF0001FE0
1FE0001FE0
1FE0000FF0
1FE0000FF0
3FC0000FF0
3FC00007F8
7F800007F8
7F800003FC
7F800003FC
7F000003FC
7F000001F8
ENDCHAR
STARTCHAR 0059
ENCODING 89
SWIDTH 421 0
DWIDTH 43 0
BBX 40 71 2 0
BITMAP
FE0000007F
FE000000FE
FF000000FE
FF000001FC
7F800001FC
7F800003FC
7F800003F8
3FC00003F8
3FC00007F0
1FC00007F0
1FE00007F0
1FE0000FE0
0FF0000FE0
0FF0001FC0
07F0001FC0
07F8001FC0
07F8003F80
03FC003F80
03FC007F00
01FC007F00
01FE007F00
01FE00FE00
00FF00FE00
00FF00FC00
007F01FC00
007F81FC00
007F81F800
003F83F800
003F83F000
001FC3F000
001FC7F000
001FC7E000
000FE7E000
000FE7C000
0007EFC000
0007FFC000
0007FF8000
0003FF8000
0003FF0000
0001FF0000
0001FF0000
0001FE0000
0001FE0000
0001FE0000
0001FE0000
0001FE0000
0001FE0000
0001FE0000
0001FE0000
0001FE0000
0001FE0000
0001FE0000
0001FE0000
0001FE0000
0001FE0000
0001FE0000
0001FE0000
0001FE0000
0001FE0000
0001FE0000
0001FE0000
0001FE0000
0001FE0000
0001FE0000
0001FE0000
0001FE0000
0001FE0000
0001FE0000
0001FE0000
0001FE0000
0001FE0000
ENDCHAR
STARTCHAR 005A
ENCODING 90
SWIDTH 411 0
DWIDTH 42 0
BBX 33 71 4 0
BITMAP
3FFFFFFF80
7FFFFFFF80
7FFFFFFF80
7FFFFFFF80
7FFFFFFF80
7FFFFFFF80
0000007F80
0000007F80
000000FF00
000000FF00
000001FE00
000001FE00
000003FE00
000003FC00
000003FC00
000007F800
000007F800
00000FF000
00000FF000
00001FF000
00001FE000
00003FE000
00003FC000
00003FC000
00007F8000
00007F8000
0000FF8000
0000FF0000
0001FF0000
0001FE0000
0001FE0000
0003FC0000
0003FC0000
0007FC0000
0007F80000
000FF80000
000FF00000
000FF00000
001FE00000
001FE00000
003FE00000
003FC00000
007FC00000
007F800000
007F800000
00FF000000
00FF000000
01FE000000
01FE000000
03FE000000
03FC000000
03FC000000
07F8000000
07F8000000
0FF0000000
0FF0000000
1FF0000000
1FE0000000
1FE0000000
3FC0000000
3FC0000000
7F80000000
7F80000000
FF80000000
FF00000000
FFFFFFFF80
FFFFFFFF80
FFFFFFFF80
FFFFFFFF80
FFFFFFFF80
FFFFFFFF00
ENDCHAR
STARTCHAR 005B
ENCODING 91
SWIDTH 313 0
DWIDTH 32 0
BBX 21 91 8 -13
BITMAP
FFFFF8
FFFFF8
FFFFF8
FFFFF8
FFFFF0
FFFFF0
FF0000
FF0000
FF0000
FF0000
FF0000
FF0000
FF0000
FF0000
FF0000
FF0000
FF0000
FF0000
FF0000
FF0000
FF0000
FF0000
FF0000
FF0000
FF0000
FF0000
FF0000
FF0000
FF0000
FF0000
FF0000
FF0000
FF0000
FF0000
FF0000
FF0000
FF0000
FF0000
FF0000
FF0000
FF0000
FF0000
FF0000
FF0000
FF0000
FF0000
FF0000
FF0000
FF0000
FF0000
FF0000
FF0000
FF0000
FF0000
FF0000
FF0000
FF0000
FF0000
FF0000
FF0000
FF0000
FF0000
FF0000
FF0000
FF0000
FF0000
FF0000
FF0000
FF0000
FF0000
FF0000
FF0000
FF0000
FF0000
FF0000
FF0000
FF0000
FF0000
FF0000
FF0000
FF0000
FF0000
FF0000
FF0000
FF0000
FFFFF8
FFFFF8
FFFFF8
FFFFF8
FFFFF0
FFFFF0
ENDCHAR
STARTCHAR 005C
ENCODING 92
SWIDTH 382 0
DWIDTH 39 0
BBX 31 90 4 -12
BITMAP
7F000000
FF000000
7F000000
7F800000
7F800000
7F800000
3F800000
3FC00000
3FC00000
3FC00000
1FC00000
1FE00000
1FE00000
1FE00000
0FE00000
0FF00000
0FF00000
07F00000
07F80000
07F80000
07F80000
03F80000
03FC0000
03FC0000
03FC0000
01FC0000
01FE0000
01FE0000
01FE0000
00FE0000
00FF0000
00FF0000
007F0000
007F8000
007F8000
007F8000
003F8000
003FC000
003FC000
003FC000
001FC000
001FE000
001FE000
001FE000
000FE000
000FF000
000FF000
0007F000
0007F800
0007F800
0007F800
0003F800
0003FC00
0003FC00
0003FC00
0001FC00
0001FE00
0001FE00
0001FE00
0000FE00
0000FF00
0000FF00
00007F00
00007F80
00007F80
00007F80
00003F80
00003FC0
00003FC0
00003FC0
00001FC0
00001FE0
00001FE0
00001FE0
00000FE0
00000FF0
00000FF0
000007F0
000007F8
000007F8
000007F8
000003F8
000003FC
000003FC
000003FC
000001FC
000001FE
000001FE
000001FE
000000FE
ENDCHAR
STARTCHAR 005D
ENCODING 93
SWIDTH 313 0
DWIDTH 32 0
BBX 21 91 4 -13
BITMAP
FFFFF0
FFFFF8
FFFFF8
FFFFF8
FFFFF8
7FFFF8
0007F8
0007F8
0007F8
0007F8
0007F8
0007F8
0007F8
0007F8
0007F8
0007F8
0007F8
0007F8
0007F8
0007F8
0007F8
0007F8
0007F8
0007F8
0007F8
0007F8
0007F8
0007F8
0007F8
0007F8
0007F8
0007F8
0007F8
0007F8
0007F8
0007F8
0007F8
0007F8
0007F8
0007F8
0007F8
0007F8
0007F8
0007F8
0007F8
0007F8
0007F8
0007F8
0007F8
0007F8
0007F8
0007F8
0007F8
0007F8
0007F8
0007F8
0007F8
0007F8
0007F8
0007F8
0007F8
0007F8
0007F8
0007F8
0007F8
0007F8
0007F8
0007F8
0007F8
0007F8
0007F8
0007F8
0007F8
0007F8
0007F8
0007F8
0007F8
0007F8
0007F8
0007F8
0007F8
0007F8
0007F8
0007F8
0007F8
FFFFF8
FFFFF8
FFFFF8
FFFFF8
FFFFF8
7FFFF8
ENDCHAR
STARTCHAR 005E
ENCODING 94
SWIDTH 313 0
DWIDTH 32 0
BBX 26 13 3 58
BITMAP
007F8000
00FFC000
01FFE000
03FFF000
07FFF800
0FF7FC00
0FE3FC00
1FC0FE00
3F807F00
7F003F80
FE001FC0
FC000FC0
F80007C0
ENDCHAR
STARTCHAR 005F
ENCODING 95
SWIDTH 450 0
DWIDTH 46 0
BBX 46 6 0 -6
BITMAP
FFFFFFFFFFF8
FFFFFFFFFFFC
FFFFFFFFFFFC
FFFFFFFFFFFC
FFFFFFFFFFFC
7FFFFFFFFFFC
ENDCHAR
STARTCHAR 0060
ENCODING 96
SWIDTH 254 0
DWIDTH 26 0
BBX 14 14 7 57
BITMAP
7F00
FF80
FF80
7FC0
3FC0
1FE0
0FE0
0FF0
07F0
03F8
01F8
01FC
00FC
007C
ENDCHAR
STARTCHAR 0061
ENCODING 97
SWIDTH 431 0
DWIDTH 44 0
BBX 33 52 5 0
BITMAP
03FFFFE000
0FFFFFFC00
1FFFFFFE00
1FFFFFFF00
1FFFFFFF00
3FFFFFFF00
000001FF80
000000FF80
000000FF80
0000007F80
0000007F80
0000007F80
0000007F80
0000007F80
0000007F80
0000007F80
0000007F80
0000007F80
0000007F80
0000007F80
0000007F80
03FFF87F80
1FFFFE7F80
3FFFFE7F80
7FFFFF7F80
7FFFFF7F80
7FFFFFFF80
FFC0007F80
FF80007F80
FF80007F80
FF80007F80
FF00007F80
FF00007F80
FF00007F80
FF00007F80
FF00007F80
FF00007F80
FF00007F80
FF00007F80
FF00007F80
FF00007F80
FF00007F80
FF00007F80
FF80007F80
FF80007F80
FFC0007F80
7FFFF87F80
7FFFF87F80
7FFFF87F80
3FFFF87F80
1FFFF87F80
03FFF07F80
ENDCHAR
STARTCHAR 0062
ENCODING 98
SWIDTH 460 0
DWIDTH 47 0
BBX 33 71 7 0
BITMAP
FF00000000
FF00000000
FF00000000
FF00000000
FF00000000
FF00000000
FF00000000
FF00000000
FF00000000
FF00000000
FF00000000
FF00000000
FF00000000
FF00000000
FF00000000
FF00000000
FF00000000
FF00000000
FF00000000
FF07FFF000
FF0FFFFC00
FF0FFFFE00
FF0FFFFF00
FF0FFFFF80
FF0FFFFF80
FF0001FF80
FF0000FF80
FF00007F80
FF00007F80
FF00007F80
FF00007F80
FF00007F80
FF00007F80
FF00007F80
FF00007F80
FF00007F80
FF00007F80
FF00007F80
FF00007F80
FF00007F80
FF00007F80
FF00007F80
FF00007F80
FF00007F80
FF00007F80
FF00007F80
FF00007F80
FF00007F80
FF00007F80
FF00007F80
FF00007F80
FF00007F80
FF00007F80
FF00007F80
FF00007F80
FF00007F80
FF00007F80
FF00007F80
FF00007F80
FF00007F80
FF00007F80
FF00007F80
FF00007F80
FF0000FF80
FF0001FF80
FFFFFFFF80
FFFFFFFF80
FF7FFFFF00
FF7FFFFE00
FF3FFFFC00
FE1FFFF000
ENDCHAR
STARTCHAR 0063
ENCODING 99
SWIDTH 352 0
DWIDTH 36 0
BBX 26 52 6 0
BITMAP
03FFFF80
1FFFFFC0
3FFFFFC0
3FFFFFC0
7FFFFFC0
7FFFFFC0
7FC00000
7F800000
FF800000
FF800000
FF800000
FF800000
FF800000
FF800000
FF800000
FF800000
FF800000
FF800000
FF800000
FF800000
FF800000
FF800000
FF800000
FF800000
FF800000
FF800000
FF800000
FF800000
FF800000
FF800000
FF800000
FF800000
FF800000
FF800000
FF800000
FF800000
FF800000
FF800000
FF800000
FF800000
FF800000
FF800000
FF800000
FF800000
7F800000
7FC00000
7FFFFFC0
7FFFFFC0
3FFFFFC0
3FFFFFC0
1FFFFFC0
03FFFF80
ENDCHAR
STARTCHAR 0064
ENCODING 100
SWIDTH 460 0
DWIDTH 47 0
BBX 34 71 6 0
BITMAP
0000001FC0
0000003FC0
0000003FC0
0000003FC0
0000003FC0
0000003FC0
0000003FC0
0000003FC0
0000003FC0
0000003FC0
0000003FC0
0000003FC0
0000003FC0
0000003FC0
0000003FC0
0000003FC0
0000003FC0
0000003FC0
0000003FC0
03FFFE3FC0
1FFFFF3FC0
3FFFFFBFC0
3FFFFFBFC0
7FFFFFFFC0
7FFFFFFFC0
7FC0003FC0
7F80003FC0
FF80003FC0
FF80003FC0
FF80003FC0
FF80003FC0
FF80003FC0
FF80003FC0
FF80003FC0
FF80003FC0
FF80003FC0
FF80003FC0
FF80003FC0
FF80003FC0
FF80003FC0
FF80003FC0
FF80003FC0
FF80003FC0
FF80003FC0
FF80003FC0
FF80003FC0
FF80003FC0
FF80003FC0
FF80003FC0
FF80003FC0
FF80003FC0
FF80003FC0
FF80003FC0
FF80003FC0
FF80003FC0
FF80003FC0
FF80003FC0
FF80003FC0
FF80003FC0
FF80003FC0
FF80003FC0
FF80003FC0
FF80003FC0
7F80003FC0
7FC0003FC0
7FFFFC3FC0
7FFFFC3FC0
3FFFFC3FC0
3FFFFC3FC0
1FFFFC3FC0
03FFF83F80
ENDCHAR
STARTCHAR 0065
ENCODING 101
SWIDTH 411 0
DWIDTH 42 0
BBX 31 52 6 0
BITMAP
03FFFFC0
1FFFFFF0
3FFFFFF8
3FFFFFFC
7FFFFFFC
7FFFFFFE
7FE007FE
7F8001FE
FF8001FE
FF8001FE
FF8001FE
FF8001FE
FF8001FE
FF8001FE
FF8001FE
FF8001FE
FF8001FE
FF8001FE
FF8001FE
FF8001FE
FF8001FE
FF8001FE
FF8001FE
FF8001FE
FF8007FE
FF87FFFE
FF87FFFC
FF87FFFC
FF87FFF8
FF87FFF0
FF87FFC0
FF800000
FF800000
FF800000
FF800000
FF800000
FF800000
FF800000
FF800000
FF800000
FF800000
FF800000
FF800000
FF800000
7F800000
7FC00000
7FFFFFF0
7FFFFFF0
3FFFFFF0
3FFFFFF0
1FFFFFF0
03FFFFF0
ENDCHAR
STARTCHAR 0066
ENCODING 102
SWIDTH 303 0
DWIDTH 31 0
BBX 24 71 7 0
BITMAP
07FFFF
1FFFFF
3FFFFF
7FFFFF
FFFFFF
FFFFFF
FF8000
FF0000
FF0000
FF0000
FF0000
FF0000
FF0000
FF0000
FF0000
FF0000
FF0000
FF0000
FF0000
FFFFF0
FFFFF0
FFFFF0
FFFFF0
FFFFF0
FFFFF0
FF0000
FF0000
FF0000
FF0000
FF0000
FF0000
FF0000
FF0000
FF0000
FF0000
FF0000
FF0000
FF0000
FF0000
FF0000
FF0000
FF0000
FF0000
FF0000
FF0000
FF0000
FF0000
FF0000
FF0000
FF0000
FF0000
FF0000
FF0000
FF0000
FF0000
FF0000
FF0000
FF0000
FF0000
FF0000
FF0000
FF0000
FF0000
FF0000
FF0000
FF0000
FF0000
FF0000
FF0000
FF0000
FE0000
ENDCHAR
STARTCHAR 0067
ENCODING 103
SWIDTH 470 0
DWIDTH 48 0
BBX 34 73 6 -21
BITMAP
03FFFE1FC0
1FFFFF3FC0
3FFFFFBFC0
3FFFFFBFC0
7FFFFFFFC0
7FFFFFFFC0
7FC0003FC0
7F80003FC0
FF80003FC0
FF80003FC0
FF80003FC0
FF80003FC0
FF80003FC0
FF80003FC0
FF80003FC0
FF80003FC0
FF80003FC0
FF80003FC0
FF80003FC0
FF80003FC0
FF80003FC0
FF80003FC0
FF80003FC0
FF80003FC0
FF80003FC0
FF80003FC0
FF80003FC0
FF80003FC0
FF80003FC0
FF80003FC0
FF80003FC0
FF80003FC0
FF80003FC0
FF80003FC0
FF80003FC0
FF80003FC0
FF80003FC0
FF80003FC0
FF80003FC0
FF80003FC0
FF80003FC0
FF80003FC0
FF80003FC0
FF80003FC0
7F80003FC0
7FC0003FC0
7FFFFC3FC0
7FFFFC3FC0
3FFFFC3FC0
3FFFFC3FC0
1FFFFC3FC0
03FFF83FC0
0000003FC0
0000003FC0
0000003FC0
0000003FC0
0000003FC0
0000003FC0
0000003FC0
0000003FC0
0000003FC0
0000003FC0
0000003FC0
0000003FC0
0000003FC0
0000007FC0
000000FFC0
FFFFFFFFC0
FFFFFFFF80
FFFFFFFF80
FFFFFFFF00
7FFFFFFE00
7FFFFFF800
ENDCHAR
STARTCHAR 0068
ENCODING 104
SWIDTH 460 0
DWIDTH 47 0
BBX 33 71 7 0
BITMAP
FF00000000
FF00000000
FF00000000
FF00000000
FF00000000
FF00000000
FF00000000
FF00000000
FF00000000
FF00000000
FF00000000
FF00000000
FF00000000
FF00000000
FF00000000
FF00000000
FF00000000
FF00000000
FF00000000
FF1FFFF000
FF3FFFFC00
FF7FFFFE00
FF7FFFFF00
FFFFFFFF80
FFFFFFFF80
FF0001FF80
FF0000FF80
FF00007F80
FF00007F80
FF00007F80
FF00007F80
FF00007F80
FF00007F80
FF00007F80
FF00007F80
FF00007F80
FF00007F80
FF00007F80
FF00007F80
FF00007F80
FF00007F80
FF00007F80
FF00007F80
FF00007F80
FF00007F80
FF00007F80
FF00007F80
FF00007F80
FF00007F80
FF00007F80
FF00007F80
FF00007F80
FF00007F80
FF00007F80
FF00007F80
FF00007F80
FF00007F80
FF00007F80
FF00007F80
FF00007F80
FF00007F80
FF00007F80
FF00007F80
FF00007F80
FF00007F80
FF00007F80
FF00007F80
FF00007F80
FF00007F80
FF00007F80
FE00007F80
ENDCHAR
STARTCHAR 0069
ENCODING 105
SWIDTH 205 0
DWIDTH 21 0
BBX 9 65 6 0
BITMAP
7F80
FF80
FF80
FF80
FF80
FF80
FF80
FF80
0000
0000
0000
0000
0000
7F80
7F80
7F80
7F80
7F80
7F80
7F80
7F80
7F80
7F80
7F80
7F80
7F80
7F80
7F80
7F80
7F80
7F80
7F80
7F80
7F80
7F80
7F80
7F80
7F80
7F80
7F80
7F80
7F80
7F80
7F80
7F80
7F80
7F80
7F80
7F80
7F80
7F80
7F80
7F80
7F80
7F80
7F80
7F80
7F80
7F80
7F80
7F80
7F80
7F80
7F80
7F00
ENDCHAR
STARTCHAR 006A
ENCODING 106
SWIDTH 215 0
DWIDTH 22 0
BBX 9 86 6 -21
BITMAP
7F80
FF80
FF80
FF80
FF80
FF80
FF80
FF80
0000
0000
0000
0000
0000
7F80
7F80
7F80
7F80
7F80
7F80
7F80
7F80
7F80
7F80
7F80
7F80
7F80
7F80
7F80
7F80
7F80
7F80
7F80
7F80
7F80
7F80
7F80
7F80
7F80
7F80
7F80
7F80
7F80
7F80
7F80
7F80
7F80
7F80
7F80
7F80
7F80
7F80
7F80
7F80
7F80
7F80
7F80
7F80
7F80
7F80
7F80
7F80
7F80
7F80
7F80
7F80
7F80
7F80
7F80
7F80
7F80
7F80
7F80
7F80
7F80
7F80
7F80
7F80
7F80
7F80
7F80
7F00
7F00
7F00
7E00
7800
6000
ENDCHAR
STARTCHAR 006B
ENCODING 107
SWIDTH 421 0
DWIDTH 43 0
BBX 33 71 7 0
BITMAP
FF00000000
FF00000000
FF00000000
FF00000000
FF00000000
FF00000000
FF00000000
FF00000000
FF00000000
FF00000000
FF00000000
FF00000000
FF00000000
FF00000000
FF00000000
FF00000000
FF00000000
FF00000000
FF00000000
FF0000FF00
FF0001FE00
FF0003FE00
FF0003FC00
FF0007F800
FF000FF800
FF000FF000
FF001FE000
FF001FE000
FF003FC000
FF007F8000
FF007F8000
FF00FF0000
FF01FE0000
FF01FE0000
FF03FC0000
FF03F80000
FF07F80000
FF0FF00000
FF0FE00000
FF1FE00000
FF1FC00000
FF1F800000
FF1F800000
FF1FC00000
FF1FC00000
FF1FE00000
FF1FE00000
FF0FF00000
FF0FF80000
FF07F80000
FF07FC0000
FF03FC0000
FF03FE0000
FF01FE0000
FF01FF0000
FF00FF8000
FF00FF8000
FF007FC000
FF007FC000
FF003FE000
FF001FE000
FF001FF000
FF000FF800
FF000FF800
FF0007FC00
FF0007FC00
FF0003FE00
FF0003FE00
FF0001FF00
FF0001FF80
FE0000FF80
ENDCHAR
STARTCHAR 006C
ENCODING 108
SWIDTH 225 0
DWIDTH 23 0
BBX 8 71 7 0
BITMAP
7F
FF
FF
FF
FF
FF
FF
FF
FF
FF
FF
FF
FF
FF
FF
FF
FF
FF
FF
FF
FF
FF
FF
FF
FF
FF
FF
FF
FF
FF
FF
FF
FF
FF
FF
FF
FF
FF
FF
FF
FF
FF
FF
FF
FF
FF
FF
FF
FF
FF
FF
FF
FF
FF
FF
FF
FF
FF
FF
FF
FF
FF
FF
FF
FF
FF
FF
FF
FF
FF
FF
ENDCHAR
STARTCHAR 006D
ENCODING 109
SWIDTH 696 0
DWIDTH 71 0
BBX 58 52 7 0
BITMAP
FF1FFFE00FFFF000
FF3FFFFC3FFFFC00
FF7FFFFE3FFFFF00
FFFFFFFE7FFFFF00
FFFFFFFF7FFFFF80
FFFFFFFFFFFFFF80
FF0001FF0001FF80
FF0000FF80007F80
FF0000FF80007FC0
FF0000FF80007FC0
FF0000FF80007FC0
FF00007F80007FC0
FF00007F80007FC0
FF00007F80007FC0
FF00007F80007FC0
FF00007F80007FC0
FF00007F80007FC0
FF00007F80007FC0
FF00007F80007FC0
FF00007F80007FC0
FF00007F80007FC0
FF00007F80007FC0
FF00007F80007FC0
FF00007F80007FC0
FF00007F80007FC0
FF00007F80007FC0
FF00007F80007FC0
FF00007F80007FC0
FF00007F80007FC0
FF00007F80007FC0
FF00007F80007FC0
FF00007F80007FC0
FF00007F80007FC0
FF00007F80007FC0
FF00007F80007FC0
FF00007F80007FC0
FF00007F80007FC0
FF00007F80007FC0
FF00007F80007FC0
FF00007F80007FC0
FF00007F80007FC0
FF00007F80007FC0
FF00007F80007FC0
FF00007F80007FC0
FF00007F80007FC0
FF00007F80007FC0
FF00007F80007FC0
FF00007F80007FC0
FF00007F80007FC0
FF00007F80007FC0
FF00007F80007F80
FE00007F00007F80
ENDCHAR
STARTCHAR 006E
ENCODING 110
SWIDTH 460 0
DWIDTH 47 0
BBX 33 52 7 0
BITMAP
FF1FFFF000
FF3FFFFC00
FF7FFFFE00
FFFFFFFF00
FFFFFFFF00
FFFFFFFF80
FF0001FF80
FF0000FF80
FF00007F80
FF00007F80
FF00007F80
FF00007F80
FF00007F80
FF00007F80
FF00007F80
FF00007F80
FF00007F80
FF00007F80
FF00007F80
FF00007F80
FF00007F80
FF00007F80
FF00007F80
FF00007F80
FF00007F80
FF00007F80
FF00007F80
FF00007F80
FF00007F80
FF00007F80
FF00007F80
FF00007F80
FF00007F80
FF00007F80
FF00007F80
FF00007F80
FF00007F80
FF00007F80
FF00007F80
FF00007F80
FF00007F80
FF00007F80
FF00007F80
FF00007F80
FF00007F80
FF00007F80
FF00007F80
FF00007F80
FF00007F80
FF00007F80
FF00007F80
FE00007F80
ENDCHAR
STARTCHAR 006F
ENCODING 111
SWIDTH 460 0
DWIDTH 47 0
BBX 34 52 6 0
BITMAP
03FFFFF800
1FFFFFFE00
3FFFFFFF00
3FFFFFFF80
7FFFFFFF80
7FFFFFFFC0
7FC000FFC0
7F80007FC0
FF80003FC0
FF80003FC0
FF80003FC0
FF80003FC0
FF80003FC0
FF80003FC0
FF80003FC0
FF80003FC0
FF80003FC0
FF80003FC0
FF80003FC0
FF80003FC0
FF80003FC0
FF80003FC0
FF80003FC0
FF80003FC0
FF80003FC0
FF80003FC0
FF80003FC0
FF80003FC0
FF80003FC0
FF80003FC0
FF80003FC0
FF80003FC0
FF80003FC0
FF80003FC0
FF80003FC0
FF80003FC0
FF80003FC0
FF80003FC0
FF80003FC0
FF80003FC0
FF80003FC0
FF80003FC0
FF80003FC0
FF80003FC0
7F80007FC0
7FC000FFC0
7FFFFFFFC0
7FFFFFFF80
3FFFFFFF80
3FFFFFFF00
1FFFFFFE00
03FFFFF800
ENDCHAR
STARTCHAR 0070
ENCODING 112
SWIDTH 460 0
DWIDTH 47 0
BBX 33 73 7 -21
BITMAP
FF0FFFF000
FF0FFFFC00
FF0FFFFE00
FF0FFFFF00
FF0FFFFF00
FF0FFFFF80
FF0001FF80
FF0000FF80
FF00007F80
FF00007F80
FF00007F80
FF00007F80
FF00007F80
FF00007F80
FF00007F80
FF00007F80
FF00007F80
FF00007F80
FF00007F80
FF00007F80
FF00007F80
FF00007F80
FF00007F80
FF00007F80
FF00007F80
FF00007F80
FF00007F80
FF00007F80
FF00007F80
FF00007F80
FF00007F80
FF00007F80
FF00007F80
FF00007F80
FF00007F80
FF00007F80
FF00007F80
FF00007F80
FF00007F80
FF00007F80
FF00007F80
FF00007F80
FF00007F80
FF00007F80
FF0000FF80
FF0001FF80
FFFFFFFF80
FFFFFFFF80
FFFFFFFF00
FF7FFFFE00
FF3FFFFC00
FF1FFFF000
FF00000000
FF00000000
FF00000000
FF00000000
FF00000000
FF00000000
FF00000000
FF00000000
FF00000000
FF00000000
FF00000000
FF00000000
FF00000000
FF00000000
FF00000000
FF00000000
FF00000000
FF00000000
FF00000000
FF00000000
FE00000000
ENDCHAR
STARTCHAR 0071
ENCODING 113
SWIDTH 460 0
DWIDTH 47 0
BBX 34 73 6 -21
BITMAP
03FFFE1FC0
1FFFFF3FC0
3FFFFFBFC0
3FFFFFBFC0
7FFFFFFFC0
7FFFFFFFC0
7FC0003FC0
7F80003FC0
FF80003FC0
FF80003FC0
FF80003FC0
FF80003FC0
FF80003FC0
FF80003FC0
FF80003FC0
FF80003FC0
FF80003FC0
FF80003FC0
FF80003FC0
FF80003FC0
FF80003FC0
FF80003FC0
FF80003FC0
FF80003FC0
FF80003FC0
FF80003FC0
FF80003FC0
FF80003FC0
FF80003FC0
FF80003FC0
FF80003FC0
FF80003FC0
FF80003FC0
FF80003FC0
FF80003FC0
FF80003FC0
FF80003FC0
FF80003FC0
FF80003FC0
FF80003FC0
FF80003FC0
FF80003FC0
FF80003FC0
FF80003FC0
7F80003FC0
7FC0003FC0
7FFFFC3FC0
7FFFFC3FC0
3FFFFC3FC0
3FFFFC3FC0
1FFFFC3FC0
03FFF83FC0
0000003FC0
0000003FC0
0000003FC0
0000003FC0
0000003FC0
0000003FC0
0000003FC0
0000003FC0
0000003FC0
0000003FC0
0000003FC0
0000003FC0
0000003FC0
0000003FC0
0000003FC0
0000003FC0
0000003FC0
0000003FC0
0000003FC0
0000003FC0
0000003F80
ENDCHAR
STARTCHAR 0072
ENCODING 114
SWIDTH 313 0
DWIDTH 32 0
BBX 21 52 7 0
BITMAP
FF0FF8
FF3FF8
FF7FF8
FF7FF8
FFFFF8
FFFFF8
FF0000
FF0000
FF0000
FF0000
FF0000
FF0000
FF0000
FF0000
FF0000
FF0000
FF0000
FF0000
FF0000
FF0000
FF0000
FF0000
FF0000
FF0000
FF0000
FF0000
FF0000
FF0000
FF0000
FF0000
FF0000
FF0000
FF0000
FF0000
FF0000
FF0000
FF0000
FF0000
FF0000
FF0000
FF0000
FF0000
FF0000
FF0000
FF0000
FF0000
FF0000
FF0000
FF0000
FF0000
FF0000
FE0000
ENDCHAR
STARTCHAR 0073
ENCODING 115
SWIDTH 372 0
DWIDTH 38 0
BBX 27 52 6 0
BITMAP
07FFFF80
1FFFFFC0
3FFFFFC0
7FFFFFC0
7FFFFFC0
FFFFFFC0
FF800000
FF000000
FF000000
FF000000
FF000000
FE000000
FE000000
FE000000
FE000000
FE000000
FE000000
FE000000
FE000000
FF000000
FF000000
FF000000
FF800000
FFFFFE00
FFFFFF80
FFFFFFC0
7FFFFFC0
3FFFFFC0
0FFFFFC0
00007FE0
00003FE0
00001FE0
00001FE0
00001FE0
00001FE0
00001FE0
00001FE0
00001FE0
00001FE0
00001FE0
00001FE0
00001FE0
00001FE0
00001FE0
00003FE0
00007FC0
FFFFFFC0
FFFFFFC0
FFFFFFC0
FFFFFF80
FFFFFF00
FFFFF800
ENDCHAR
STARTCHAR 0074
ENCODING 116
SWIDTH 303 0
DWIDTH 31 0
BBX 22 64 7 0
BITMAP
FF0000
FF0000
FF0000
FF0000
FF0000
FF0000
FF0000
FF0000
FF0000
FF0000
FF0000
FF0000
FFFFF0
FFFFF0
FFFFF0
FFFFF0
FFFFF0
FFFFF0
FF0000
FF0000
FF0000
FF0000
FF0000
FF0000
FF0000
FF0000
FF0000
FF0000
FF0000
FF0000
FF0000
FF0000
FF0000
FF0000
FF0000
FF0000
FF0000
FF0000
FF0000
FF0000
FF0000
FF0000
FF0000
FF0000
FF0000
FF0000
FF0000
FF0000
FF0000
FF0000
FF0000
FF0000
FF0000
FF0000
FF0000
FF0000
FF8000
FFC000
FFFFFC
FFFFF8
7FFFF8
3FFFF8
1FFFF0
07FFE0
ENDCHAR
STARTCHAR 0075
ENCODING 117
SWIDTH 460 0
DWIDTH 47 0
BBX 33 52 7 0
BITMAP
FF00003F80
FF00007F80
FF00007F80
FF00007F80
FF00007F80
FF00007F80
FF00007F80
FF00007F80
FF00007F80
FF00007F80
FF00007F80
FF00007F80
FF00007F80
FF00007F80
FF00007F80
FF00007F80
FF00007F80
FF00007F80
FF00007F80
FF00007F80
FF00007F80
FF00007F80
FF00007F80
FF00007F80
FF00007F80
FF00007F80
FF00007F80
FF00007F80
FF00007F80
FF00007F80
FF00007F80
FF00007F80
FF00007F80
FF00007F80
FF00007F80
FF00007F80
FF00007F80
FF00007F80
FF00007F80
FF00007F80
FF00007F80
FF00007F80
FF00007F80
FF00007F80
FF00007F80
FFC0007F80
FFFFF87F80
FFFFF87F80
7FFFF87F80
7FFFF87F80
1FFFF87F80
07FFF07F80
ENDCHAR
STARTCHAR 0076
ENCODING 118
SWIDTH 421 0
DWIDTH 43 0
BBX 36 52 4 0
BITMAP
FC000003F0
FE000007F0
FE000007F0
FE00000FE0
FF00000FE0
FF00000FE0
7F00000FE0
7F00001FC0
7F80001FC0
3F80001FC0
3F80003F80
3FC0003F80
3FC0003F80
1FC0003F80
1FC0007F00
1FE0007F00
1FE0007F00
0FE000FE00
0FF000FE00
0FF000FE00
07F000FE00
07F001FC00
07F801FC00
07F801FC00
03F803FC00
03F803F800
03FC03F800
03FC03F800
01FC07F000
01FE07F000
01FE07F000
00FE0FF000
00FE0FE000
00FF0FE000
00FF0FE000
007F0FC000
007F1FC000
007F1FC000
007F1FC000
003F9F8000
003F9F8000
003F9F8000
001FBF8000
001FBF0000
001FFF0000
001FFF0000
000FFE0000
000FFE0000
000FFE0000
000FFE0000
0007FC0000
0007F80000
ENDCHAR
STARTCHAR 0077
ENCODING 119
SWIDTH 588 0
DWIDTH 60 0
BBX 54 52 3 0
BITMAP
FE0000000001FC
FE0000000001FC
FF0000000001FC
FF0000000001FC
FF0000000003F8
7F0000000003F8
7F0000000003F8
7F0000000003F8
7F0000000003F8
7F8000000003F8
3F8000000007F0
3F8000000007F0
3F8000FF0007F0
3F8001FF0007F0
3F8001FF0007F0
3FC003FF8007F0
1FC003FF8007E0
1FC003EF800FE0
1FC003EF800FE0
1FC007CFC00FE0
1FC007CFC00FE0
1FC007C7C00FE0
0FE007C7C00FC0
0FE00FC7E00FC0
0FE00F87E01FC0
0FE00F87E01FC0
0FE00F83E01FC0
0FE01F83F01FC0
07F01F03F01F80
07F01F03F01F80
07F01F01F01F80
07F03F01F83F80
07F03E01F83F80
03F03E01F83F80
03F07E00F83F00
03F87E00FC3F00
03F87C00FC3F00
03F87C00FC7F00
03F8FC007C7F00
01F8FC007E7F00
01F8F8007E7E00
01F8F8007E7E00
01FDF8003E7E00
01FDF8003F7E00
01FDF0003FFE00
00FFF0003FFE00
00FFF0001FFC00
00FFF0001FFC00
00FFE0001FFC00
00FFE0001FFC00
00FFE0001FFC00
007FC0000FF800
ENDCHAR
STARTCHAR 0078
ENCODING 120
SWIDTH 401 0
DWIDTH 41 0
BBX 35 52 3 0
BITMAP
7F00001FE0
FF00001FE0
7F80003FC0
7F80003FC0
3FC0007F80
3FC0007F80
1FE000FF00
1FE000FF00
0FF001FE00
07F801FE00
07F803FC00
03FC03FC00
03FC07F800
01FE07F000
01FE0FF000
00FE0FE000
00FF0FE000
007F1FC000
007F9FC000
003FBF8000
003FFF8000
001FFF0000
001FFF0000
000FFE0000
0007FC0000
0007FC0000
000FFC0000
000FFC0000
001FFE0000
001FFE0000
003FFF0000
003FBF0000
007F3F8000
007F1FC000
00FF1FC000
00FE1FE000
01FE0FE000
01FC0FF000
03FC07F000
03FC07F800
07F803FC00
07F803FC00
0FF001FE00
0FF001FE00
1FE000FF00
1FE000FF00
3FC0007F80
3FC0003F80
7F80003FC0
7F80001FE0
FF00001FE0
7F00000FE0
ENDCHAR
STARTCHAR 0079
ENCODING 121
SWIDTH 421 0
DWIDTH 43 0
BBX 37 73 3 -21
BITMAP
7E000001F8
FE000003F8
FF000003F8
7F000007F0
7F000007F0
7F000007F0
7F800007F0
3F80000FE0
3F80000FE0
3F80000FE0
3FC0001FE0
1FC0001FC0
1FC0001FC0
1FE0001FC0
1FE0003F80
0FE0003F80
0FE0003F80
0FF0007F80
0FF0007F00
07F0007F00
07F0007F00
07F800FE00
07F800FE00
03F800FE00
03F801FE00
03FC01FC00
03FC01FC00
01FC01FC00
01FC03FC00
01FE03F800
01FE03F800
00FE07F800
00FF07F000
00FF07F000
00FF07F000
007F0FF000
007F0FE000
007F0FE000
007F8FE000
003F8FE000
003F9FC000
003F9FC000
003F9FC000
001F9F8000
001FFF8000
001FFF8000
000FFF8000
000FFF0000
000FFF0000
000FFF0000
0007FF0000
0007FE0000
0001FE0000
0001FE0000
0001FC0000
0001FC0000
0003FC0000
0003FC0000
0003F80000
0003F80000
0007F80000
0007F80000
0007F00000
0007F00000
000FF00000
000FE00000
000FE00000
000FE00000
001FE00000
001FC00000
001FC00000
001FC00000
003F800000
ENDCHAR
STARTCHAR 007A
ENCODING 122
SWIDTH 372 0
DWIDTH 38 0
BBX 28 52 4 0
BITMAP
7FFFFFF0
7FFFFFF0
7FFFFFF0
7FFFFFF0
7FFFFFF0
7FFFFFF0
00000FF0
00000FF0
00001FE0
00001FE0
00003FC0
00003FC0
00007F80
00007F80
0000FF00
0000FF00
0001FE00
0001FC00
0003FC00
0003F800
0007F800
0007F000
000FF000
000FE000
001FE000
001FC000
003FC000
003F8000
007F8000
00FF0000
00FF0000
01FE0000
01FE0000
03FC0000
03FC0000
07F80000
07F80000
0FF00000
0FF00000
1FE00000
1FE00000
3FC00000
3F800000
7F800000
7F000000
FF000000
FFFFFFF0
FFFFFFF0
FFFFFFF0
FFFFFFF0
FFFFFFF0
FFFFFFF0
ENDCHAR
STARTCHAR 007B
ENCODING 123
SWIDTH 362 0
DWIDTH 37 0
BBX 31 91 2 -13
BITMAP
0000FFFE
0003FFFE
0007FFFE
000FFFFE
000FFFFE
001FFFFE
001FFC00
001FF000
001FF000
001FE000
001FE000
001FE000
001FE000
001FE000
001FE000
001FE000
001FE000
001FE000
001FE000
001FE000
001FE000
001FE000
001FE000
001FE000
001FE000
001FE000
001FE000
001FE000
001FE000
001FE000
001FE000
001FE000
001FE000
001FE000
001FE000
001FE000
001FE000
001FE000
001FE000
001FE000
001FE000
003FE000
007FC000
7FFFC000
FFFF8000
FFFE0000
FFFE0000
FFFF8000
7FFFC000
007FC000
003FE000
001FE000
001FE000
001FE000
001FE000
001FE000
001FE000
001FE000
001FE000
001FE000
001FE000
001FE000
001FE000
001FE000
001FE000
001FE000
001FE000
001FE000
001FE000
001FE000
001FE000
001FE000
001FE000
001FE000
001FE000
001FE000
001FE000
001FE000
001FE000
001FE000
001FE000
001FE000
001FF000
001FF000
001FFC00
001FFFFE
000FFFFE
000FFFFE
0007FFFE
0003FFFE
0000FFFE
ENDCHAR
STARTCHAR 007C
ENCODING 124
SWIDTH 225 0
DWIDTH 23 0
BBX 7 91 8 -14
BITMAP
3E
FE
FE
FE
FE
FE
FE
FE
FE
FE
FE
FE
FE
FE
FE
FE
FE
FE
FE
FE
FE
FE
FE
FE
FE
FE
FE
FE
FE
FE
FE
FE
FE
FE
FE
FE
FE
FE
FE
FE
FE
FE
FE
FE
FE
FE
FE
FE
FE
FE
FE
FE
FE
FE
FE
FE
FE
FE
FE
FE
FE
FE
FE
FE
FE
FE
FE
FE
FE
FE
FE
FE
FE
FE
FE
FE
FE
FE
FE
FE
FE
FE
FE
FE
FE
FE
FE
FE
FE
FE
FE
ENDCHAR
STARTCHAR 007D
ENCODING 125
SWIDTH 362 0
DWIDTH 37 0
BBX 31 91 4 -13
BITMAP
FFFE0000
FFFF8000
FFFFC000
FFFFE000
FFFFE000
FFFFF000
007FF000
001FF000
001FF000
000FF000
000FF000
000FF000
000FF000
000FF000
000FF000
000FF000
000FF000
000FF000
000FF000
000FF000
000FF000
000FF000
000FF000
000FF000
000FF000
000FF000
000FF000
000FF000
000FF000
000FF000
000FF000
000FF000
000FF000
000FF000
000FF000
000FF000
000FF000
000FF000
000FF000
000FF000
000FF000
000FF800
0007FC00
0007FFFC
0003FFFE
0000FFFE
0000FFFE
0003FFFE
0007FFFC
0007FC00
000FF800
000FF000
000FF000
000FF000
000FF000
000FF000
000FF000
000FF000
000FF000
000FF000
000FF000
000FF000
000FF000
000FF000
000FF000
000FF000
000FF000
000FF000
000FF000
000FF000
000FF000
000FF000
000FF000
000FF000
000FF000
000FF000
000FF000
000FF000
000FF000
000FF000
000FF000
000FF000
001FF000
001FF000
007FF000
FFFFF000
FFFFE000
FFFFE000
FFFFC000
FFFF8000
FFFE0000
ENDCHAR
STARTCHAR 007E
ENCODING 126
SWIDTH 460 0
DWIDTH 47 0
BBX 37 18 5 28
BITMAP
00F8000000
03FE000000
07FF000000
0FFF800000
1FFFC00000
3FFFE00030
7FFFF000F0
FF8FF801F8
FE07FC03F8
FC03FE07F8
F801FF8FF0
F0007FFFF0
60003FFFE0
40001FFFC0
00000FFF80
000007FF00
000003FC00
000000F800
ENDCHAR
STARTCHAR 00A0
ENCODING 160
SWIDTH 196 0
DWIDTH 20 0
BBX 0 0 0 0
BITMAP
ENDCHAR
STARTCHAR 00A1
ENCODING 161
SWIDTH 225 0
DWIDTH 23 0
BBX 9 71 7 -25
BITMAP
FF00
FF80
FF80
FF80
FF80
FF80
FF80
FF80
0000
0000
0000
0000
0000
0000
0000
0000
7F80
7F80
FF80
FF80
FF80
FF80
FF80
FF80
FF80
FF80
FF80
FF80
FF80
FF80
FF80
FF80
FF80
FF80
FF80
FF80
FF80
FF80
FF80
FF80
FF80
FF80
FF80
FF80
FF80
FF80
FF80
FF80
FF80
FF80
FF80
FF80
FF80
FF80
FF80
FF80
FF80
FF80
FF80
FF80
FF80
FF80
FF80
FF80
FF80
FF80
FF80
FF80
FF80
FF80
FF00
ENDCHAR
STARTCHAR 00A2
ENCODING 162
SWIDTH 421 0
DWIDTH 43 0
BBX 30 70 7 0
BITMAP
000FF000
000FF000
000FF000
000FF000
000FF000
000FF000
000FF000
000FF000
000FF000
000FF000
03FFFFE0
1FFFFFF0
3FFFFFF8
7FFFFFF8
7FFFFFFC
7FFFFFFC
FFC00000
FF800000
FF800000
FF800000
FF000000
FF000000
FF000000
FF000000
FF000000
FF000000
FF000000
FF000000
FF000000
FF000000
FF000000
FF000000
FF000000
FF000000
FF000000
FF000000
FF000000
FF000000
FF000000
FF000000
FF000000
FF000000
FF000000
FF000000
FF000000
FF000000
FF000000
FF000000
FF000000
FF000000
FF000000
FF000000
FF800000
FF800000
FF800000
FFC00000
7FFFFFFC
7FFFFFFC
7FFFFFFC
3FFFFFF8
1FFFFFF0
03FFFFE0
000FF000
000FF000
000FF000
000FF000
000FF000
000FF000
000FF000
000FE000
ENDCHAR
STARTCHAR 00A3
ENCODING 163
SWIDTH 441 0
DWIDTH 45 0
BBX 35 71 5 0
BITMAP
0003FFFE00
000FFFFF80
001FFFFFC0
003FFFFFC0
003FFFFFC0
007FFFFFE0
007FE00000
007FC00000
007F800000
007F800000
007F800000
007F800000
007F800000
007F800000
007F800000
007F800000
007F800000
007F800000
007F800000
007F800000
007F800000
007F800000
007F800000
007F800000
007F800000
007FFFFC00
007FFFFE00
007FFFFE00
007FFFFE00
007FFFFE00
007FFFFE00
007F800000
007F800000
007F800000
007F800000
007F800000
007F800000
007F800000
007F800000
007F800000
007F800000
007F800000
007F800000
007F800000
007F800000
007F800000
007F800000
007F800000
007F800000
007F800000
007F800000
007F800000
007F800000
007F800000
007F800000
007F800000
007F800000
007F800000
007F800000
007F800000
007F800000
007F800000
007F800000
007F800000
007F800000
FFFFFFF800
FFFFFFFE00
FFFFFFFF00
7FFFFFFF00
7FFFFFFF80
1FFFFFFF80
ENDCHAR
STARTCHAR 00A4
ENCODING 164
SWIDTH 509 0
DWIDTH 52 0
BBX 40 45 6 19
BITMAP
0800000030
1C000000F8
3E000001FC
7F000003FE
FF800007FF
FFC0000FFF
FFFFFFFFFE
7FFFFFFFFC
3FFFFFFFF8
1FFFFFFFF0
0FFFFFFFE0
0FFFFFFFC0
07FF01FFC0
07FC007FC0
07FC003FC0
07F8003FC0
07F8003FC0
07F8003FC0
07F8003FC0
07F8003FC0
07F8003FC0
07F8003FC0
07F8003FC0
07F8003FC0
07F8003FC0
07F8003FC0
07F8003FC0
07F8003FC0
07F8003FC0
07FC003FC0
07FC007FC0
07FF00FFC0
07FFFFFFC0
03FFFFFFE0
07FFFFFFF0
0FFFFFFFF8
1FFFFFFFFC
3FFFFFFFFE
7FF00007FF
FFE00003FF
FFC00001FF
7F800000FE
3F0000007C
1E00000038
0C00000010
ENDCHAR
STARTCHAR 00A5
ENCODING 165
SWIDTH 490 0
DWIDTH 50 0
BBX 40 71 5 0
BITMAP
7F0000007F
FF0000007F
FF000000FE
7F800000FE
7F800001FC
3FC00001FC
3FC00001FC
3FC00003F8
1FE00003F8
1FE00007F0
0FF00007F0
0FF00007F0
0FF0000FE0
07F8000FE0
07F8001FC0
03FC001FC0
03FC001FC0
03FC003F80
01FE003F80
01FE003F00
00FE007F00
00FF007F00
00FF00FE00
007F80FE00
007F80FC00
003F81FC00
003FC1FC00
003FC1F800
001FC3F800
001FE3F000
000FE3F000
000FE3F000
000FF7E000
0007F7E000
0007FFC000
FFFFFFFFFE
FFFFFFFFFE
FFFFFFFFFE
FFFFFFFFFE
7FFFFFFFFE
7FFFFFFFFE
0000FF0000
0000FF0000
0000FF0000
0000FF0000
0000FF0000
FFFFFFFFFE
FFFFFFFFFE
FFFFFFFFFE
FFFFFFFFFE
7FFFFFFFFE
7FFFFFFFFE
0000FF0000
0000FF0000
0000FF0000
0000FF0000
0000FF0000
0000FF0000
0000FF0000
0000FF0000
0000FF0000
0000FF0000
0000FF0000
0000FF0000
0000FF0000
0000FF0000
0000FF0000
0000FF0000
0000FF0000
0000FF0000
0000FE0000
ENDCHAR
STARTCHAR 00A6
ENCODING 166
SWIDTH 225 0
DWIDTH 23 0
BBX 7 102 8 -24
BITMAP
FE
FE
FE
FE
FE
FE
FE
FE
FE
FE
FE
FE
FE
FE
FE
FE
FE
FE
FE
FE
FE
FE
FE
FE
FE
FE
FE
FE
FE
FE
FE
FE
FE
FE
FE
FE
FE
FE
FE
FE
FE
FE
00
00
00
00
00
00
00
00
00
00
00
00
00
00
00
00
00
00
FE
FE
FE
FE
FE
FE
FE
FE
FE
FE
FE
FE
FE
FE
FE
FE
FE
FE
FE
FE
FE
FE
FE
FE
FE
FE
FE
FE
FE
FE
FE
FE
FE
FE
FE
FE
FE
FE
FE
FE
FE
FE
ENDCHAR
STARTCHAR 00A7
ENCODING 167
SWIDTH 421 0
DWIDTH 43 0
BBX 31 71 6 0
BITMAP
03FFFF00
1FFFFFC0
3FFFFFC0
7FFFFFE0
7FFFFFE0
7FFFFFE0
FFC00000
FF800000
FF800000
FF000000
FF000000
FF000000
FF000000
FF000000
FF000000
FF000000
FF000000
FF800000
FF800000
FFC00000
7FFFFF80
7FFFFFE0
7FFFFFF8
3FFFFFF8
1FFFFFFC
03FFFFFC
03000FFC
0F0003FC
3F0003FC
7F0003FE
7F0003FE
FF0003FE
FF0003FE
FF0003FE
FF0003FE
FF0003FE
FF0003FE
FF0003FE
FF0003FC
FF0003FC
FF0003FC
FF0003F8
FF8003F0
FF8003E0
FFC00300
7FFFFF80
7FFFFFE0
7FFFFFF8
3FFFFFF8
1FFFFFFC
07FFFFFC
00000FFC
000003FC
000003FC
000003FE
000003FE
000003FE
000003FE
000003FE
000003FE
000003FE
000003FE
000003FC
000003FC
00000FFC
1FFFFFFC
0FFFFFFC
0FFFFFF8
0FFFFFF8
07FFFFE0
03FFFF80
ENDCHAR
STARTCHAR 00A8
ENCODING 168
SWIDTH 343 0
DWIDTH 35 0
BBX 23 8 6 61
BITMAP
FF03FC
FF83FE
FF83FE
FF83FE
FF83FE
FF83FE
FF83FE
7F83FE
ENDCHAR
STARTCHAR 00A9
ENCODING 169
SWIDTH 676 0
DWIDTH 69 0
BBX 55 71 7 0
BITMAP
03FFFFFFFFFF80
1FFFFFFFFFFFF0
3FFFFFFFFFFFF8
7FFFFFFFFFFFF8
7FFFFFFFFFFFFC
7FFFFFFFFFFFFC
FFC000000007FC
FF8000000003FC
FF8000000003FE
FF0000000003FE
FF0000000003FE
FF000FFFFC03FE
FF003FFFFE03FE
FF00FFFFFE03FE
FF00FFFFFE03FE
FF01FFFFFE03FE
FF01FFFFFE03FE
FF01FF000003FE
FF01FE000003FE
FF03FE000003FE
FF03FE000003FE
FF03FE000003FE
FF03FE000003FE
FF03FE000003FE
FF03FE000003FE
FF03FE000003FE
FF03FE000003FE
FF03FE000003FE
FF03FE000003FE
FF03FE000003FE
FF03FE000003FE
FF03FE000003FE
FF03FE000003FE
FF03FE000003FE
FF03FE000003FE
FF03FE000003FE
FF03FE000003FE
FF03FE000003FE
FF03FE000003FE
FF03FE000003FE
FF03FE000003FE
FF03FE000003FE
FF03FE000003FE
FF03FE000003FE
FF03FE000003FE
FF03FE000003FE
FF03FE000003FE
FF03FE000003FE
FF03FE000003FE
FF03FE000003FE
FF03FE000003FE
FF01FE000003FE
FF01FF000003FE
FF01FFFFFE03FE
FF01FFFFFE03FE
FF00FFFFFE03FE
FF00FFFFFE03FE
FF007FFFFE03FE
FF000FFFFC03FE
FF0000000003FE
FF0000000003FE
FF0000000003FE
FF8000000003FE
FF8000000003FE
FFC000000007FC
7FFFFFFFFFFFFC
7FFFFFFFFFFFFC
7FFFFFFFFFFFF8
3FFFFFFFFFFFF8
1FFFFFFFFFFFF0
07FFFFFFFFFF80
ENDCHAR
STARTCHAR 00AA
ENCODING 170
SWIDTH 392 0
DWIDTH 40 0
BBX 28 41 5 30
BITMAP
03FFFE00
0FFFFF80
0FFFFFC0
1FFFFFE0
1FFFFFF0
1FFFFFF0
00003FF0
00001FF0
00000FF0
00000FF0
00000FF0
00000FF0
00000FF0
00000FF0
00000FF0
03FFFFF0
0FFFFFF0
3FFFFFF0
3FFFFFF0
7FFFFFF0
7FFFFFF0
7FE00FF0
7F800FF0
FF800FF0
FF000FF0
FF000FF0
FF000FF0
FF000FF0
FF000FF0
FF000FF0
FF000FF0
FF000FF0
FF800FF0
7F800FF0
7FE00FF0
7FFF0FF0
7FFF0FF0
3FFF0FF0
3FFF0FF0
1FFF0FF0
03FF07F0
ENDCHAR
STARTCHAR 00AB
ENCODING 171
SWIDTH 441 0
DWIDTH 45 0
BBX 33 35 5 13
BITMAP
0000800080
0001800180
0003C00380
0007C00780
000F800F80
001F801F80
003F803F80
007F807F00
00FF00FF00
01FE01FE00
03FE03FC00
07FC07FC00
0FF80FF800
1FF01FF000
3FE03FE000
7FC07FC000
FF80FF8000
FF01FF0000
FF80FF8000
7FC07FC000
3FE03FE000
1FF01FF000
0FF80FF000
07FC07F800
03FE03FC00
01FE01FE00
00FF00FF00
007F007F00
003F803F80
001F801F80
000F800F80
0007C00780
0003C00380
0001800180
0000800080
ENDCHAR
STARTCHAR 00AC
ENCODING 172
SWIDTH 431 0
DWIDTH 44 0
BBX 31 17 7 23
BITMAP
FFFFFFFC
FFFFFFFC
FFFFFFFE
FFFFFFFE
FFFFFFFE
7FFFFFFE
000003FE
000003FE
000003FE
000003FE
000003FE
000003FE
000003FE
000003FE
000003FE
000003FE
000001FE
ENDCHAR
STARTCHAR 00AD
ENCODING 173
SWIDTH 431 0
DWIDTH 44 0
BBX 30 6 7 34
BITMAP
FFFFFFFC
FFFFFFFC
FFFFFFFC
FFFFFFFC
FFFFFFFC
FFFFFFFC
ENDCHAR
STARTCHAR 00AE
ENCODING 174
SWIDTH 676 0
DWIDTH 69 0
BBX 55 71 7 0
BITMAP
03FFFFFFFFFF80
1FFFFFFFFFFFF0
3FFFFFFFFFFFF8
7FFFFFFFFFFFF8
7FFFFFFFFFFFFC
7FFFFFFFFFFFFC
FFC000000007FC
FF8000000003FC
FF8000000003FE
FF0000000003FE
FF0000000003FE
FF01FFFFE003FE
FF03FFFFFC03FE
FF03FFFFFE03FE
FF03FFFFFE03FE
FF03FFFFFF03FE
FF03FFFFFF03FE
FF03F800FF03FE
FF03F8007F83FE
FF03F8007F83FE
FF03F8007F83FE
FF03F8007F83FE
FF03F8007F83FE
FF03F8007F83FE
FF03F8007F83FE
FF03F8007F83FE
FF03F8007F83FE
FF03F8007F83FE
FF03F8007F83FE
FF03F8007F83FE
FF03F8007F03FE
FF03F800FF03FE
FF03FFFFFF03FE
FF03FFFFFE03FE
FF03FFFFFE03FE
FF03FFFFFC03FE
FF03FFFFE003FE
FF03F80FE003FE
FF03F80FE003FE
FF03F80FE003FE
FF03F807F003FE
FF03F807F003FE
FF03F807F003FE
FF03F803F803FE
FF03F803F803FE
FF03F803F803FE
FF03F803F803FE
FF03F801FC03FE
FF03F801FC03FE
FF03F801FC03FE
FF03F800FE03FE
FF03F800FE03FE
FF03F800FE03FE
FF03F8007F03FE
FF03F8007F03FE
FF03F8007F03FE
FF03F8007F03FE
FF03F8003F83FE
FF03F0001F83FE
FF0000000003FE
FF0000000003FE
FF0000000003FE
FF8000000003FE
FF8000000003FE
FFC000000007FC
7FFFFFFFFFFFFC
7FFFFFFFFFFFFC
7FFFFFFFFFFFF8
3FFFFFFFFFFFF8
1FFFFFFFFFFFF0
07FFFFFFFFFF80
ENDCHAR
STARTCHAR 00AF
ENCODING 175
SWIDTH 450 0
DWIDTH 46 0
BBX 46 6 0 60
BITMAP
FFFFFFFFFFF8
FFFFFFFFFFFC
FFFFFFFFFFFC
FFFFFFFFFFFC
FFFFFFFFFFFC
7FFFFFFFFFFC
ENDCHAR
STARTCHAR 00B0
ENCODING 176
SWIDTH 392 0
DWIDTH 40 0
BBX 30 31 5 42
BITMAP
001FE000
00FFFC00
01FFFE00
07FFFF80
0FFFFFC0
1FFFFFE0
3FF03FF0
3FC00FF0
7F8007F8
7F0003F8
FE0001FC
FE0001FC
FC0000FC
FC0000FC
FC0000FC
FC0000FC
FC0000FC
FC0000FC
FC0000FC
FE0001FC
FE0001FC
7F0003F8
7F8007F8
3FC00FF0
3FF03FF0
1FFFFFE0
0FFFFFC0
07FFFF80
01FFFE00
00FFFC00
001FE000
ENDCHAR
STARTCHAR 00B1
ENCODING 177
SWIDTH 431 0
DWIDTH 44 0
BBX 31 39 7 13
BITMAP
0007C000
000FC000
000FC000
000FC000
000FC000
000FC000
000FC000
000FC000
000FC000
000FC000
000FC000
000FC000
FFFFFFFC
FFFFFFFC
FFFFFFFE
FFFFFFFE
FFFFFFFE
7FFFFFFE
000FC000
000FC000
000FC000
000FC000
000FC000
000FC000
000FC000
000FC000
000FC000
000FC000
000FC000
000FC000
00000000
00000000
00000000
FFFFFFFC
FFFFFFFC
FFFFFFFE
FFFFFFFE
FFFFFFFE
7FFFFFFE
ENDCHAR
STARTCHAR 00B2
ENCODING 178
SWIDTH 352 0
DWIDTH 36 0
BBX 24 41 6 30
BITMAP
1FFFC0
3FFFF0
7FFFFC
FFFFFC
FFFFFE
FFFFFE
0007FE
0001FE
0001FF
0001FF
0001FF
0001FF
0001FF
0001FF
0001FF
0001FF
0001FF
0001FE
0001FE
0003FE
0003FC
0007F8
000FF8
001FF0
003FE0
007FC0
00FF80
01FF00
03FE00
07FC00
0FF800
1FF000
3FE000
7FC000
FF8000
FFFFFF
FFFFFF
FFFFFF
FFFFFF
FFFFFE
FFFFFE
ENDCHAR
STARTCHAR 00B3
ENCODING 179
SWIDTH 343 0
DWIDTH 35 0
BBX 23 41 6 30
BITMAP
1FFFC0
7FFFF0
7FFFF8
FFFFFC
FFFFFC
FFFFFE
0003FE
0001FE
0001FE
0001FE
0001FE
0001FE
0001FE
0001FE
0007FC
07FFFC
07FFF0
0FFFC0
0FFFF0
0FFFF8
0FFFFC
0007FC
0003FE
0001FE
0001FE
0001FE
0001FE
0001FE
0001FE
0001FE
0001FE
0001FE
0001FE
0003FE
0007FE
FFFFFC
FFFFFC
FFFFF8
7FFFF8
7FFFF0
1FFFC0
ENDCHAR
STARTCHAR 00B4
ENCODING 180
SWIDTH 254 0
DWIDTH 26 0
BBX 14 14 5 57
BITMAP
03F8
07FC
07FC
0FF8
0FF0
1FE0
1FE0
3FC0
3F80
7F00
7E00
FC00
FC00
F800
ENDCHAR
STARTCHAR 00B5
ENCODING 181
SWIDTH 421 0
DWIDTH 43 0
BBX 30 67 7 -21
BITMAP
7F8001FC
7F8003FC
FF8003FC
FF8003FC
FF8003FC
FF8003FC
FF8003FC
FF8003FC
FF8003FC
FF8003FC
FF8003FC
FF8003FC
FF8003FC
FF8003FC
FF8003FC
FF8003FC
FF8003FC
FF8003FC
FF8003FC
FF8003FC
FF8003FC
FF8003FC
FF8003FC
FF8003FC
FF8003FC
FF8003FC
FF8003FC
FF8003FC
FF8003FC
FF8003FC
FF8003FC
FF8003FC
FF8003FC
FF8003FC
FF8003FC
FF8003FC
FF8003FC
FF8003FC
FF8003FC
FFC003FC
FFFFC3FC
FFFFC3FC
FFFFC3FC
FFFFC3FC
FFFFC3FC
FFFFC3FC
FF800000
FF800000
FF800000
FF800000
FF800000
FF800000
FF800000
FF800000
FF800000
FF800000
FF800000
FF800000
FF800000
FF800000
FF800000
FF800000
FF800000
FF800000
FF800000
FF000000
FF000000
ENDCHAR
STARTCHAR 00B6
ENCODING 182
SWIDTH 460 0
DWIDTH 47 0
BBX 35 71 5 0
BITMAP
03FFF01FE0
1FFFF81FE0
3FFFF81FE0
7FFFF81FE0
7FFFF81FE0
7FFFF81FE0
FFFFF81FE0
FFFFF81FE0
FFFFF81FE0
FFFFF81FE0
FFFFF81FE0
FFFFF81FE0
FFFFF81FE0
FFFFF81FE0
FFFFF81FE0
FFFFF81FE0
FFFFF81FE0
FFFFF81FE0
FFFFF81FE0
FFFFF81FE0
FFFFF81FE0
FFFFF81FE0
FFFFF81FE0
FFFFF81FE0
FFFFF81FE0
FFFFF81FE0
FFFFF81FE0
7FFFF81FE0
7FFFF81FE0
7FFFF81FE0
3FFFF81FE0
1FFFF81FE0
03FFF81FE0
0007F81FE0
0007F81FE0
0007F81FE0
0007F81FE0
0007F81FE0
0007F81FE0
0007F81FE0
0007F81FE0
0007F81FE0
0007F81FE0
0007F81FE0
0007F81FE0
0007F81FE0
0007F81FE0
0007F81FE0
0007F81FE0
0007F81FE0
0007F81FE0
0007F81FE0
0007F81FE0
0007F81FE0
0007F81FE0
0007F81FE0
0007F81FE0
0007F81FE0
0007F81FE0
0007F81FE0
0007F81FE0
0007F81FE0
0007F81FE0
0007F81FE0
0007F81FE0
0007F81FE0
0007F81FE0
0007F81FE0
0007F81FE0
0007F81FE0
0007F81FC0
ENDCHAR
STARTCHAR 00B7
ENCODING 183
SWIDTH 245 0
DWIDTH 25 0
BBX 13 14 6 24
BITMAP
0F80
3FE0
7FF0
FFF0
FFF8
FFF8
FFF8
FFF8
FFF8
FFF8
FFF0
7FF0
3FE0
0F80
ENDCHAR
STARTCHAR 00B8
ENCODING 184
SWIDTH 254 0
DWIDTH 26 0
BBX 6 13 10 -10
BITMAP
7C
7C
FC
FC
FC
FC
FC
FC
FC
FC
FC
FC
FC
ENDCHAR
STARTCHAR 00B9
ENCODING 185
SWIDTH 215 0
DWIDTH 22 0
BBX 8 41 7 30
BITMAP
03
1F
3F
7F
FF
FF
FF
FF
FF
FF
FF
FF
FF
FF
FF
FF
FF
FF
FF
FF
FF
FF
FF
FF
FF
FF
FF
FF
FF
FF
FF
FF
FF
FF
FF
FF
FF
FF
FF
FF
FE
ENDCHAR
STARTCHAR 00BA
ENCODING 186
SWIDTH 401 0
DWIDTH 41 0
BBX 28 41 6 30
BITMAP
03FFFE00
1FFFFF80
3FFFFFC0
3FFFFFE0
7FFFFFE0
7FFFFFF0
7FC03FF0
FF801FF0
FF800FF0
FF800FF0
FF800FF0
FF000FF0
FF000FF0
FF000FF0
FF000FF0
FF000FF0
FF000FF0
FF000FF0
FF000FF0
FF000FF0
FF000FF0
FF000FF0
FF000FF0
FF000FF0
FF000FF0
FF000FF0
FF000FF0
FF000FF0
FF000FF0
FF000FF0
FF800FF0
FF800FF0
FF800FF0
FF801FF0
7FC03FF0
7FFFFFF0
7FFFFFF0
3FFFFFE0
3FFFFFC0
1FFFFF80
03FFFE00
ENDCHAR
STARTCHAR 00BB
ENCODING 187
SWIDTH 441 0
DWIDTH 45 0
BBX 34 35 7 13
BITMAP
8000800000
C000C00000
E000E00000
F000F00000
F800F80000
FC00FC0000
7E00FE0000
7F007F0000
3F807F8000
3FC03FC000
1FE01FE000
0FF00FF000
07F807F800
03FC03FC00
01FE01FE00
00FF00FF00
007F807F80
003FC07FC0
007F80FF80
00FF00FF00
01FE01FE00
03FC03FC00
07F807F800
0FF00FF000
1FE01FE000
3FC03FC000
3F807F8000
7F007F0000
7E00FE0000
FC00FC0000
F800F80000
F000F00000
E000E00000
C000C00000
0000800000
ENDCHAR
STARTCHAR 00BC
ENCODING 188
SWIDTH 686 0
DWIDTH 70 0
BBX 58 74 7 -1
BITMAP
0000000007F80000
000000000FF00000
030000001FF00000
1F0000001FE00000
3F0000003FE00000
7F0000003FC00000
FF0000007FC00000
FF0000007F800000
FF000000FF800000
FF000000FF000000
FF000000FF000000
FF000001FE000000
FF000001FE000000
FF000003FC000000
FF000003FC000000
FF000007F8000000
FF000007F8000000
FF00000FF0000000
FF00000FF0000000
FF00001FE0000000
FF00001FE0000000
FF00003FC0000000
FF00003FC0000000
FF00007F80000000
FF00007F80000000
FF0000FF00000000
FF0000FF00000000
FF0001FE00000000
FF0001FE00000000
FF0003FC00000000
FF0003FC00000000
FF0007F800000000
FF0007F800000000
FF000FF0003FF000
FF000FF0003FF000
FF001FF0007FF000
FF001FE0007FF000
FF003FE000FFF000
FF003FC000FFF000
FF007FC001FFF000
FF007F8001FFF000
FF00FF8003FFF000
FE00FF0003FFF000
0001FF0007FFF000
0001FE0007FFF000
0003FE0007EFF000
0003FC000FEFF000
0003FC000FCFF000
0007F8001FCFF000
0007F8001F8FF000
000FF0003F8FF000
000FF0003F0FF000
001FE0007F0FF000
001FE0007E0FF000
003FC000FE0FF000
003FC000FE0FF000
007F8000FC0FF000
007F8001FC0FF000
00FF0001F80FF000
00FF0003F80FF000
01FE0003FFFFFFC0
01FE0003FFFFFFC0
03FC0003FFFFFF80
03FC0003FFFFFF80
07F80003FFFFFF00
07F80001FFFFFE00
0FF00000000FF000
0FF00000000FF000
1FE00000000FF000
1FE00000000FF000
3FC00000000FF000
3FC00000000FF000
7F800000000FE000
00000000000FE000
ENDCHAR
STARTCHAR 00BD
ENCODING 189
SWIDTH 676 0
DWIDTH 69 0
BBX 58 73 7 0
BITMAP
0000000007F80000
000000000FF00000
030000001FF00000
1F0000001FE00000
3F0000003FE00000
7F0000003FC00000
FF0000007FC00000
FF0000007F800000
FF000000FF800000
FF000000FF000000
FF000000FF000000
FF000001FE000000
FF000001FE000000
FF000003FC000000
FF000003FC000000
FF000007F8000000
FF000007F8000000
FF00000FF0000000
FF00000FF0000000
FF00001FE0000000
FF00001FE0000000
FF00003FC0000000
FF00003FC0000000
FF00007F80000000
FF00007F80000000
FF0000FF00000000
FF0000FF00000000
FF0001FE00000000
FF0001FE00000000
FF0003FC00000000
FF0003FC00000000
FF0007F800000000
FF0007F807FFF000
FF000FF00FFFFC00
FF000FF01FFFFF00
FF001FF03FFFFF00
FF001FE03FFFFF80
FF003FE03FFFFF80
FF003FC00001FF80
FF007FC000007F80
FF007F8000007FC0
FF00FF8000007FC0
FE00FF0000007FC0
0001FF0000007FC0
0001FE0000007FC0
0003FE0000007FC0
0003FC0000007FC0
0003FC0000007FC0
0007F80000007FC0
0007F80000007F80
000FF00000007F80
000FF0000000FF80
001FE0000000FF00
001FE0000001FE00
003FC0000003FE00
003FC0000007FC00
007F8000000FF800
007F8000001FF000
00FF0000003FE000
00FF0000007FC000
01FE000000FF8000
01FE000001FF0000
03FC000003FE0000
03FC000007FC0000
07F800000FF80000
07F800001FF00000
0FF000003FE00000
0FF000003FFFFFC0
1FE000003FFFFFC0
1FE000003FFFFFC0
3FC000003FFFFFC0
3FC000003FFFFF80
7F8000003FFFFF80
ENDCHAR
STARTCHAR 00BE
ENCODING 190
SWIDTH 813 0
DWIDTH 83 0
BBX 72 74 6 -1
BITMAP
0000000000001FE000
0000000000003FC000
1FFFC00000007FC000
7FFFF00000007F8000
7FFFF8000000FF8000
FFFFFC000000FF0000
FFFFFC000001FF0000
FFFFFE000001FE0000
0003FE000003FE0000
0001FE000003FC0000
0001FE000003FC0000
0001FE000007F80000
0001FE000007F80000
0001FE00000FF00000
0001FE00000FF00000
0001FE00001FE00000
0007FC00001FE00000
07FFFC00003FC00000
07FFF000003FC00000
0FFFC000007F800000
0FFFF000007F800000
0FFFF80000FF000000
0FFFFC0000FF000000
0007FC0001FE000000
0003FE0001FE000000
0001FE0003FC000000
0001FE0003FC000000
0001FE0007F8000000
0001FE0007F8000000
0001FE000FF0000000
0001FE000FF0000000
0001FE001FE0000000
0001FE001FE0000000
0001FE003FC000FFC0
0001FE003FC000FFC0
0003FE007FC001FFC0
0007FE007F8001FFC0
FFFFFC00FF8003FFC0
FFFFFC00FF0003FFC0
FFFFF801FF0007FFC0
7FFFF801FE0007FFC0
7FFFF003FE000FFFC0
1FFFC003FC000FFFC0
00000007FC001FFFC0
00000007F8001FFFC0
0000000FF8001FBFC0
0000000FF0003FBFC0
0000000FF0003F3FC0
0000001FE0007F3FC0
0000001FE0007E3FC0
0000003FC000FE3FC0
0000003FC000FC3FC0
0000007F8001FC3FC0
0000007F8001F83FC0
000000FF0003F83FC0
000000FF0003F83FC0
000001FE0003F03FC0
000001FE0007F03FC0
000003FC0007E03FC0
000003FC000FE03FC0
000007F8000FFFFFFF
000007F8000FFFFFFF
00000FF0000FFFFFFE
00000FF0000FFFFFFE
00001FE0000FFFFFFC
00001FE00007FFFFF8
00003FC00000003FC0
00003FC00000003FC0
00007F800000003FC0
00007F800000003FC0
0000FF000000003FC0
0000FF000000003FC0
0001FE000000003F80
000000000000003F80
ENDCHAR
STARTCHAR 00BF
ENCODING 191
SWIDTH 382 0
DWIDTH 39 0
BBX 28 71 6 -25
BITMAP
0003FE00
0003FE00
0003FE00
0003FE00
0003FE00
0003FE00
0003FE00
0001FE00
00000000
00000000
00000000
00000000
00000000
00000000
00000000
00000000
0000FE00
0001FE00
0001FE00
0001FE00
0001FE00
0001FE00
0001FE00
0001FE00
0001FE00
0001FE00
0001FE00
0001FE00
0001FE00
0001FE00
0001FE00
0001FE00
0001FE00
0001FE00
0003FE00
0007FE00
07FFFE00
1FFFFC00
3FFFFC00
7FFFF800
7FFFF000
FFFFC000
FFC00000
FF800000
FF000000
FF000000
FF000000
FF000000
FF000000
FF000000
FF000000
FF000000
FF000000
FF000000
FF000000
FF000000
FF000000
FF000000
FF000000
FF000000
FF000000
FF000000
FF000000
FF800000
FFC00000
FFFFFFF0
7FFFFFF0
7FFFFFE0
3FFFFFE0
1FFFFFC0
07FFFF80
ENDCHAR
STARTCHAR 00C0
ENCODING 192
SWIDTH 480 0
DWIDTH 49 0
BBX 34 89 7 0
BITMAP
00FE000000
01FF000000
01FF000000
00FF800000
007F800000
003FC00000
001FC00000
001FE00000
000FE00000
0007F00000
0003F00000
0003F80000
0001F80000
0000F80000
0000000000
0000000000
0000000000
0000000000
03FFFFF800
1FFFFFFE00
3FFFFFFF00
3FFFFFFF80
7FFFFFFFC0
7FFFFFFFC0
7FC000FFC0
FF80007FC0
FF80003FC0
FF80003FC0
FF80003FC0
FF80003FC0
FF80003FC0
FF80003FC0
FF80003FC0
FF80003FC0
FF80003FC0
FF80003FC0
FF80003FC0
FF80003FC0
FF80003FC0
FF80003FC0
FF80003FC0
FF80003FC0
FF80003FC0
FF80003FC0
FF80003FC0
FF80003FC0
FF80003FC0
FF80003FC0
FF80003FC0
FFFFFC3FC0
FFFFFC3FC0
FFFFFC3FC0
FFFFFC3FC0
FFFFFC3FC0
FFFFFC3FC0
FF80003FC0
FF80003FC0
FF80003FC0
FF80003FC0
FF80003FC0
FF80003FC0
FF80003FC0
FF80003FC0
FF80003FC0
FF80003FC0
FF80003FC0
FF80003FC0
FF80003FC0
FF80003FC0
FF80003FC0
FF80003FC0
FF80003FC0
FF80003FC0
FF80003FC0
FF80003FC0
FF80003FC0
FF80003FC0
FF80003FC0
FF80003FC0
FF80003FC0
FF80003FC0
FF80003FC0
FF80003FC0
FF80003FC0
FF80003FC0
FF80003FC0
FF80003FC0
FF00003FC0
FF00003FC0
ENDCHAR
STARTCHAR 00C1
ENCODING 193
SWIDTH 480 0
DWIDTH 49 0
BBX 34 89 7 0
BITMAP
000003F800
000007FC00
000007FC00
00000FF800
00000FF000
00001FE000
00001FE000
00003FC000
00003F8000
00007F0000
00007E0000
0000FC0000
0000FC0000
0000F80000
0000000000
0000000000
0000000000
0000000000
03FFFFF800
1FFFFFFE00
3FFFFFFF00
3FFFFFFF80
7FFFFFFFC0
7FFFFFFFC0
7FC000FFC0
FF80007FC0
FF80003FC0
FF80003FC0
FF80003FC0
FF80003FC0
FF80003FC0
FF80003FC0
FF80003FC0
FF80003FC0
FF80003FC0
FF80003FC0
FF80003FC0
FF80003FC0
FF80003FC0
FF80003FC0
FF80003FC0
FF80003FC0
FF80003FC0
FF80003FC0
FF80003FC0
FF80003FC0
FF80003FC0
FF80003FC0
FF80003FC0
FFFFFC3FC0
FFFFFC3FC0
FFFFFC3FC0
FFFFFC3FC0
FFFFFC3FC0
FFFFFC3FC0
FF80003FC0
FF80003FC0
FF80003FC0
FF80003FC0
FF80003FC0
FF80003FC0
FF80003FC0
FF80003FC0
FF80003FC0
FF80003FC0
FF80003FC0
FF80003FC0
FF80003FC0
FF80003FC0
FF80003FC0
FF80003FC0
FF80003FC0
FF80003FC0
FF80003FC0
FF80003FC0
FF80003FC0
FF80003FC0
FF80003FC0
FF80003FC0
FF80003FC0
FF80003FC0
FF80003FC0
FF80003FC0
FF80003FC0
FF80003FC0
FF80003FC0
FF80003FC0
FF00003FC0
FF00003FC0
ENDCHAR
STARTCHAR 00C2
ENCODING 194
SWIDTH 480 0
DWIDTH 49 0
BBX 34 89 7 0
BITMAP
0003FC0000
0007FE0000
000FFF0000
001FFF8000
003FFFC000
007FBFE000
007F1FE000
00FE07F000
01FC03F800
03F801FC00
07F000FE00
07E0007E00
07C0003E00
0000000000
0000000000
0000000000
0000000000
0000000000
03FFFFF800
1FFFFFFE00
3FFFFFFF00
3FFFFFFF80
7FFFFFFFC0
7FFFFFFFC0
7FC000FFC0
FF80007FC0
FF80003FC0
FF80003FC0
FF80003FC0
FF80003FC0
FF80003FC0
FF80003FC0
FF80003FC0
FF80003FC0
FF80003FC0
FF80003FC0
FF80003FC0
FF80003FC0
FF80003FC0
FF80003FC0
FF80003FC0
FF80003FC0
FF80003FC0
FF80003FC0
FF80003FC0
FF80003FC0
FF80003FC0
FF80003FC0
FF80003FC0
FFFFFC3FC0
FFFFFC3FC0
FFFFFC3FC0
FFFFFC3FC0
FFFFFC3FC0
FFFFFC3FC0
FF80003FC0
FF80003FC0
FF80003FC0
FF80003FC0
FF80003FC0
FF80003FC0
FF80003FC0
FF80003FC0
FF80003FC0
FF80003FC0
FF80003FC0
FF80003FC0
FF80003FC0
FF80003FC0
FF80003FC0
FF80003FC0
FF80003FC0
FF80003FC0
FF80003FC0
FF80003FC0
FF80003FC0
FF80003FC0
FF80003FC0
FF80003FC0
FF80003FC0
FF80003FC0
FF80003FC0
FF80003FC0
FF80003FC0
FF80003FC0
FF80003FC0
FF80003FC0
FF00003FC0
FF00003FC0
ENDCHAR
STARTCHAR 00C3
ENCODING 195
SWIDTH 480 0
DWIDTH 49 0
BBX 34 89 7 0
BITMAP
003F000F00
00FFC00F00
01FFE00F00
01FFF00F00
03FFF80F00
03FFFE1F00
03E1FFFF00
03C0FFFF00
03C03FFE00
03C01FFE00
03C00FFC00
03C003F000
0000000000
0000000000
0000000000
0000000000
0000000000
0000000000
03FFFFF800
1FFFFFFE00
3FFFFFFF00
3FFFFFFF80
7FFFFFFFC0
7FFFFFFFC0
7FC000FFC0
FF80007FC0
FF80003FC0
FF80003FC0
FF80003FC0
FF80003FC0
FF80003FC0
FF80003FC0
FF80003FC0
FF80003FC0
FF80003FC0
FF80003FC0
FF80003FC0
FF80003FC0
FF80003FC0
FF80003FC0
FF80003FC0
FF80003FC0
FF80003FC0
FF80003FC0
FF80003FC0
FF80003FC0
FF80003FC0
FF80003FC0
FF80003FC0
FFFFFC3FC0
FFFFFC3FC0
FFFFFC3FC0
FFFFFC3FC0
FFFFFC3FC0
FFFFFC3FC0
FF80003FC0
FF80003FC0
FF80003FC0
FF80003FC0
FF80003FC0
FF80003FC0
FF80003FC0
FF80003FC0
FF80003FC0
FF80003FC0
FF80003FC0
FF80003FC0
FF80003FC0
FF80003FC0
FF80003FC0
FF80003FC0
FF80003FC0
FF80003FC0
FF80003FC0
FF80003FC0
FF80003FC0
FF80003FC0
FF80003FC0
FF80003FC0
FF80003FC0
FF80003FC0
FF80003FC0
FF80003FC0
FF80003FC0
FF80003FC0
FF80003FC0
FF80003FC0
FF00003FC0
FF00003FC0
ENDCHAR
STARTCHAR 00C4
ENCODING 196
SWIDTH 480 0
DWIDTH 49 0
BBX 34 87 7 0
BITMAP
03FC0FF000
03FE0FF800
03FE0FF800
03FE0FF800
03FE0FF800
03FE0FF800
03FE0FF800
01FE0FF800
0000000000
0000000000
0000000000
0000000000
0000000000
0000000000
0000000000
0000000000
03FFFFF800
1FFFFFFE00
3FFFFFFF00
3FFFFFFF80
7FFFFFFFC0
7FFFFFFFC0
7FC000FFC0
FF80007FC0
FF80003FC0
FF80003FC0
FF80003FC0
FF80003FC0
FF80003FC0
FF80003FC0
FF80003FC0
FF80003FC0
FF80003FC0
FF80003FC0
FF80003FC0
FF80003FC0
FF80003FC0
FF80003FC0
FF80003FC0
FF80003FC0
FF80003FC0
FF80003FC0
FF80003FC0
FF80003FC0
FF80003FC0
FF80003FC0
FF80003FC0
FFFFFC3FC0
FFFFFC3FC0
FFFFFC3FC0
FFFFFC3FC0
FFFFFC3FC0
FFFFFC3FC0
FF80003FC0
FF80003FC0
FF80003FC0
FF80003FC0
FF80003FC0
FF80003FC0
FF80003FC0
FF80003FC0
FF80003FC0
FF80003FC0
FF80003FC0
FF80003FC0
FF80003FC0
FF80003FC0
FF80003FC0
FF80003FC0
FF80003FC0
FF80003FC0
FF80003FC0
FF80003FC0
FF80003FC0
FF80003FC0
FF80003FC0
FF80003FC0
FF80003FC0
FF80003FC0
FF80003FC0
FF80003FC0
FF80003FC0
FF80003FC0
FF80003FC0
FF80003FC0
FF00003FC0
FF00003FC0
ENDCHAR
STARTCHAR 00C5
ENCODING 197
SWIDTH 480 0
DWIDTH 49 0
BBX 34 93 7 0
BITMAP
000FFE0000
003FFF8000
003FFFC000
007FFFC000
007E07C000
007C07C000
007C07C000
007C07C000
007C07C000
007C07C000
007C07C000
007C07C000
007E07C000
007FFFC000
003FFFC000
003FFF8000
000FFE0000
0000000000
0000000000
0000000000
0000000000
0000000000
03FFFFF800
1FFFFFFE00
3FFFFFFF00
3FFFFFFF80
7FFFFFFFC0
7FFFFFFFC0
7FC000FFC0
FF80007FC0
FF80003FC0
FF80003FC0
FF80003FC0
FF80003FC0
FF80003FC0
FF80003FC0
FF80003FC0
FF80003FC0
FF80003FC0
FF80003FC0
FF80003FC0
FF80003FC0
FF80003FC0
FF80003FC0
FF80003FC0
FF80003FC0
FF80003FC0
FF80003FC0
FF80003FC0
FF80003FC0
FF80003FC0
FF80003FC0
FF80003FC0
FFFFFC3FC0
FFFFFC3FC0
FFFFFC3FC0
FFFFFC3FC0
FFFFFC3FC0
FFFFFC3FC0
FF80003FC0
FF80003FC0
FF80003FC0
FF80003FC0
FF80003FC0
FF80003FC0
FF80003FC0
FF80003FC0
FF80003FC0
FF80003FC0
FF80003FC0
FF80003FC0
FF80003FC0
FF80003FC0
FF80003FC0
FF80003FC0
FF80003FC0
FF80003FC0
FF80003FC0
FF80003FC0
FF80003FC0
FF80003FC0
FF80003FC0
FF80003FC0
FF80003FC0
FF80003FC0
FF80003FC0
FF80003FC0
FF80003FC0
FF80003FC0
FF80003FC0
FF80003FC0
FF00003FC0
FF00003FC0
ENDCHAR
STARTCHAR 00C6
ENCODING 198
SWIDTH 647 0
DWIDTH 66 0
BBX 54 71 7 0
BITMAP
03FFFFFFFFFFFC
1FFFFFFFFFFFFC
3FFFFFFFFFFFFC
3FFFFFFFFFFFFC
7FFFFFFFFFFFFC
7FFFFFFFFFFFF8
7FC0003FC00000
FF80003FC00000
FF80003FC00000
FF80003FC00000
FF80003FC00000
FF80003FC00000
FF80003FC00000
FF80003FC00000
FF80003FC00000
FF80003FC00000
FF80003FC00000
FF80003FC00000
FF80003FC00000
FF80003FC00000
FF80003FC00000
FF80003FC00000
FF80003FC00000
FF80003FC00000
FF80003FC00000
FF80003FC00000
FF80003FC00000
FF80003FC00000
FF80003FC00000
FF80003FC00000
FF80003FC00000
FFFFFC3FFFFFE0
FFFFFC3FFFFFE0
FFFFFC3FFFFFE0
FFFFFC3FFFFFE0
FFFFFC3FFFFFE0
FFFFFC3FFFFFC0
FF80003FC00000
FF80003FC00000
FF80003FC00000
FF80003FC00000
FF80003FC00000
FF80003FC00000
FF80003FC00000
FF80003FC00000
FF80003FC00000
FF80003FC00000
FF80003FC00000
FF80003FC00000
FF80003FC00000
FF80003FC00000
FF80003FC00000
FF80003FC00000
FF80003FC00000
FF80003FC00000
FF80003FC00000
FF80003FC00000
FF80003FC00000
FF80003FC00000
FF80003FC00000
FF80003FC00000
FF80003FC00000
FF80003FC00000
FF80003FC00000
FF80003FC00000
FF80003FFFFFFC
FF80003FFFFFFC
FF80003FFFFFFC
FF80003FFFFFFC
FF00003FFFFFFC
FF00003FFFFFF8
ENDCHAR
STARTCHAR 00C7
ENCODING 199
SWIDTH 392 0
DWIDTH 40 0
BBX 29 81 7 -10
BITMAP
03FFFFC0
1FFFFFE0
3FFFFFF0
7FFFFFF0
7FFFFFF8
7FFFFFF8
FFC00000
FF800000
FF800000
FF000000
FF000000
FF000000
FF000000
FF000000
FF000000
FF000000
FF000000
FF000000
FF000000
FF000000
FF000000
FF000000
FF000000
FF000000
FF000000
FF000000
FF000000
FF000000
FF000000
FF000000
FF000000
FF000000
FF000000
FF000000
FF000000
FF000000
FF000000
FF000000
FF000000
FF000000
FF000000
FF000000
FF000000
FF000000
FF000000
FF000000
FF000000
FF000000
FF000000
FF000000
FF000000
FF000000
FF000000
FF000000
FF000000
FF000000
FF000000
FF000000
FF000000
FF000000
FF000000
FF000000
FF800000
FF800000
FFC00000
7FFFFFF8
7FFFFFF8
7FFFFFF8
3FFFFFF8
1FFFFFF8
07FFFFF8
0007E000
0007E000
0007E000
0007E000
0007E000
0007E000
0007E000
0007E000
0007C000
0007C000
ENDCHAR
STARTCHAR 00C8
ENCODING 200
SWIDTH 392 0
DWIDTH 40 0
BBX 28 91 7 0
BITMAP
0FE00000
1FF00000
1FF00000
0FF80000
07F80000
03FC0000
01FC0000
01FE0000
00FE0000
007F0000
003F0000
003F8000
001F8000
000F8000
00000000
00000000
00000000
00000000
00000000
00000000
7FFFFFF0
FFFFFFF0
FFFFFFF0
FFFFFFF0
FFFFFFF0
FFFFFFE0
FF800000
FF800000
FF800000
FF800000
FF800000
FF800000
FF800000
FF800000
FF800000
FF800000
FF800000
FF800000
FF800000
FF800000
FF800000
FF800000
FF800000
FF800000
FF800000
FF800000
FF800000
FF800000
FF800000
FF800000
FF800000
FFFFFF80
FFFFFF80
FFFFFF80
FFFFFF80
FFFFFF80
FFFFFF00
FF800000
FF800000
FF800000
FF800000
FF800000
FF800000
FF800000
FF800000
FF800000
FF800000
FF800000
FF800000
FF800000
FF800000
FF800000
FF800000
FF800000
FF800000
FF800000
FF800000
FF800000
FF800000
FF800000
FF800000
FF800000
FF800000
FF800000
FF800000
FFFFFFF0
FFFFFFF0
FFFFFFF0
FFFFFFF0
FFFFFFF0
FFFFFFE0
ENDCHAR
STARTCHAR 00C9
ENCODING 201
SWIDTH 392 0
DWIDTH 40 0
BBX 28 91 7 0
BITMAP
00001FC0
00003FE0
00003FE0
00007FC0
00007F80
0000FF00
0000FF00
0001FE00
0001FC00
0003F800
0003F000
0007E000
0007E000
0007C000
00000000
00000000
00000000
00000000
00000000
00000000
7FFFFFF0
FFFFFFF0
FFFFFFF0
FFFFFFF0
FFFFFFF0
FFFFFFE0
FF800000
FF800000
FF800000
FF800000
FF800000
FF800000
FF800000
FF800000
FF800000
FF800000
FF800000
FF800000
FF800000
FF800000
FF800000
FF800000
FF800000
FF800000
FF800000
FF800000
FF800000
FF800000
FF800000
FF800000
FF800000
FFFFFF80
FFFFFF80
FFFFFF80
FFFFFF80
FFFFFF80
FFFFFF00
FF800000
FF800000
FF800000
FF800000
FF800000
FF800000
FF800000
FF800000
FF800000
FF800000
FF800000
FF800000
FF800000
FF800000
FF800000
FF800000
FF800000
FF800000
FF800000
FF800000
FF800000
FF800000
FF800000
FF800000
FF800000
FF800000
FF800000
FF800000
FFFFFFF0
FFFFFFF0
FFFFFFF0
FFFFFFF0
FFFFFFF0
FFFFFFE0
ENDCHAR
STARTCHAR 00CA
ENCODING 202
SWIDTH 392 0
DWIDTH 40 0
BBX 28 91 7 0
BITMAP
001FE000
003FF000
007FF800
00FFFC00
01FFFE00
03FDFF00
03F8FF00
07F03F80
0FE01FC0
1FC00FE0
3F8007F0
3F0003F0
3E0001F0
00000000
00000000
00000000
00000000
00000000
00000000
00000000
7FFFFFF0
FFFFFFF0
FFFFFFF0
FFFFFFF0
FFFFFFF0
FFFFFFE0
FF800000
FF800000
FF800000
FF800000
FF800000
FF800000
FF800000
FF800000
FF800000
FF800000
FF800000
FF800000
FF800000
FF800000
FF800000
FF800000
FF800000
FF800000
FF800000
FF800000
FF800000
FF800000
FF800000
FF800000
FF800000
FFFFFF80
FFFFFF80
FFFFFF80
FFFFFF80
FFFFFF80
FFFFFF00
FF800000
FF800000
FF800000
FF800000
FF800000
FF800000
FF800000
FF800000
FF800000
FF800000
FF800000
FF800000
FF800000
FF800000
FF800000
FF800000
FF800000
FF800000
FF800000
FF800000
FF800000
FF800000
FF800000
FF800000
FF800000
FF800000
FF800000
FF800000
FFFFFFF0
FFFFFFF0
FFFFFFF0
FFFFFFF0
FFFFFFF0
FFFFFFE0
ENDCHAR
STARTCHAR 00CB
ENCODING 203
SWIDTH 392 0
DWIDTH 40 0
BBX 28 89 7 0
BITMAP
1FE07F80
1FF07FC0
1FF07FC0
1FF07FC0
1FF07FC0
1FF07FC0
1FF07FC0
0FF07FC0
00000000
00000000
00000000
00000000
00000000
00000000
00000000
00000000
00000000
00000000
7FFFFFF0
FFFFFFF0
FFFFFFF0
FFFFFFF0
FFFFFFF0
FFFFFFE0
FF800000
FF800000
FF800000
FF800000
FF800000
FF800000
FF800000
FF800000
FF800000
FF800000
FF800000
FF800000
FF800000
FF800000
FF800000
FF800000
FF800000
FF800000
FF800000
FF800000
FF800000
FF800000
FF800000
FF800000
FF800000
FFFFFF80
FFFFFF80
FFFFFF80
FFFFFF80
FFFFFF80
FFFFFF00
FF800000
FF800000
FF800000
FF800000
FF800000
FF800000
FF800000
FF800000
FF800000
FF800000
FF800000
FF800000
FF800000
FF800000
FF800000
FF800000
FF800000
FF800000
FF800000
FF800000
FF800000
FF800000
FF800000
FF800000
FF800000
FF800000
FF800000
FF800000
FFFFFFF0
FFFFFFF0
FFFFFFF0
FFFFFFF0
FFFFFFF0
FFFFFFE0
ENDCHAR
STARTCHAR 00CC
ENCODING 204
SWIDTH 225 0
DWIDTH 23 0
BBX 15 91 1 0
BITMAP
7F00
FF80
FF80
7FC0
3FC0
1FE0
0FE0
0FF0
07F0
03F8
01F8
01FC
00FC
007C
0000
0000
0000
0000
0000
0000
01FE
03FE
03FE
03FE
03FE
03FE
03FE
03FE
03FE
03FE
03FE
03FE
03FE
03FE
03FE
03FE
03FE
03FE
03FE
03FE
03FE
03FE
03FE
03FE
03FE
03FE
03FE
03FE
03FE
03FE
03FE
03FE
03FE
03FE
03FE
03FE
03FE
03FE
03FE
03FE
03FE
03FE
03FE
03FE
03FE
03FE
03FE
03FE
03FE
03FE
03FE
03FE
03FE
03FE
03FE
03FE
03FE
03FE
03FE
03FE
03FE
03FE
03FE
03FE
03FE
03FE
03FE
03FE
03FE
03FC
03FC
ENDCHAR
STARTCHAR 00CD
ENCODING 205
SWIDTH 225 0
DWIDTH 23 0
BBX 17 91 7 0
BITMAP
007F00
00FF80
00FF80
01FF00
01FE00
03FC00
03FC00
07F800
07F000
0FE000
0FC000
1F8000
1F8000
1F0000
000000
000000
000000
000000
000000
000000
7F8000
FF8000
FF8000
FF8000
FF8000
FF8000
FF8000
FF8000
FF8000
FF8000
FF8000
FF8000
FF8000
FF8000
FF8000
FF8000
FF8000
FF8000
FF8000
FF8000
FF8000
FF8000
FF8000
FF8000
FF8000
FF8000
FF8000
FF8000
FF8000
FF8000
FF8000
FF8000
FF8000
FF8000
FF8000
FF8000
FF8000
FF8000
FF8000
FF8000
FF8000
FF8000
FF8000
FF8000
FF8000
FF8000
FF8000
FF8000
FF8000
FF8000
FF8000
FF8000
FF8000
FF8000
FF8000
FF8000
FF8000
FF8000
FF8000
FF8000
FF8000
FF8000
FF8000
FF8000
FF8000
FF8000
FF8000
FF8000
FF8000
FF0000
FF0000
ENDCHAR
STARTCHAR 00CE
ENCODING 206
SWIDTH 225 0
DWIDTH 23 0
BBX 26 91 0 0
BITMAP
007F8000
00FFC000
01FFE000
03FFF000
07FFF800
0FF7FC00
0FE3FC00
1FC0FE00
3F807F00
7F003F80
FE001FC0
FC000FC0
F80007C0
00000000
00000000
00000000
00000000
00000000
00000000
00000000
00FF0000
01FF0000
01FF0000
01FF0000
01FF0000
01FF0000
01FF0000
01FF0000
01FF0000
01FF0000
01FF0000
01FF0000
01FF0000
01FF0000
01FF0000
01FF0000
01FF0000
01FF0000
01FF0000
01FF0000
01FF0000
01FF0000
01FF0000
01FF0000
01FF0000
01FF0000
01FF0000
01FF0000
01FF0000
01FF0000
01FF0000
01FF0000
01FF0000
01FF0000
01FF0000
01FF0000
01FF0000
01FF0000
01FF0000
01FF0000
01FF0000
01FF0000
01FF0000
01FF0000
01FF0000
01FF0000
01FF0000
01FF0000
01FF0000
01FF0000
01FF0000
01FF0000
01FF0000
01FF0000
01FF0000
01FF0000
01FF0000
01FF0000
01FF0000
01FF0000
01FF0000
01FF0000
01FF0000
01FF0000
01FF0000
01FF0000
01FF0000
01FF0000
01FF0000
01FE0000
01FE0000
ENDCHAR
STARTCHAR 00CF
ENCODING 207
SWIDTH 225 0
DWIDTH 23 0
BBX 23 89 0 0
BITMAP
FF03FC
FF83FE
FF83FE
FF83FE
FF83FE
FF83FE
FF83FE
7F83FE
000000
000000
000000
000000
000000
000000
000000
000000
000000
000000
00FF00
01FF00
01FF00
01FF00
01FF00
01FF00
01FF00
01FF00
01FF00
01FF00
01FF00
01FF00
01FF00
01FF00
01FF00
01FF00
01FF00
01FF00
01FF00
01FF00
01FF00
01FF00
01FF00
01FF00
01FF00
01FF00
01FF00
01FF00
01FF00
01FF00
01FF00
01FF00
01FF00
01FF00
01FF00
01FF00
01FF00
01FF00
01FF00
01FF00
01FF00
01FF00
01FF00
01FF00
01FF00
01FF00
01FF00
01FF00
01FF00
01FF00
01FF00
01FF00
01FF00
01FF00
01FF00
01FF00
01FF00
01FF00
01FF00
01FF00
01FF00
01FF00
01FF00
01FF00
01FF00
01FF00
01FF00
01FF00
01FF00
01FE00
01FE00
ENDCHAR
STARTCHAR 00D0
ENCODING 208
SWIDTH 500 0
DWIDTH 51 0
BBX 42 71 2 0
BITMAP
03FFFFFFF000
03FFFFFFFE00
03FFFFFFFF00
03FFFFFFFF80
03FFFFFFFF80
03FFFFFFFF80
03FC0000FFC0
03FC00007FC0
03FC00007FC0
03FC00003FC0
03FC00003FC0
03FC00003FC0
03FC00003FC0
03FC00003FC0
03FC00003FC0
03FC00003FC0
03FC00003FC0
03FC00003FC0
03FC00003FC0
03FC00003FC0
03FC00003FC0
03FC00003FC0
03FC00003FC0
03FC00003FC0
03FC00003FC0
03FC00003FC0
03FC00003FC0
03FC00003FC0
03FC00003FC0
03FC00003FC0
03FC00003FC0
FFFFFFC03FC0
FFFFFFC03FC0
FFFFFFC03FC0
FFFFFF803FC0
FFFFFF803FC0
FFFFFE003FC0
03FC00003FC0
03FC00003FC0
03FC00003FC0
03FC00003FC0
03FC00003FC0
03FC00003FC0
03FC00003FC0
03FC00003FC0
03FC00003FC0
03FC00003FC0
03FC00003FC0
03FC00003FC0
03FC00003FC0
03FC00003FC0
03FC00003FC0
03FC00003FC0
03FC00003FC0
03FC00003FC0
03FC00003FC0
03FC00003FC0
03FC00003FC0
03FC00003FC0
03FC00003FC0
03FC00003FC0
03FC00003FC0
03FC00007FC0
03FC00007FC0
03FC0000FFC0
03FFFFFFFF80
03FFFFFFFF80
03FFFFFFFF80
03FFFFFFFF00
03FFFFFFFE00
03FFFFFFF800
ENDCHAR
STARTCHAR 00D1
ENCODING 209
SWIDTH 509 0
DWIDTH 52 0
BBX 40 91 7 0
BITMAP
001F800780
007FE00780
00FFF00780
00FFF80780
01FFFC0780
01FFFF0F80
01F0FFFF80
01E07FFF80
01E01FFF00
01E00FFF00
01E007FE00
01E001F800
0000000000
0000000000
0000000000
0000000000
0000000000
0000000000
0000000000
0000000000
7F8000007F
FF800000FF
FFC00000FF
FFC00000FF
FFE00000FF
FFE00000FF
FFE00000FF
FFF00000FF
FFF00000FF
FFF80000FF
FFF80000FF
FFFC0000FF
FEFC0000FF
FEFC0000FF
FEFE0000FF
FE7E0000FF
FE7F0000FF
FF7F0000FF
FF3F8000FF
FF3F8000FF
FF1FC000FF
FF1FC000FF
FF1FC000FF
FF0FE000FF
FF0FE000FF
FF0FF000FF
FF87F000FF
FF87F800FF
FF87F800FF
FF83F800FF
FF83FC00FF
FF81FC00FF
FF81FE00FF
FF80FE00FF
FF80FF00FF
FF80FF00FF
FF807F00FF
FF807F80FF
FF803F80FF
FF803FC0FF
FF801FC0FF
FF801FE0FF
FF800FE0FF
FF800FF0FF
FF800FF0FF
FF8007F0FF
FF8007F8FF
FF8003F87F
FF8003F87F
FF8001FC7F
FF8001FC7F
FF8000FC7F
FF8000FE7F
FF8000FE7F
FF80007F7F
FF80007F7F
FF80003F3F
FF80003FBF
FF80001FFF
FF80001FFF
FF80000FFF
FF80000FFF
FF80000FFF
FF800007FF
FF800007FF
FF800003FF
FF800003FF
FF800001FF
FF800001FF
FF000000FF
FF000000FF
ENDCHAR
STARTCHAR 00D2
ENCODING 210
SWIDTH 480 0
DWIDTH 49 0
BBX 35 91 7 0
BITMAP
01FC000000
03FE000000
03FE000000
01FF000000
00FF000000
007F800000
003F800000
003FC00000
001FC00000
000FE00000
0007E00000
0007F00000
0003F00000
0001F00000
0000000000
0000000000
0000000000
0000000000
0000000000
0000000000
03FFFFFC00
1FFFFFFF00
3FFFFFFF80
7FFFFFFFC0
7FFFFFFFC0
7FFFFFFFE0
FFC0007FE0
FF80003FE0
FF80001FE0
FF00001FE0
FF00001FE0
FF00001FE0
FF00001FE0
FF00001FE0
FF00001FE0
FF00001FE0
FF00001FE0
FF00001FE0
FF00001FE0
FF00001FE0
FF00001FE0
FF00001FE0
FF00001FE0
FF00001FE0
FF00001FE0
FF00001FE0
FF00001FE0
FF00001FE0
FF00001FE0
FF00001FE0
FF00001FE0
FF00001FE0
FF00001FE0
FF00001FE0
FF00001FE0
FF00001FE0
FF00001FE0
FF00001FE0
FF00001FE0
FF00001FE0
FF00001FE0
FF00001FE0
FF00001FE0
FF00001FE0
FF00001FE0
FF00001FE0
FF00001FE0
FF00001FE0
FF00001FE0
FF00001FE0
FF00001FE0
FF00001FE0
FF00001FE0
FF00001FE0
FF00001FE0
FF00001FE0
FF00001FE0
FF00001FE0
FF00001FE0
FF00001FE0
FF00001FE0
FF00001FE0
FF80001FE0
FF80003FE0
FFC0007FE0
7FFFFFFFE0
7FFFFFFFC0
7FFFFFFFC0
3FFFFFFF80
1FFFFFFF00
07FFFFFC00
ENDCHAR
STARTCHAR 00D3
ENCODING 211
SWIDTH 480 0
DWIDTH 49 0
BBX 35 91 7 0
BITMAP
000007F000
00000FF800
00000FF800
00001FF000
00001FE000
00003FC000
00003FC000
00007F8000
00007F0000
0000FE0000
0000FC0000
0001F80000
0001F80000
0001F00000
0000000000
0000000000
0000000000
0000000000
0000000000
0000000000
03FFFFFC00
1FFFFFFF00
3FFFFFFF80
7FFFFFFFC0
7FFFFFFFC0
7FFFFFFFE0
FFC0007FE0
FF80003FE0
FF80001FE0
FF00001FE0
FF00001FE0
FF00001FE0
FF00001FE0
FF00001FE0
FF00001FE0
FF00001FE0
FF00001FE0
FF00001FE0
FF00001FE0
FF00001FE0
FF00001FE0
FF00001FE0
FF00001FE0
FF00001FE0
FF00001FE0
FF00001FE0
FF00001FE0
FF00001FE0
FF00001FE0
FF00001FE0
FF00001FE0
FF00001FE0
FF00001FE0
FF00001FE0
FF00001FE0
FF00001FE0
FF00001FE0
FF00001FE0
FF00001FE0
FF00001FE0
FF00001FE0
FF00001FE0
FF00001FE0
FF00001FE0
FF00001FE0
FF00001FE0
FF00001FE0
FF00001FE0
FF00001FE0
FF00001FE0
FF00001FE0
FF00001FE0
FF00001FE0
FF00001FE0
FF00001FE0
FF00001FE0
FF00001FE0
FF00001FE0
FF00001FE0
FF00001FE0
FF00001FE0
FF00001FE0
FF80001FE0
FF80003FE0
FFC0007FE0
7FFFFFFFE0
7FFFFFFFC0
7FFFFFFFC0
3FFFFFFF80
1FFFFFFF00
07FFFFFC00
ENDCHAR
STARTCHAR 00D4
ENCODING 212
SWIDTH 480 0
DWIDTH 49 0
BBX 35 91 7 0
BITMAP
0003FC0000
0007FE0000
000FFF0000
001FFF8000
003FFFC000
007FBFE000
007F1FE000
00FE07F000
01FC03F800
03F801FC00
07F000FE00
07E0007E00
07C0003E00
0000000000
0000000000
0000000000
0000000000
0000000000
0000000000
0000000000
03FFFFFC00
1FFFFFFF00
3FFFFFFF80
7FFFFFFFC0
7FFFFFFFC0
7FFFFFFFE0
FFC0007FE0
FF80003FE0
FF80001FE0
FF00001FE0
FF00001FE0
FF00001FE0
FF00001FE0
FF00001FE0
FF00001FE0
FF00001FE0
FF00001FE0
FF00001FE0
FF00001FE0
FF00001FE0
FF00001FE0
FF00001FE0
FF00001FE0
FF00001FE0
FF00001FE0
FF00001FE0
FF00001FE0
FF00001FE0
FF00001FE0
FF00001FE0
FF00001FE0
FF00001FE0
FF00001FE0
FF00001FE0
FF00001FE0
FF00001FE0
FF00001FE0
FF00001FE0
FF00001FE0
FF00001FE0
FF00001FE0
FF00001FE0
FF00001FE0
FF00001FE0
FF00001FE0
FF00001FE0
FF00001FE0
FF00001FE0
FF00001FE0
FF00001FE0
FF00001FE0
FF00001FE0
FF00001FE0
FF00001FE0
FF00001FE0
FF00001FE0
FF00001FE0
FF00001FE0
FF00001FE0
FF00001FE0
FF00001FE0
FF00001FE0
FF80001FE0
FF80003FE0
FFC0007FE0
7FFFFFFFE0
7FFFFFFFC0
7FFFFFFFC0
3FFFFFFF80
1FFFFFFF00
07FFFFFC00
ENDCHAR
STARTCHAR 00D5
ENCODING 213
SWIDTH 480 0
DWIDTH 49 0
BBX 35 91 7 0
BITMAP
007E001E00
01FF801E00
03FFC01E00
03FFE01E00
07FFF01E00
07FFFC3E00
07C3FFFE00
0781FFFE00
07807FFC00
07803FFC00
07801FF800
078007E000
0000000000
0000000000
0000000000
0000000000
0000000000
0000000000
0000000000
0000000000
03FFFFFC00
1FFFFFFF00
3FFFFFFF80
7FFFFFFFC0
7FFFFFFFC0
7FFFFFFFE0
FFC0007FE0
FF80003FE0
FF80001FE0
FF00001FE0
FF00001FE0
FF00001FE0
FF00001FE0
FF00001FE0
FF00001FE0
FF00001FE0
FF00001FE0
FF00001FE0
FF00001FE0
FF00001FE0
FF00001FE0
FF00001FE0
FF00001FE0
FF00001FE0
FF00001FE0
FF00001FE0
FF00001FE0
FF00001FE0
FF00001FE0
FF00001FE0
FF00001FE0
FF00001FE0
FF00001FE0
FF00001FE0
FF00001FE0
FF00001FE0
FF00001FE0
FF00001FE0
FF00001FE0
FF00001FE0
FF00001FE0
FF00001FE0
FF00001FE0
FF00001FE0
FF00001FE0
FF00001FE0
FF00001FE0
FF00001FE0
FF00001FE0
FF00001FE0
FF00001FE0
FF00001FE0
FF00001FE0
FF00001FE0
FF00001FE0
FF00001FE0
FF00001FE0
FF00001FE0
FF00001FE0
FF00001FE0
FF00001FE0
FF00001FE0
FF80001FE0
FF80003FE0
FFC0007FE0
7FFFFFFFE0
7FFFFFFFC0
7FFFFFFFC0
3FFFFFFF80
1FFFFFFF00
07FFFFFC00
ENDCHAR
STARTCHAR 00D6
ENCODING 214
SWIDTH 480 0
DWIDTH 49 0
BBX 35 89 7 0
BITMAP
03FC0FF000
03FE0FF800
03FE0FF800
03FE0FF800
03FE0FF800
03FE0FF800
03FE0FF800
01FE0FF800
0000000000
0000000000
0000000000
0000000000
0000000000
0000000000
0000000000
0000000000
0000000000
0000000000
03FFFFFC00
1FFFFFFF00
3FFFFFFF80
7FFFFFFFC0
7FFFFFFFC0
7FFFFFFFE0
FFC0007FE0
FF80003FE0
FF80001FE0
FF00001FE0
FF00001FE0
FF00001FE0
FF00001FE0
FF00001FE0
FF00001FE0
FF00001FE0
FF00001FE0
FF00001FE0
FF00001FE0
FF00001FE0
FF00001FE0
FF00001FE0
FF00001FE0
FF00001FE0
FF00001FE0
FF00001FE0
FF00001FE0
FF00001FE0
FF00001FE0
FF00001FE0
FF00001FE0
FF00001FE0
FF00001FE0
FF00001FE0
FF00001FE0
FF00001FE0
FF00001FE0
FF00001FE0
FF00001FE0
FF00001FE0
FF00001FE0
FF00001FE0
FF00001FE0
FF00001FE0
FF00001FE0
FF00001FE0
FF00001FE0
FF00001FE0
FF00001FE0
FF00001FE0
FF00001FE0
FF00001FE0
FF00001FE0
FF00001FE0
FF00001FE0
FF00001FE0
FF00001FE0
FF00001FE0
FF00001FE0
FF00001FE0
FF00001FE0
FF00001FE0
FF80001FE0
FF80003FE0
FFC0007FE0
7FFFFFFFE0
7FFFFFFFC0
7FFFFFFFC0
3FFFFFFF80
1FFFFFFF00
07FFFFFC00
ENDCHAR
STARTCHAR 00D7
ENCODING 215
SWIDTH 431 0
DWIDTH 44 0
BBX 26 26 9 24
BITMAP
08000000
1C000E00
3E001F00
7F003F80
7F807FC0
7FC0FF80
3FE1FF00
1FF3FE00
0FFFFC00
07FFF800
03FFF000
01FFE000
00FFC000
00FFC000
01FFE000
03FFF000
07FFF800
0FFFFC00
1FF3FE00
3FE1FF00
7FC0FF80
FF807F80
7F003F80
3E001F00
1C000E00
00000400
ENDCHAR
STARTCHAR 00D8
ENCODING 216
SWIDTH 519 0
DWIDTH 53 0
BBX 53 71 0 0
BITMAP
0001FFFFFE0000
0007FFFFFFC000
000FFFFFFFE1F8
001FFFFFFFF3F0
001FFFFFFFF7E0
003FFFFFFFFFE0
003FF0001FFFC0
003FE0000FFF80
003FC0000FFF80
003FC00007FF00
003FC00007FE00
003FC00007FE00
003FC00007FC00
003FC00007F800
003FC00007F800
003FC0000FF800
003FC0000FF800
003FC0001FF800
003FC0003FF800
003FC0003FF800
003FC0007FF800
003FC000FFF800
003FC000FFF800
003FC001FFF800
003FC003FFF800
003FC003F7F800
003FC007E7F800
003FC00FE7F800
003FC00FC7F800
003FC01F87F800
003FC03F87F800
003FC03F07F800
003FC07E07F800
003FC0FE07F800
003FC0FC07F800
003FC1F807F800
003FC3F807F800
003FC3F007F800
003FC7E007F800
003FCFE007F800
003FCFC007F800
003FDF8007F800
003FFF8007F800
003FFF0007F800
003FFE0007F800
003FFE0007F800
003FFC0007F800
003FF80007F800
003FF80007F800
003FF00007F800
003FE00007F800
003FE00007F800
003FC00007F800
003FC00007F800
003FC00007F800
007FC00007F800
00FFC00007F800
00FFC00007F800
01FFC00007F800
03FFC00007F800
03FFC00007F800
07FFC00007F800
0FFFC0000FF800
0FFFE0000FF800
1FBFF0001FF800
3FBFFFFFFFF000
3F1FFFFFFFF000
7E1FFFFFFFF000
FE0FFFFFFFE000
F807FFFFFFC000
0001FFFFFF0000
ENDCHAR
STARTCHAR 00D9
ENCODING 217
SWIDTH 460 0
DWIDTH 47 0
BBX 36 91 6 0
BITMAP
01FC000000
03FE000000
03FE000000
01FF000000
00FF000000
007F800000
003F800000
003FC00000
001FC00000
000FE00000
0007E00000
0007F00000
0003F00000
0001F00000
0000000000
0000000000
0000000000
0000000000
0000000000
0000000000
7F00000FF0
FF00000FF0
FF00000FF0
FF00000FF0
FF00000FF0
FF00000FF0
FF00000FF0
FF00000FF0
FF00000FF0
FF00000FF0
FF00000FF0
FF00000FF0
FF00000FF0
FF00000FF0
FF00000FF0
FF00000FF0
FF00000FF0
FF00000FF0
FF00000FF0
FF00000FF0
FF00000FF0
FF00000FF0
FF00000FF0
FF00000FF0
FF00000FF0
FF00000FF0
FF00000FF0
FF00000FF0
FF00000FF0
FF00000FF0
FF00000FF0
FF00000FF0
FF00000FF0
FF00000FF0
FF00000FF0
FF00000FF0
FF00000FF0
FF00000FF0
FF00000FF0
FF00000FF0
FF00000FF0
FF00000FF0
FF00000FF0
FF00000FF0
FF00000FF0
FF00000FF0
FF00000FF0
FF00000FF0
FF00000FF0
FF00000FF0
FF00000FF0
FF00000FF0
FF00000FF0
FF00000FF0
FF00000FF0
FF00000FF0
FF00000FF0
FF00000FF0
FF00000FF0
FF00000FF0
FF00000FF0
FF80000FF0
FF80001FF0
FF80001FF0
FFC0003FF0
7FFFFFFFE0
7FFFFFFFE0
7FFFFFFFE0
3FFFFFFFC0
1FFFFFFF80
03FFFFFE00
ENDCHAR
STARTCHAR 00DA
ENCODING 218
SWIDTH 460 0
DWIDTH 47 0
BBX 36 91 6 0
BITMAP
000007F000
00000FF800
00000FF800
00001FF000
00001FE000
00003FC000
00003FC000
00007F8000
00007F0000
0000FE0000
0000FC0000
0001F80000
0001F80000
0001F00000
0000000000
0000000000
0000000000
0000000000
0000000000
0000000000
7F00000FF0
FF00000FF0
FF00000FF0
FF00000FF0
FF00000FF0
FF00000FF0
FF00000FF0
FF00000FF0
FF00000FF0
FF00000FF0
FF00000FF0
FF00000FF0
FF00000FF0
FF00000FF0
FF00000FF0
FF00000FF0
FF00000FF0
FF00000FF0
FF00000FF0
FF00000FF0
FF00000FF0
FF00000FF0
FF00000FF0
FF00000FF0
FF00000FF0
FF00000FF0
FF00000FF0
FF00000FF0
FF00000FF0
FF00000FF0
FF00000FF0
FF00000FF0
FF00000FF0
FF00000FF0
FF00000FF0
FF00000FF0
FF00000FF0
FF00000FF0
FF00000FF0
FF00000FF0
FF00000FF0
FF00000FF0
FF00000FF0
FF00000FF0
FF00000FF0
FF00000FF0
FF00000FF0
FF00000FF0
FF00000FF0
FF00000FF0
FF00000FF0
FF00000FF0
FF00000FF0
FF00000FF0
FF00000FF0
FF00000FF0
FF00000FF0
FF00000FF0
FF00000FF0
FF00000FF0
FF00000FF0
FF80000FF0
FF80001FF0
FF80001FF0
FFC0003FF0
7FFFFFFFE0
7FFFFFFFE0
7FFFFFFFE0
3FFFFFFFC0
1FFFFFFF80
03FFFFFE00
ENDCHAR
STARTCHAR 00DB
ENCODING 219
SWIDTH 460 0
DWIDTH 47 0
BBX 36 91 6 0
BITMAP
0003FC0000
0007FE0000
000FFF0000
001FFF8000
003FFFC000
007FBFE000
007F1FE000
00FE07F000
01FC03F800
03F801FC00
07F000FE00
07E0007E00
07C0003E00
0000000000
0000000000
0000000000
0000000000
0000000000
0000000000
0000000000
7F00000FF0
FF00000FF0
FF00000FF0
FF00000FF0
FF00000FF0
FF00000FF0
FF00000FF0
FF00000FF0
FF00000FF0
FF00000FF0
FF00000FF0
FF00000FF0
FF00000FF0
FF00000FF0
FF00000FF0
FF00000FF0
FF00000FF0
FF00000FF0
FF00000FF0
FF00000FF0
FF00000FF0
FF00000FF0
FF00000FF0
FF00000FF0
FF00000FF0
FF00000FF0
FF00000FF0
FF00000FF0
FF00000FF0
FF00000FF0
FF00000FF0
FF00000FF0
FF00000FF0
FF00000FF0
FF00000FF0
FF00000FF0
FF00000FF0
FF00000FF0
FF00000FF0
FF00000FF0
FF00000FF0
FF00000FF0
FF00000FF0
FF00000FF0
FF00000FF0
FF00000FF0
FF00000FF0
FF00000FF0
FF00000FF0
FF00000FF0
FF00000FF0
FF00000FF0
FF00000FF0
FF00000FF0
FF00000FF0
FF00000FF0
FF00000FF0
FF00000FF0
FF00000FF0
FF00000FF0
FF00000FF0
FF80000FF0
FF80001FF0
FF80001FF0
FFC0003FF0
7FFFFFFFE0
7FFFFFFFE0
7FFFFFFFE0
3FFFFFFFC0
1FFFFFFF80
03FFFFFE00
ENDCHAR
STARTCHAR 00DC
ENCODING 220
SWIDTH 460 0
DWIDTH 47 0
BBX 36 89 6 0
BITMAP
03FC0FF000
03FE0FF800
03FE0FF800
03FE0FF800
03FE0FF800
03FE0FF800
03FE0FF800
01FE0FF800
0000000000
0000000000
0000000000
0000000000
0000000000
0000000000
0000000000
0000000000
0000000000
0000000000
7F00000FF0
FF00000FF0
FF00000FF0
FF00000FF0
FF00000FF0
FF00000FF0
FF00000FF0
FF00000FF0
FF00000FF0
FF00000FF0
FF00000FF0
FF00000FF0
FF00000FF0
FF00000FF0
FF00000FF0
FF00000FF0
FF00000FF0
FF00000FF0
FF00000FF0
FF00000FF0
FF00000FF0
FF00000FF0
FF00000FF0
FF00000FF0
FF00000FF0
FF00000FF0
FF00000FF0
FF00000FF0
FF00000FF0
FF00000FF0
FF00000FF0
FF00000FF0
FF00000FF0
FF00000FF0
FF00000FF0
FF00000FF0
FF00000FF0
FF00000FF0
FF00000FF0
FF00000FF0
FF00000FF0
FF00000FF0
FF00000FF0
FF00000FF0
FF00000FF0
FF00000FF0
FF00000FF0
FF00000FF0
FF00000FF0
FF00000FF0
FF00000FF0
FF00000FF0
FF00000FF0
FF00000FF0
FF00000FF0
FF00000FF0
FF00000FF0
FF00000FF0
FF00000FF0
FF00000FF0
FF00000FF0
FF80000FF0
FF80001FF0
FF80001FF0
FFC0003FF0
7FFFFFFFE0
7FFFFFFFE0
7FFFFFFFE0
3FFFFFFFC0
1FFFFFFF80
03FFFFFE00
ENDCHAR
STARTCHAR 00DD
ENCODING 221
SWIDTH 411 0
DWIDTH 42 0
BBX 40 91 2 0
BITMAP
000007F000
00000FF800
00000FF800
00001FF000
00001FE000
00003FC000
00003FC000
00007F8000
00007F0000
0000FE0000
0000FC0000
0001F80000
0001F80000
0001F00000
0000000000
0000000000
0000000000
0000000000
0000000000
0000000000
FE0000007F
FE000000FE
FF000000FE
FF000001FC
7F800001FC
7F800003FC
7F800003F8
3FC00003F8
3FC00007F0
1FC00007F0
1FE00007F0
1FE0000FE0
0FF0000FE0
0FF0001FC0
07F0001FC0
07F8001FC0
07F8003F80
03FC003F80
03FC007F00
01FC007F00
01FE007F00
01FE00FE00
00FF00FE00
00FF00FC00
007F01FC00
007F81FC00
007F81F800
003F83F800
003F83F000
001FC3F000
001FC7F000
001FC7E000
000FE7E000
000FE7C000
0007EFC000
0007FFC000
0007FF8000
0003FF8000
0003FF0000
0001FF0000
0001FF0000
0001FE0000
0001FE0000
0001FE0000
0001FE0000
0001FE0000
0001FE0000
0001FE0000
0001FE0000
0001FE0000
0001FE0000
0001FE0000
0001FE0000
0001FE0000
0001FE0000
0001FE0000
0001FE0000
0001FE0000
0001FE0000
0001FE0000
0001FE0000
0001FE0000
0001FE0000
0001FE0000
0001FE0000
0001FE0000
0001FE0000
0001FE0000
0001FE0000
0001FE0000
0001FE0000
ENDCHAR
STARTCHAR 00DE
ENCODING 222
SWIDTH 460 0
DWIDTH 47 0
BBX 34 71 7 0
BITMAP
7F80000000
FF80000000
FF80000000
FF80000000
FF80000000
FF80000000
FF80000000
FF80000000
FF80000000
FF80000000
FF80000000
FF80000000
FF80000000
FF80000000
FF80000000
FF8FFFF800
FFBFFFFE00
FFBFFFFF00
FFFFFFFF80
FFFFFFFFC0
FFFFFFFFC0
FF8000FFC0
FF80003FC0
FF80003FC0
FF80003FC0
FF80003FC0
FF80003FC0
FF80003FC0
FF80003FC0
FF80003FC0
FF80003FC0
FF80003FC0
FF80003FC0
FF80003FC0
FF80003FC0
FF80003FC0
FF80003FC0
FF80003FC0
FF80003FC0
FF80003FC0
FF80003FC0
FF80003FC0
FF80003FC0
FF80003FC0
FF80003FC0
FF80003FC0
FF80003FC0
FF80003FC0
FF80003FC0
FF8000FFC0
FFFFFFFFC0
FFFFFFFFC0
FFFFFFFF80
FFFFFFFF80
FFFFFFFE00
FFFFFFF800
FF80000000
FF80000000
FF80000000
FF80000000
FF80000000
FF80000000
FF80000000
FF80000000
FF80000000
FF80000000
FF80000000
FF80000000
FF80000000
FF00000000
FF00000000
ENDCHAR
STARTCHAR 00DF
ENCODING 223
SWIDTH 500 0
DWIDTH 51 0
BBX 43 97 2 -26
BITMAP
003FFFFFF800
007FFFFFFF00
007FFFFFFF80
007FFFFFFFC0
007FFFFFFFC0
007FFFFFFFC0
007F80007FE0
007F80003FE0
007F80003FE0
007F80001FE0
007F80001FE0
007F80001FE0
007F80001FE0
007F80001FE0
007F80001FE0
007F80001FE0
007F80001FE0
007F80001FE0
007F80001FE0
007F80001FE0
007F80001FE0
007F80001FE0
007F80003FC0
007F80003FC0
007F80007FC0
FFFFFFFFFF80
FFFFFFFFFF00
FFFFFFFFF800
FFFFFFFFFF00
FFFFFFFFFF80
7FFFFFFFFFC0
007F80007FC0
007F80003FC0
007F80003FE0
007F80001FE0
007F80001FE0
007F80001FE0
007F80001FE0
007F80001FE0
007F80001FE0
007F80001FE0
007F80001FE0
007F80001FE0
007F80001FE0
007F80001FE0
007F80001FE0
007F80001FE0
007F80001FE0
007F80001FE0
007F80001FE0
007F80001FE0
007F80001FE0
007F80001FE0
007F80001FE0
007F80001FE0
007F80001FE0
007F80001FE0
007F80001FE0
007F80001FE0
007F80001FE0
007F80001FE0
007F80001FE0
007F80003FE0
007F80003FE0
007F80007FE0
007F87FFFFC0
007F87FFFFC0
007F87FFFFC0
007F87FFFF80
007F83FFFF00
007F83FFFC00
007F80000000
007F80000000
007F80000000
007F80000000
007F80000000
007F80000000
007F80000000
007F80000000
007F80000000
007F80000000
007F80000000
007F80000000
007F80000000
007F80000000
007F80000000
007F80000000
007F80000000
007F80000000
007F80000000
007F80000000
007F80000000
007F80000000
007F80000000
007F80000000
007F80000000
007F80000000
ENDCHAR
STARTCHAR 00E0
ENCODING 224
SWIDTH 431 0
DWIDTH 44 0
BBX 33 71 5 0
BITMAP
01FC000000
03FE000000
03FE000000
01FF000000
00FF000000
007F800000
003F800000
003FC00000
001FC00000
000FE00000
0007E00000
0007F00000
0003F00000
0001F00000
0000000000
0000000000
0000000000
0000000000
0000000000
03FFFFE000
0FFFFFFC00
1FFFFFFE00
1FFFFFFF00
1FFFFFFF00
3FFFFFFF00
000001FF80
000000FF80
000000FF80
0000007F80
0000007F80
0000007F80
0000007F80
0000007F80
0000007F80
0000007F80
0000007F80
0000007F80
0000007F80
0000007F80
0000007F80
03FFF87F80
1FFFFE7F80
3FFFFE7F80
7FFFFF7F80
7FFFFF7F80
7FFFFFFF80
FFC0007F80
FF80007F80
FF80007F80
FF80007F80
FF00007F80
FF00007F80
FF00007F80
FF00007F80
FF00007F80
FF00007F80
FF00007F80
FF00007F80
FF00007F80
FF00007F80
FF00007F80
FF00007F80
FF80007F80
FF80007F80
FFC0007F80
7FFFF87F80
7FFFF87F80
7FFFF87F80
3FFFF87F80
1FFFF87F80
03FFF07F80
ENDCHAR
STARTCHAR 00E1
ENCODING 225
SWIDTH 431 0
DWIDTH 44 0
BBX 33 71 5 0
BITMAP
000007F000
00000FF800
00000FF800
00001FF000
00001FE000
00003FC000
00003FC000
00007F8000
00007F0000
0000FE0000
0000FC0000
0001F80000
0001F80000
0001F00000
0000000000
0000000000
0000000000
0000000000
0000000000
03FFFFE000
0FFFFFFC00
1FFFFFFE00
1FFFFFFF00
1FFFFFFF00
3FFFFFFF00
000001FF80
000000FF80
000000FF80
0000007F80
0000007F80
0000007F80
0000007F80
0000007F80
0000007F80
0000007F80
0000007F80
0000007F80
0000007F80
0000007F80
0000007F80
03FFF87F80
1FFFFE7F80
3FFFFE7F80
7FFFFF7F80
7FFFFF7F80
7FFFFFFF80
FFC0007F80
FF80007F80
FF80007F80
FF80007F80
FF00007F80
FF00007F80
FF00007F80
FF00007F80
FF00007F80
FF00007F80
FF00007F80
FF00007F80
FF00007F80
FF00007F80
FF00007F80
FF00007F80
FF80007F80
FF80007F80
FFC0007F80
7FFFF87F80
7FFFF87F80
7FFFF87F80
3FFFF87F80
1FFFF87F80
03FFF07F80
ENDCHAR
STARTCHAR 00E2
ENCODING 226
SWIDTH 431 0
DWIDTH 44 0
BBX 33 71 5 0
BITMAP
0007F80000
000FFC0000
001FFE0000
003FFF0000
007FFF8000
00FF7FC000
00FE3FC000
01FC0FE000
03F807F000
07F003F800
0FE001FC00
0FC000FC00
0F80007C00
0000000000
0000000000
0000000000
0000000000
0000000000
0000000000
03FFFFE000
0FFFFFFC00
1FFFFFFE00
1FFFFFFF00
1FFFFFFF00
3FFFFFFF00
000001FF80
000000FF80
000000FF80
0000007F80
0000007F80
0000007F80
0000007F80
0000007F80
0000007F80
0000007F80
0000007F80
0000007F80
0000007F80
0000007F80
0000007F80
03FFF87F80
1FFFFE7F80
3FFFFE7F80
7FFFFF7F80
7FFFFF7F80
7FFFFFFF80
FFC0007F80
FF80007F80
FF80007F80
FF80007F80
FF00007F80
FF00007F80
FF00007F80
FF00007F80
FF00007F80
FF00007F80
FF00007F80
FF00007F80
FF00007F80
FF00007F80
FF00007F80
FF00007F80
FF80007F80
FF80007F80
FFC0007F80
7FFFF87F80
7FFFF87F80
7FFFF87F80
3FFFF87F80
1FFFF87F80
03FFF07F80
ENDCHAR
STARTCHAR 00E3
ENCODING 227
SWIDTH 431 0
DWIDTH 44 0
BBX 33 71 5 0
BITMAP
007E001E00
01FF801E00
03FFC01E00
03FFE01E00
07FFF01E00
07FFFC3E00
07C3FFFE00
0781FFFE00
07807FFC00
07803FFC00
07801FF800
078007E000
0000000000
0000000000
0000000000
0000000000
0000000000
0000000000
0000000000
03FFFFE000
0FFFFFFC00
1FFFFFFE00
1FFFFFFF00
1FFFFFFF00
3FFFFFFF00
000001FF80
000000FF80
000000FF80
0000007F80
0000007F80
0000007F80
0000007F80
0000007F80
0000007F80
0000007F80
0000007F80
0000007F80
0000007F80
0000007F80
0000007F80
03FFF87F80
1FFFFE7F80
3FFFFE7F80
7FFFFF7F80
7FFFFF7F80
7FFFFFFF80
FFC0007F80
FF80007F80
FF80007F80
FF80007F80
FF00007F80
FF00007F80
FF00007F80
FF00007F80
FF00007F80
FF00007F80
FF00007F80
FF00007F80
FF00007F80
FF00007F80
FF00007F80
FF00007F80
FF80007F80
FF80007F80
FFC0007F80
7FFFF87F80
7FFFF87F80
7FFFF87F80
3FFFF87F80
1FFFF87F80
03FFF07F80
ENDCHAR
STARTCHAR 00E4
ENCODING 228
SWIDTH 431 0
DWIDTH 44 0
BBX 33 69 5 0
BITMAP
07F81FE000
07FC1FF000
07FC1FF000
07FC1FF000
07FC1FF000
07FC1FF000
07FC1FF000
03FC1FF000
0000000000
0000000000
0000000000
0000000000
0000000000
0000000000
0000000000
0000000000
0000000000
03FFFFE000
0FFFFFFC00
1FFFFFFE00
1FFFFFFF00
1FFFFFFF00
3FFFFFFF00
000001FF80
000000FF80
000000FF80
0000007F80
0000007F80
0000007F80
0000007F80
0000007F80
0000007F80
0000007F80
0000007F80
0000007F80
0000007F80
0000007F80
0000007F80
03FFF87F80
1FFFFE7F80
3FFFFE7F80
7FFFFF7F80
7FFFFF7F80
7FFFFFFF80
FFC0007F80
FF80007F80
FF80007F80
FF80007F80
FF00007F80
FF00007F80
FF00007F80
FF00007F80
FF00007F80
FF00007F80
FF00007F80
FF00007F80
FF00007F80
FF00007F80
FF00007F80
FF00007F80
FF80007F80
FF80007F80
FFC0007F80
7FFFF87F80
7FFFF87F80
7FFFF87F80
3FFFF87F80
1FFFF87F80
03FFF07F80
ENDCHAR
STARTCHAR 00E5
ENCODING 229
SWIDTH 431 0
DWIDTH 44 0
BBX 33 75 5 0
BITMAP
0007FF0000
001FFFC000
001FFFE000
003FFFE000
003F03E000
003E03E000
003E03E000
003E03E000
003E03E000
003E03E000
003E03E000
003E03E000
003F03E000
003FFFE000
001FFFE000
001FFFC000
0007FF0000
0000000000
0000000000
0000000000
0000000000
0000000000
0000000000
03FFFFE000
0FFFFFFC00
1FFFFFFE00
1FFFFFFF00
1FFFFFFF00
3FFFFFFF00
000001FF80
000000FF80
000000FF80
0000007F80
0000007F80
0000007F80
0000007F80
0000007F80
0000007F80
0000007F80
0000007F80
0000007F80
0000007F80
0000007F80
0000007F80
03FFF87F80
1FFFFE7F80
3FFFFE7F80
7FFFFF7F80
7FFFFF7F80
7FFFFFFF80
FFC0007F80
FF80007F80
FF80007F80
FF80007F80
FF00007F80
FF00007F80
FF00007F80
FF00007F80
FF00007F80
FF00007F80
FF00007F80
FF00007F80
FF00007F80
FF00007F80
FF00007F80
FF00007F80
FF80007F80
FF80007F80
FFC0007F80
7FFFF87F80
7FFFF87F80
7FFFF87F80
3FFFF87F80
1FFFF87F80
03FFF07F80
ENDCHAR
STARTCHAR 00E6
ENCODING 230
SWIDTH 666 0
DWIDTH 68 0
BBX 56 52 5 0
BITMAP
007FFFF1FFFFE0
03FFFFFFFFFFF8
07FFFFFFFFFFFC
0FFFFFFFFFFFFE
1FFFFFFFFFFFFF
3FFFFFFFFFFFFF
000000FFF001FF
0000007FE000FF
0000007FC000FF
0000003FC0007F
0000003FC0007F
0000003FC0007F
0000003FC0007F
0000003FC0007F
0000003FC0007F
0000003FC0007F
0000003FC0007F
0000003FC0007F
0000003FC0007F
0000003FC0007F
0000003FC0007F
03FFFC3FC000FF
1FFFFF3FC000FF
3FFFFF3FC000FF
7FFFFFBFC001FF
7FFFFFBFC3FFFF
7FFFFFFFC3FFFF
FFE0003FC3FFFE
FFC0003FC3FFFC
FF80003FC3FFF8
FF80003FC1FFE0
FF00003FC00000
FF00003FC00000
FF00003FC00000
FF00003FC00000
FF00003FC00000
FF00003FC00000
FF00003FC00000
FF00003FC00000
FF00003FC00000
FF00003FC00000
FF00003FC00000
FF80003FC00000
FF80003FC00000
FFC0003FE00000
FFE0003FF00000
7FFFFFFFFFFFF8
7FFFFFBFFFFFF8
7FFFFF9FFFFFF8
3FFFFF8FFFFFF8
1FFFFF07FFFFF8
03FFFC01FFFFF8
ENDCHAR
STARTCHAR 00E7
ENCODING 231
SWIDTH 352 0
DWIDTH 36 0
BBX 26 62 6 -10
BITMAP
03FFFF80
1FFFFFC0
3FFFFFC0
3FFFFFC0
7FFFFFC0
7FFFFFC0
7FC00000
7F800000
FF800000
FF800000
FF800000
FF800000
FF800000
FF800000
FF800000
FF800000
FF800000
FF800000
FF800000
FF800000
FF800000
FF800000
FF800000
FF800000
FF800000
FF800000
FF800000
FF800000
FF800000
FF800000
FF800000
FF800000
FF800000
FF800000
FF800000
FF800000
FF800000
FF800000
FF800000
FF800000
FF800000
FF800000
FF800000
FF800000
7F800000
7FC00000
7FFFFFC0
7FFFFFC0
3FFFFFC0
3FFFFFC0
1FFFFFC0
03FFFF80
000FC000
000FC000
000FC000
000FC000
000FC000
000FC000
000FC000
000FC000
000FC000
000F8000
ENDCHAR
STARTCHAR 00E8
ENCODING 232
SWIDTH 431 0
DWIDTH 44 0
BBX 31 71 6 0
BITMAP
01FC0000
03FE0000
03FE0000
01FF0000
00FF0000
007F8000
003F8000
003FC000
001FC000
000FE000
0007E000
0007F000
0003F000
0001F000
00000000
00000000
00000000
00000000
00000000
03FFFFC0
1FFFFFF0
3FFFFFF8
3FFFFFFC
7FFFFFFC
7FFFFFFE
7FE007FE
7F8001FE
FF8001FE
FF8001FE
FF8001FE
FF8001FE
FF8001FE
FF8001FE
FF8001FE
FF8001FE
FF8001FE
FF8001FE
FF8001FE
FF8001FE
FF8001FE
FF8001FE
FF8001FE
FF8001FE
FF8007FE
FF87FFFE
FF87FFFC
FF87FFFC
FF87FFF8
FF87FFF0
FF87FFC0
FF800000
FF800000
FF800000
FF800000
FF800000
FF800000
FF800000
FF800000
FF800000
FF800000
FF800000
FF800000
FF800000
7F800000
7FC00000
7FFFFFF0
7FFFFFF0
3FFFFFF0
3FFFFFF0
1FFFFFF0
03FFFFF0
ENDCHAR
STARTCHAR 00E9
ENCODING 233
SWIDTH 431 0
DWIDTH 44 0
BBX 31 71 6 0
BITMAP
000007F0
00000FF8
00000FF8
00001FF0
00001FE0
00003FC0
00003FC0
00007F80
00007F00
0000FE00
0000FC00
0001F800
0001F800
0001F000
00000000
00000000
00000000
00000000
00000000
03FFFFC0
1FFFFFF0
3FFFFFF8
3FFFFFFC
7FFFFFFC
7FFFFFFE
7FE007FE
7F8001FE
FF8001FE
FF8001FE
FF8001FE
FF8001FE
FF8001FE
FF8001FE
FF8001FE
FF8001FE
FF8001FE
FF8001FE
FF8001FE
FF8001FE
FF8001FE
FF8001FE
FF8001FE
FF8001FE
FF8007FE
FF87FFFE
FF87FFFC
FF87FFFC
FF87FFF8
FF87FFF0
FF87FFC0
FF800000
FF800000
FF800000
FF800000
FF800000
FF800000
FF800000
FF800000
FF800000
FF800000
FF800000
FF800000
FF800000
7F800000
7FC00000
7FFFFFF0
7FFFFFF0
3FFFFFF0
3FFFFFF0
1FFFFFF0
03FFFFF0
ENDCHAR
STARTCHAR 00EA
ENCODING 234
SWIDTH 431 0
DWIDTH 44 0
BBX 31 71 6 0
BITMAP
0007F800
000FFC00
001FFE00
003FFF00
007FFF80
00FF7FC0
00FE3FC0
01FC0FE0
03F807F0
07F003F8
0FE001FC
0FC000FC
0F80007C
00000000
00000000
00000000
00000000
00000000
00000000
03FFFFC0
1FFFFFF0
3FFFFFF8
3FFFFFFC
7FFFFFFC
7FFFFFFE
7FE007FE
7F8001FE
FF8001FE
FF8001FE
FF8001FE
FF8001FE
FF8001FE
FF8001FE
FF8001FE
FF8001FE
FF8001FE
FF8001FE
FF8001FE
FF8001FE
FF8001FE
FF8001FE
FF8001FE
FF8001FE
FF8007FE
FF87FFFE
FF87FFFC
FF87FFFC
FF87FFF8
FF87FFF0
FF87FFC0
FF800000
FF800000
FF800000
FF800000
FF800000
FF800000
FF800000
FF800000
FF800000
FF800000
FF800000
FF800000
FF800000
7F800000
7FC00000
7FFFFFF0
7FFFFFF0
3FFFFFF0
3FFFFFF0
1FFFFFF0
03FFFFF0
ENDCHAR
STARTCHAR 00EB
ENCODING 235
SWIDTH 431 0
DWIDTH 44 0
BBX 31 69 6 0
BITMAP
03FC0FF0
03FE0FF8
03FE0FF8
03FE0FF8
03FE0FF8
03FE0FF8
03FE0FF8
01FE0FF8
00000000
00000000
00000000
00000000
00000000
00000000
00000000
00000000
00000000
03FFFFC0
1FFFFFF0
3FFFFFF8
3FFFFFFC
7FFFFFFC
7FFFFFFE
7FE007FE
7F8001FE
FF8001FE
FF8001FE
FF8001FE
FF8001FE
FF8001FE
FF8001FE
FF8001FE
FF8001FE
FF8001FE
FF8001FE
FF8001FE
FF8001FE
FF8001FE
FF8001FE
FF8001FE
FF8001FE
FF8007FE
FF87FFFE
FF87FFFC
FF87FFFC
FF87FFF8
FF87FFF0
FF87FFC0
FF800000
FF800000
FF800000
FF800000
FF800000
FF800000
FF800000
FF800000
FF800000
FF800000
FF800000
FF800000
FF800000
7F800000
7FC00000
7FFFFFF0
7FFFFFF0
3FFFFFF0
3FFFFFF0
1FFFFFF0
03FFFFF0
ENDCHAR
STARTCHAR 00EC
ENCODING 236
SWIDTH 205 0
DWIDTH 21 0
BBX 15 71 0 0
BITMAP
7F00
FF80
FF80
7FC0
3FC0
1FE0
0FE0
0FF0
07F0
03F8
01F8
01FC
00FC
007C
0000
0000
0000
0000
0000
01FE
01FE
01FE
01FE
01FE
01FE
01FE
01FE
01FE
01FE
01FE
01FE
01FE
01FE
01FE
01FE
01FE
01FE
01FE
01FE
01FE
01FE
01FE
01FE
01FE
01FE
01FE
01FE
01FE
01FE
01FE
01FE
01FE
01FE
01FE
01FE
01FE
01FE
01FE
01FE
01FE
01FE
01FE
01FE
01FE
01FE
01FE
01FE
01FE
01FE
01FE
01FC
ENDCHAR
STARTCHAR 00ED
ENCODING 237
SWIDTH 205 0
DWIDTH 21 0
BBX 16 71 7 0
BITMAP
00FE
01FF
01FF
03FE
03FC
07F8
07F8
0FF0
0FE0
1FC0
1F80
3F00
3F00
3E00
0000
0000
0000
0000
0000
FF00
FF00
FF00
FF00
FF00
FF00
FF00
FF00
FF00
FF00
FF00
FF00
FF00
FF00
FF00
FF00
FF00
FF00
FF00
FF00
FF00
FF00
FF00
FF00
FF00
FF00
FF00
FF00
FF00
FF00
FF00
FF00
FF00
FF00
FF00
FF00
FF00
FF00
FF00
FF00
FF00
FF00
FF00
FF00
FF00
FF00
FF00
FF00
FF00
FF00
FF00
FE00
ENDCHAR
STARTCHAR 00EE
ENCODING 238
SWIDTH 205 0
DWIDTH 21 0
BBX 26 71 -2 0
BITMAP
007F8000
00FFC000
01FFE000
03FFF000
07FFF800
0FF7FC00
0FE3FC00
1FC0FE00
3F807F00
7F003F80
FE001FC0
FC000FC0
F80007C0
00000000
00000000
00000000
00000000
00000000
00000000
007F8000
007F8000
007F8000
007F8000
007F8000
007F8000
007F8000
007F8000
007F8000
007F8000
007F8000
007F8000
007F8000
007F8000
007F8000
007F8000
007F8000
007F8000
007F8000
007F8000
007F8000
007F8000
007F8000
007F8000
007F8000
007F8000
007F8000
007F8000
007F8000
007F8000
007F8000
007F8000
007F8000
007F8000
007F8000
007F8000
007F8000
007F8000
007F8000
007F8000
007F8000
007F8000
007F8000
007F8000
007F8000
007F8000
007F8000
007F8000
007F8000
007F8000
007F8000
007F0000
ENDCHAR
STARTCHAR 00EF
ENCODING 239
SWIDTH 205 0
DWIDTH 21 0
BBX 23 69 -1 0
BITMAP
FF03FC
FF83FE
FF83FE
FF83FE
FF83FE
FF83FE
FF83FE
7F83FE
000000
000000
000000
000000
000000
000000
000000
000000
000000
00FF00
00FF00
00FF00
00FF00
00FF00
00FF00
00FF00
00FF00
00FF00
00FF00
00FF00
00FF00
00FF00
00FF00
00FF00
00FF00
00FF00
00FF00
00FF00
00FF00
00FF00
00FF00
00FF00
00FF00
00FF00
00FF00
00FF00
00FF00
00FF00
00FF00
00FF00
00FF00
00FF00
00FF00
00FF00
00FF00
00FF00
00FF00
00FF00
00FF00
00FF00
00FF00
00FF00
00FF00
00FF00
00FF00
00FF00
00FF00
00FF00
00FF00
00FF00
00FE00
ENDCHAR
STARTCHAR 00F0
ENCODING 240
SWIDTH 460 0
DWIDTH 47 0
BBX 41 77 6 0
BITMAP
00000FF80000
00003FFE0000
00003FFF0000
00007FFF8000
00007FFF8000
0000FFFF8000
000000FFC000
0000007FC000
0000003FC000
0000003FC000
0000003FC000
0000003FC000
0000003FC000
00003FFFFF00
00003FFFFF80
00003FFFFF80
00003FFFFF80
00003FFFFF80
00001FFFFF80
0000003FC000
0000003FC000
0000003FC000
0000003FC000
0000003FC000
0000003FC000
03FFFFFFC000
1FFFFFFFC000
3FFFFFFFC000
3FFFFFFFC000
7FFFFFFFC000
7FFFFFFFC000
7FC0003FC000
7F80003FC000
FF80003FC000
FF80003FC000
FF80003FC000
FF80003FC000
FF80003FC000
FF80003FC000
FF80003FC000
FF80003FC000
FF80003FC000
FF80003FC000
FF80003FC000
FF80003FC000
FF80003FC000
FF80003FC000
FF80003FC000
FF80003FC000
FF80003FC000
FF80003FC000
FF80003FC000
FF80003FC000
FF80003FC000
FF80003FC000
FF80003FC000
FF80003FC000
FF80003FC000
FF80003FC000
FF80003FC000
FF80003FC000
FF80003FC000
FF80003FC000
FF80003FC000
FF80003FC000
FF80003FC000
FF80003FC000
FF80003FC000
FF80003FC000
7F80007FC000
7FC000FFC000
7FFFFFFF8000
7FFFFFFF8000
3FFFFFFF8000
3FFFFFFF0000
1FFFFFFE0000
03FFFFF80000
ENDCHAR
STARTCHAR 00F1
ENCODING 241
SWIDTH 460 0
DWIDTH 47 0
BBX 33 71 7 0
BITMAP
007E001E00
01FF801E00
03FFC01E00
03FFE01E00
07FFF01E00
07FFFC3E00
07C3FFFE00
0781FFFE00
07807FFC00
07803FFC00
07801FF800
078007E000
0000000000
0000000000
0000000000
0000000000
0000000000
0000000000
0000000000
FF1FFFF000
FF3FFFFC00
FF7FFFFE00
FFFFFFFF00
FFFFFFFF00
FFFFFFFF80
FF0001FF80
FF0000FF80
FF00007F80
FF00007F80
FF00007F80
FF00007F80
FF00007F80
FF00007F80
FF00007F80
FF00007F80
FF00007F80
FF00007F80
FF00007F80
FF00007F80
FF00007F80
FF00007F80
FF00007F80
FF00007F80
FF00007F80
FF00007F80
FF00007F80
FF00007F80
FF00007F80
FF00007F80
FF00007F80
FF00007F80
FF00007F80
FF00007F80
FF00007F80
FF00007F80
FF00007F80
FF00007F80
FF00007F80
FF00007F80
FF00007F80
FF00007F80
FF00007F80
FF00007F80
FF00007F80
FF00007F80
FF00007F80
FF00007F80
FF00007F80
FF00007F80
FF00007F80
FE00007F80
ENDCHAR
STARTCHAR 00F2
ENCODING 242
SWIDTH 460 0
DWIDTH 47 0
BBX 34 71 6 0
BITMAP
01FC000000
03FE000000
03FE000000
01FF000000
00FF000000
007F800000
003F800000
003FC00000
001FC00000
000FE00000
0007E00000
0007F00000
0003F00000
0001F00000
0000000000
0000000000
0000000000
0000000000
0000000000
03FFFFF800
1FFFFFFE00
3FFFFFFF00
3FFFFFFF80
7FFFFFFF80
7FFFFFFFC0
7FC000FFC0
7F80007FC0
FF80003FC0
FF80003FC0
FF80003FC0
FF80003FC0
FF80003FC0
FF80003FC0
FF80003FC0
FF80003FC0
FF80003FC0
FF80003FC0
FF80003FC0
FF80003FC0
FF80003FC0
FF80003FC0
FF80003FC0
FF80003FC0
FF80003FC0
FF80003FC0
FF80003FC0
FF80003FC0
FF80003FC0
FF80003FC0
FF80003FC0
FF80003FC0
FF80003FC0
FF80003FC0
FF80003FC0
FF80003FC0
FF80003FC0
FF80003FC0
FF80003FC0
FF80003FC0
FF80003FC0
FF80003FC0
FF80003FC0
FF80003FC0
7F80007FC0
7FC000FFC0
7FFFFFFFC0
7FFFFFFF80
3FFFFFFF80
3FFFFFFF00
1FFFFFFE00
03FFFFF800
ENDCHAR
STARTCHAR 00F3
ENCODING 243
SWIDTH 460 0
DWIDTH 47 0
BBX 34 71 6 0
BITMAP
000003F800
000007FC00
000007FC00
00000FF800
00000FF000
00001FE000
00001FE000
00003FC000
00003F8000
00007F0000
00007E0000
0000FC0000
0000FC0000
0000F80000
0000000000
0000000000
0000000000
0000000000
0000000000
03FFFFF800
1FFFFFFE00
3FFFFFFF00
3FFFFFFF80
7FFFFFFF80
7FFFFFFFC0
7FC000FFC0
7F80007FC0
FF80003FC0
FF80003FC0
FF80003FC0
FF80003FC0
FF80003FC0
FF80003FC0
FF80003FC0
FF80003FC0
FF80003FC0
FF80003FC0
FF80003FC0
FF80003FC0
FF80003FC0
FF80003FC0
FF80003FC0
FF80003FC0
FF80003FC0
FF80003FC0
FF80003FC0
FF80003FC0
FF80003FC0
FF80003FC0
FF80003FC0
FF80003FC0
FF80003FC0
FF80003FC0
FF80003FC0
FF80003FC0
FF80003FC0
FF80003FC0
FF80003FC0
FF80003FC0
FF80003FC0
FF80003FC0
FF80003FC0
FF80003FC0
7F80007FC0
7FC000FFC0
7FFFFFFFC0
7FFFFFFF80
3FFFFFFF80
3FFFFFFF00
1FFFFFFE00
03FFFFF800
ENDCHAR
STARTCHAR 00F4
ENCODING 244
SWIDTH 460 0
DWIDTH 47 0
BBX 34 71 6 0
BITMAP
0003FC0000
0007FE0000
000FFF0000
001FFF8000
003FFFC000
007FBFE000
007F1FE000
00FE07F000
01FC03F800
03F801FC00
07F000FE00
07E0007E00
07C0003E00
0000000000
0000000000
0000000000
0000000000
0000000000
0000000000
03FFFFF800
1FFFFFFE00
3FFFFFFF00
3FFFFFFF80
7FFFFFFF80
7FFFFFFFC0
7FC000FFC0
7F80007FC0
FF80003FC0
FF80003FC0
FF80003FC0
FF80003FC0
FF80003FC0
FF80003FC0
FF80003FC0
FF80003FC0
FF80003FC0
FF80003FC0
FF80003FC0
FF80003FC0
FF80003FC0
FF80003FC0
FF80003FC0
FF80003FC0
FF80003FC0
FF80003FC0
FF80003FC0
FF80003FC0
FF80003FC0
FF80003FC0
FF80003FC0
FF80003FC0
FF80003FC0
FF80003FC0
FF80003FC0
FF80003FC0
FF80003FC0
FF80003FC0
FF80003FC0
FF80003FC0
FF80003FC0
FF80003FC0
FF80003FC0
FF80003FC0
7F80007FC0
7FC000FFC0
7FFFFFFFC0
7FFFFFFF80
3FFFFFFF80
3FFFFFFF00
1FFFFFFE00
03FFFFF800
ENDCHAR
STARTCHAR 00F5
ENCODING 245
SWIDTH 460 0
DWIDTH 47 0
BBX 34 71 6 0
BITMAP
007E001E00
01FF801E00
03FFC01E00
03FFE01E00
07FFF01E00
07FFFC3E00
07C3FFFE00
0781FFFE00
07807FFC00
07803FFC00
07801FF800
078007E000
0000000000
0000000000
0000000000
0000000000
0000000000
0000000000
0000000000
03FFFFF800
1FFFFFFE00
3FFFFFFF00
3FFFFFFF80
7FFFFFFF80
7FFFFFFFC0
7FC000FFC0
7F80007FC0
FF80003FC0
FF80003FC0
FF80003FC0
FF80003FC0
FF80003FC0
FF80003FC0
FF80003FC0
FF80003FC0
FF80003FC0
FF80003FC0
FF80003FC0
FF80003FC0
FF80003FC0
FF80003FC0
FF80003FC0
FF80003FC0
FF80003FC0
FF80003FC0
FF80003FC0
FF80003FC0
FF80003FC0
FF80003FC0
FF80003FC0
FF80003FC0
FF80003FC0
FF80003FC0
FF80003FC0
FF80003FC0
FF80003FC0
FF80003FC0
FF80003FC0
FF80003FC0
FF80003FC0
FF80003FC0
FF80003FC0
FF80003FC0
7F80007FC0
7FC000FFC0
7FFFFFFFC0
7FFFFFFF80
3FFFFFFF80
3FFFFFFF00
1FFFFFFE00
03FFFFF800
ENDCHAR
STARTCHAR 00F6
ENCODING 246
SWIDTH 460 0
DWIDTH 47 0
BBX 34 69 6 0
BITMAP
03FC0FF000
03FE0FF800
03FE0FF800
03FE0FF800
03FE0FF800
03FE0FF800
03FE0FF800
01FE0FF800
0000000000
0000000000
0000000000
0000000000
0000000000
0000000000
0000000000
0000000000
0000000000
03FFFFF800
1FFFFFFE00
3FFFFFFF00
3FFFFFFF80
7FFFFFFF80
7FFFFFFFC0
7FC000FFC0
7F80007FC0
FF80003FC0
FF80003FC0
FF80003FC0
FF80003FC0
FF80003FC0
FF80003FC0
FF80003FC0
FF80003FC0
FF80003FC0
FF80003FC0
FF80003FC0
FF80003FC0
FF80003FC0
FF80003FC0
FF80003FC0
FF80003FC0
FF80003FC0
FF80003FC0
FF80003FC0
FF80003FC0
FF80003FC0
FF80003FC0
FF80003FC0
FF80003FC0
FF80003FC0
FF80003FC0
FF80003FC0
FF80003FC0
FF80003FC0
FF80003FC0
FF80003FC0
FF80003FC0
FF80003FC0
FF80003FC0
FF80003FC0
FF80003FC0
7F80007FC0
7FC000FFC0
7FFFFFFFC0
7FFFFFFF80
3FFFFFFF80
3FFFFFFF00
1FFFFFFE00
03FFFFF800
ENDCHAR
STARTCHAR 00F7
ENCODING 247
SWIDTH 431 0
DWIDTH 44 0
BBX 31 41 7 15
BITMAP
003FC000
003FE000
003FE000
003FE000
003FE000
003FE000
003FE000
001FE000
00000000
00000000
00000000
00000000
00000000
00000000
00000000
00000000
FFFFFFFC
FFFFFFFC
FFFFFFFE
FFFFFFFE
FFFFFFFE
7FFFFFFE
00000000
00000000
00000000
00000000
00000000
00000000
00000000
00000000
00000000
00000000
00000000
003FC000
003FE000
003FE000
003FE000
003FE000
003FE000
003FE000
001FE000
ENDCHAR
STARTCHAR 00F8
ENCODING 248
SWIDTH 480 0
DWIDTH 49 0
BBX 51 52 -1 0
BITMAP
0001FFFFF807E0
000FFFFFFF0FE0
001FFFFFFF9FC0
003FFFFFFFFF80
003FFFFFFFFF00
003FFFFFFFFE00
007FE0007FFC00
007FC0003FFC00
007FC0003FF800
007F80001FF000
007F80001FE000
007F80001FE000
007F80003FE000
007F80007FE000
007F8000FFE000
007F8001FFE000
007F8003FFE000
007F8003FFE000
007F8007FFE000
007F800FFFE000
007F801FDFE000
007F803F9FE000
007F807F1FE000
007F80FE1FE000
007F80FC1FE000
007F81FC1FE000
007F83F81FE000
007F87F01FE000
007F8FE01FE000
007F9FC01FE000
007F9F801FE000
007FBF801FE000
007FFF001FE000
007FFE001FE000
007FFC001FE000
007FF8001FE000
007FF0001FE000
007FF0001FE000
007FE0001FE000
007FC0001FE000
007F80001FE000
00FF80001FE000
00FF80003FE000
01FFC0003FE000
03FFC0003FE000
07FFE0007FE000
0FFFFFFFFFC000
1FFFFFFFFFC000
1FBFFFFFFFC000
3F1FFFFFFF8000
7F0FFFFFFF0000
FC03FFFFF80000
ENDCHAR
STARTCHAR 00F9
ENCODING 249
SWIDTH 460 0
DWIDTH 47 0
BBX 33 71 7 0
BITMAP
007F000000
00FF800000
00FF800000
007FC00000
003FC00000
001FE00000
000FE00000
000FF00000
0007F00000
0003F80000
0001F80000
0001FC0000
0000FC0000
00007C0000
0000000000
0000000000
0000000000
0000000000
0000000000
FF00003F80
FF00007F80
FF00007F80
FF00007F80
FF00007F80
FF00007F80
FF00007F80
FF00007F80
FF00007F80
FF00007F80
FF00007F80
FF00007F80
FF00007F80
FF00007F80
FF00007F80
FF00007F80
FF00007F80
FF00007F80
FF00007F80
FF00007F80
FF00007F80
FF00007F80
FF00007F80
FF00007F80
FF00007F80
FF00007F80
FF00007F80
FF00007F80
FF00007F80
FF00007F80
FF00007F80
FF00007F80
FF00007F80
FF00007F80
FF00007F80
FF00007F80
FF00007F80
FF00007F80
FF00007F80
FF00007F80
FF00007F80
FF00007F80
FF00007F80
FF00007F80
FF00007F80
FFC0007F80
FFFFF87F80
FFFFF87F80
7FFFF87F80
7FFFF87F80
1FFFF87F80
07FFF07F80
ENDCHAR
STARTCHAR 00FA
ENCODING 250
SWIDTH 460 0
DWIDTH 47 0
BBX 33 71 7 0
BITMAP
00001FC000
00003FE000
00003FE000
00007FC000
00007F8000
0000FF0000
0000FF0000
0001FE0000
0001FC0000
0003F80000
0003F00000
0007E00000
0007E00000
0007C00000
0000000000
0000000000
0000000000
0000000000
0000000000
FF00003F80
FF00007F80
FF00007F80
FF00007F80
FF00007F80
FF00007F80
FF00007F80
FF00007F80
FF00007F80
FF00007F80
FF00007F80
FF00007F80
FF00007F80
FF00007F80
FF00007F80
FF00007F80
FF00007F80
FF00007F80
FF00007F80
FF00007F80
FF00007F80
FF00007F80
FF00007F80
FF00007F80
FF00007F80
FF00007F80
FF00007F80
FF00007F80
FF00007F80
FF00007F80
FF00007F80
FF00007F80
FF00007F80
FF00007F80
FF00007F80
FF00007F80
FF00007F80
FF00007F80
FF00007F80
FF00007F80
FF00007F80
FF00007F80
FF00007F80
FF00007F80
FF00007F80
FFC0007F80
FFFFF87F80
FFFFF87F80
7FFFF87F80
7FFFF87F80
1FFFF87F80
07FFF07F80
ENDCHAR
STARTCHAR 00FB
ENCODING 251
SWIDTH 460 0
DWIDTH 47 0
BBX 33 71 7 0
BITMAP
0007F80000
000FFC0000
001FFE0000
003FFF0000
007FFF8000
00FF7FC000
00FE3FC000
01FC0FE000
03F807F000
07F003F800
0FE001FC00
0FC000FC00
0F80007C00
0000000000
0000000000
0000000000
0000000000
0000000000
0000000000
FF00003F80
FF00007F80
FF00007F80
FF00007F80
FF00007F80
FF00007F80
FF00007F80
FF00007F80
FF00007F80
FF00007F80
FF00007F80
FF00007F80
FF00007F80
FF00007F80
FF00007F80
FF00007F80
FF00007F80
FF00007F80
FF00007F80
FF00007F80
FF00007F80
FF00007F80
FF00007F80
FF00007F80
FF00007F80
FF00007F80
FF00007F80
FF00007F80
FF00007F80
FF00007F80
FF00007F80
FF00007F80
FF00007F80
FF00007F80
FF00007F80
FF00007F80
FF00007F80
FF00007F80
FF00007F80
FF00007F80
FF00007F80
FF00007F80
FF00007F80
FF00007F80
FF00007F80
FFC0007F80
FFFFF87F80
FFFFF87F80
7FFFF87F80
7FFFF87F80
1FFFF87F80
07FFF07F80
ENDCHAR
STARTCHAR 00FC
ENCODING 252
SWIDTH 460 0
DWIDTH 47 0
BBX 33 69 7 0
BITMAP
07F81FE000
07FC1FF000
07FC1FF000
07FC1FF000
07FC1FF000
07FC1FF000
07FC1FF000
03FC1FF000
0000000000
0000000000
0000000000
0000000000
0000000000
0000000000
0000000000
0000000000
0000000000
FF00003F80
FF00007F80
FF00007F80
FF00007F80
FF00007F80
FF00007F80
FF00007F80
FF00007F80
FF00007F80
FF00007F80
FF00007F80
FF00007F80
FF00007F80
FF00007F80
FF00007F80
FF00007F80
FF00007F80
FF00007F80
FF00007F80
FF00007F80
FF00007F80
FF00007F80
FF00007F80
FF00007F80
FF00007F80
FF00007F80
FF00007F80
FF00007F80
FF00007F80
FF00007F80
FF00007F80
FF00007F80
FF00007F80
FF00007F80
FF00007F80
FF00007F80
FF00007F80
FF00007F80
FF00007F80
FF00007F80
FF00007F80
FF00007F80
FF00007F80
FF00007F80
FF00007F80
FFC0007F80
FFFFF87F80
FFFFF87F80
7FFFF87F80
7FFFF87F80
1FFFF87F80
07FFF07F80
ENDCHAR
STARTCHAR 00FD
ENCODING 253
SWIDTH 421 0
DWIDTH 43 0
BBX 37 92 3 -21
BITMAP
00000FE000
00001FF000
00001FF000
00003FE000
00003FC000
00007F8000
00007F8000
0000FF0000
0000FE0000
0001FC0000
0001F80000
0003F00000
0003F00000
0003E00000
0000000000
0000000000
0000000000
0000000000
0000000000
7E000001F8
FE000003F8
FF000003F8
7F000007F0
7F000007F0
7F000007F0
7F800007F0
3F80000FE0
3F80000FE0
3F80000FE0
3FC0001FE0
1FC0001FC0
1FC0001FC0
1FE0001FC0
1FE0003F80
0FE0003F80
0FE0003F80
0FF0007F80
0FF0007F00
07F0007F00
07F0007F00
07F800FF00
07F800FE00
03F800FE00
03F801FE00
03FC01FC00
03FC01FC00
01FC01FC00
01FC03FC00
01FE03F800
01FE03F800
00FE07F800
00FF07F000
00FF07F000
00FF07F000
007F0FF000
007F0FE000
007F0FE000
007F8FE000
003F8FE000
003F9FC000
003F9FC000
003F9FC000
001F9F8000
001FFF8000
001FFF8000
000FFF8000
000FFF0000
000FFF0000
000FFF0000
0007FF0000
0007FE0000
0001FE0000
0001FE0000
0001FC0000
0001FC0000
0003FC0000
0003FC0000
0003F80000
0003F80000
0007F80000
0007F80000
0007F00000
0007F00000
000FF00000
000FE00000
000FE00000
000FE00000
001FE00000
001FC00000
001FC00000
001FC00000
003F800000
ENDCHAR
STARTCHAR 00FE
ENCODING 254
SWIDTH 460 0
DWIDTH 47 0
BBX 33 92 7 -21
BITMAP
FF00000000
FF00000000
FF00000000
FF00000000
FF00000000
FF00000000
FF00000000
FF00000000
FF00000000
FF00000000
FF00000000
FF00000000
FF00000000
FF00000000
FF00000000
FF00000000
FF00000000
FF00000000
FF00000000
FF1FFFF000
FF3FFFFC00
FF7FFFFE00
FF7FFFFF00
FFFFFFFF80
FFFFFFFF80
FF0001FF80
FF0000FF80
FF00007F80
FF00007F80
FF00007F80
FF00007F80
FF00007F80
FF00007F80
FF00007F80
FF00007F80
FF00007F80
FF00007F80
FF00007F80
FF00007F80
FF00007F80
FF00007F80
FF00007F80
FF00007F80
FF00007F80
FF00007F80
FF00007F80
FF00007F80
FF00007F80
FF00007F80
FF00007F80
FF00007F80
FF00007F80
FF00007F80
FF00007F80
FF00007F80
FF00007F80
FF00007F80
FF00007F80
FF00007F80
FF00007F80
FF00007F80
FF00007F80
FF00007F80
FF0000FF80
FF0001FF80
FF0FFFFF80
FF0FFFFF80
FF0FFFFF00
FF0FFFFE00
FF0FFFFC00
FF07FFF000
FF00000000
FF00000000
FF00000000
FF00000000
FF00000000
FF00000000
FF00000000
FF00000000
FF00000000
FF00000000
FF00000000
FF00000000
FF00000000
FF00000000
FF00000000
FF00000000
FF00000000
FF00000000
FF00000000
FF00000000
FE00000000
ENDCHAR
STARTCHAR 00FF
ENCODING 255
SWIDTH 421 0
DWIDTH 43 0
BBX 37 90 3 -21
BITMAP
00FF03FC00
00FF83FE00
00FF83FE00
00FF83FE00
00FF83FE00
00FF83FE00
00FF83FE00
007F83FE00
0000000000
0000000000
0000000000
0000000000
0000000000
0000000000
0000000000
0000000000
0000000000
7E000001F8
FE000003F8
FF000003F8
7F000007F0
7F000007F0
7F000007F0
7F800007F0
3F80000FE0
3F80000FE0
3F80000FE0
3FC0001FE0
1FC0001FC0
1FC0001FC0
1FE0001FC0
1FE0003F80
0FE0003F80
0FE0003F80
0FF0007F80
0FF0007F00
07F0007F00
07F0007F00
07F800FF00
07F800FE00
03F800FE00
03F801FE00
03FC01FC00
03FC01FC00
01FC01FC00
01FC03FC00
01FE03F800
01FE03F800
00FE07F800
00FF07F000
00FF07F000
00FF07F000
007F0FF000
007F0FE000
007F0FE000
007F8FE000
003F8FE000
003F9FC000
003F9FC000
003F9FC000
001F9F8000
001FFF8000
001FFF8000
000FFF8000
000FFF0000
000FFF0000
000FFF0000
0007FF0000
0007FE0000
0001FE0000
0001FE0000
0001FC0000
0001FC0000
0003FC0000
0003FC0000
0003F80000
0003F80000
0007F80000
0007F80000
0007F00000
0007F00000
000FF00000
000FE00000
000FE00000
000FE00000
001FE00000
001FC00000
001FC00000
001FC00000
003F800000
ENDCHAR
STARTCHAR 0131
ENCODING 305
SWIDTH 205 0
DWIDTH 21 0
BBX 8 52 7 0
BITMAP
FF
FF
FF
FF
FF
FF
FF
FF
FF
FF
FF
FF
FF
FF
FF
FF
FF
FF
FF
FF
FF
FF
FF
FF
FF
FF
FF
FF
FF
FF
FF
FF
FF
FF
FF
FF
FF
FF
FF
FF
FF
FF
FF
FF
FF
FF
FF
FF
FF
FF
FF
FE
ENDCHAR
STARTCHAR 0152
ENCODING 338
SWIDTH 647 0
DWIDTH 66 0
BBX 55 71 7 0
BITMAP
03FFFFFFFFFFFE
1FFFFFFFFFFFFE
3FFFFFFFFFFFFE
7FFFFFFFFFFFFE
7FFFFFFFFFFFFE
7FFFFFFFFFFFFC
FFC0001FE00000
FF80001FE00000
FF80001FE00000
FF00001FE00000
FF00001FE00000
FF00001FE00000
FF00001FE00000
FF00001FE00000
FF00001FE00000
FF00001FE00000
FF00001FE00000
FF00001FE00000
FF00001FE00000
FF00001FE00000
FF00001FE00000
FF00001FE00000
FF00001FE00000
FF00001FE00000
FF00001FE00000
FF00001FE00000
FF00001FE00000
FF00001FE00000
FF00001FE00000
FF00001FE00000
FF00001FE00000
FF00001FFFFFF0
FF00001FFFFFF0
FF00001FFFFFF0
FF00001FFFFFF0
FF00001FFFFFF0
FF00001FFFFFE0
FF00001FE00000
FF00001FE00000
FF00001FE00000
FF00001FE00000
FF00001FE00000
FF00001FE00000
FF00001FE00000
FF00001FE00000
FF00001FE00000
FF00001FE00000
FF00001FE00000
FF00001FE00000
FF00001FE00000
FF00001FE00000
FF00001FE00000
FF00001FE00000
FF00001FE00000
FF00001FE00000
FF00001FE00000
FF00001FE00000
FF00001FE00000
FF00001FE00000
FF00001FE00000
FF00001FE00000
FF00001FE00000
FF80001FE00000
FF80001FE00000
FFC0001FE00000
7FFFFFFFFFFFFE
7FFFFFFFFFFFFE
7FFFFFFFFFFFFE
3FFFFFFFFFFFFE
1FFFFFFFFFFFFE
07FFFFFFFFFFFC
ENDCHAR
STARTCHAR 0153
ENCODING 339
SWIDTH 686 0
DWIDTH 70 0
BBX 59 52 6 0
BITMAP
03FFFFC1FFFFF800
1FFFFFFFFFFFFE00
3FFFFFFFFFFFFF80
3FFFFFFFFFFFFF80
7FFFFFFFFFFFFFC0
7FFFFFFFFFFFFFC0
7FC000FFF000FFC0
7F80007FE0003FC0
FF80003FC0003FE0
FF80003FC0003FE0
FF80003FC0003FE0
FF80003FC0003FE0
FF80003FC0003FE0
FF80003FC0003FE0
FF80003FC0003FE0
FF80003FC0003FE0
FF80003FC0003FE0
FF80003FC0003FE0
FF80003FC0003FE0
FF80003FC0003FE0
FF80003FC0003FE0
FF80003FC0003FE0
FF80003FC0003FE0
FF80003FC0003FC0
FF80003FC0007FC0
FF80003FC3FFFFC0
FF80003FC3FFFFC0
FF80003FC3FFFF80
FF80003FC3FFFF80
FF80003FC3FFFF00
FF80003FC1FFF800
FF80003FC0000000
FF80003FC0000000
FF80003FC0000000
FF80003FC0000000
FF80003FC0000000
FF80003FC0000000
FF80003FC0000000
FF80003FC0000000
FF80003FC0000000
FF80003FC0000000
FF80003FC0000000
FF80003FC0000000
FF80003FC0000000
7F80007FE0000000
7FC000FFF0000000
7FFFFFFFFFFFFF00
7FFFFFFFFFFFFF00
3FFFFFFFFFFFFF00
3FFFFFFFFFFFFF00
1FFFFFFFFFFFFF00
03FFFFE1FFFFFE00
ENDCHAR
STARTCHAR 02C6
ENCODING 710
SWIDTH 372 0
DWIDTH 38 0
BBX 26 13 6 58
BITMAP
007F8000
00FFC000
01FFE000
03FFF000
07FFF800
0FF7FC00
0FE3FC00
1FC0FE00
3F807F00
7F003F80
FE001FC0
FC000FC0
F80007C0
ENDCHAR
STARTCHAR 02C7
ENCODING 711
SWIDTH 392 0
DWIDTH 40 0
BBX 27 13 6 60
BITMAP
780003C0
FE0007E0
7F000FC0
7F803F80
3FC07F80
1FE0FF00
0FF1FE00
07FBFC00
03FFF800
03FFF000
01FFE000
00FFE000
007F8000
ENDCHAR
STARTCHAR 02DA
ENCODING 730
SWIDTH 284 0
DWIDTH 29 0
BBX 17 17 6 58
BITMAP
1FFC00
7FFF00
7FFF80
FFFF80
FC0F80
F80F80
F80F80
F80F80
F80F80
F80F80
F80F80
F80F80
FC0F80
FFFF80
7FFF80
7FFF00
1FFC00
ENDCHAR
STARTCHAR 02DC
ENCODING 732
SWIDTH 382 0
DWIDTH 39 0
BBX 26 12 7 59
BITMAP
0FC003C0
3FF003C0
7FF803C0
7FFC03C0
FFFE03C0
FFFF87C0
F87FFFC0
F03FFFC0
F00FFF80
F007FF80
F003FF00
F000FC00
ENDCHAR
STARTCHAR 03BC
ENCODING 956
SWIDTH 421 0
DWIDTH 43 0
BBX 30 67 7 -21
BITMAP
7F8001FC
7F8003FC
FF8003FC
FF8003FC
FF8003FC
FF8003FC
FF8003FC
FF8003FC
FF8003FC
FF8003FC
FF8003FC
FF8003FC
FF8003FC
FF8003FC
FF8003FC
FF8003FC
FF8003FC
FF8003FC
FF8003FC
FF8003FC
FF8003FC
FF8003FC
FF8003FC
FF8003FC
FF8003FC
FF8003FC
FF8003FC
FF8003FC
FF8003FC
FF8003FC
FF8003FC
FF8003FC
FF8003FC
FF8003FC
FF8003FC
FF8003FC
FF8003FC
FF8003FC
FF8003FC
FFC003FC
FFFFC3FC
FFFFC3FC
FFFFC3FC
FFFFC3FC
FFFFC3FC
FFFFC3FC
FF800000
FF800000
FF800000
FF800000
FF800000
FF800000
FF800000
FF800000
FF800000
FF800000
FF800000
FF800000
FF800000
FF800000
FF800000
FF800000
FF800000
FF800000
FF800000
FF000000
FF000000
ENDCHAR
STARTCHAR 2013
ENCODING 8211
SWIDTH 431 0
DWIDTH 44 0
BBX 30 6 7 34
BITMAP
FFFFFFFC
FFFFFFFC
FFFFFFFC
FFFFFFFC
FFFFFFFC
FFFFFFFC
ENDCHAR
STARTCHAR 2014
ENCODING 8212
SWIDTH 549 0
DWIDTH 56 0
BBX 47 6 5 34
BITMAP
FFFFFFFFFFFC
FFFFFFFFFFFE
FFFFFFFFFFFE
FFFFFFFFFFFE
7FFFFFFFFFFE
7FFFFFFFFFFE
ENDCHAR
STARTCHAR 2018
ENCODING 8216
SWIDTH 205 0
DWIDTH 21 0
BBX 9 17 6 63
BITMAP
0C00
3C00
7C00
FC00
FC00
FC00
FC00
FC00
FC00
FF00
FF80
FF80
FF80
FF80
FF80
FF80
7F80
ENDCHAR
STARTCHAR 2019
ENCODING 8217
SWIDTH 196 0
DWIDTH 20 0
BBX 9 17 5 54
BITMAP
FF80
FF80
FF80
FF80
FF80
FF80
FF80
7F80
1F80
1F80
1F80
1F80
1F80
1F80
1F00
1E00
1800
ENDCHAR
STARTCHAR 201A
ENCODING 8218
SWIDTH 215 0
DWIDTH 22 0
BBX 9 17 7 -9
BITMAP
FF00
FF00
FF80
FF80
FF80
FF80
FF80
FF80
1F80
1F80
1F80
1F80
1F00
1F00
1F00
1E00
1000
ENDCHAR
STARTCHAR 201C
ENCODING 8220
SWIDTH 343 0
DWIDTH 35 0
BBX 23 17 6 63
BITMAP
0C0030
3C00F0
7C01F0
FC03F0
FC03F0
FC03F0
FC03F0
FC03F0
FC03F0
FF03FC
FF83FE
FF83FE
FF83FE
FF83FE
FF83FE
FF83FE
7F81FE
ENDCHAR
STARTCHAR 201D
ENCODING 8221
SWIDTH 333 0
DWIDTH 34 0
BBX 23 17 5 54
BITMAP
FF83FE
FF83FE
FF83FE
FF83FE
FF83FE
FF83FE
FF83FE
7F81FE
1F807E
1F807E
1F807E
1F807E
1F807E
1F807E
1F007C
1E0078
180060
ENDCHAR
STARTCHAR 201E
ENCODING 8222
SWIDTH 352 0
DWIDTH 36 0
BBX 23 17 7 -9
BITMAP
FF03FC
FF03FE
FF83FE
FF83FE
FF83FE
FF83FE
FF83FE
FF81FE
1F807E
1F807E
1F807E
1F807E
1F007E
1F007C
1F007C
1E0078
100060
ENDCHAR
STARTCHAR 2022
ENCODING 8226
SWIDTH 284 0
DWIDTH 29 0
BBX 18 20 6 26
BITMAP
07F000
1FFC00
3FFE00
7FFF00
FFFF80
FFFF80
FFFF80
FFFF80
FFFFC0
FFFFC0
FFFFC0
FFFFC0
FFFFC0
FFFF80
FFFF80
FFFF80
7FFF00
3FFE00
1FFC00
07F000
ENDCHAR
STARTCHAR 2039
ENCODING 8249
SWIDTH 294 0
DWIDTH 30 0
BBX 18 35 5 13
BITMAP
000080
000180
0003C0
0007C0
000F80
001F80
003F80
007F80
00FF00
01FE00
03FE00
07FC00
0FF800
1FF000
3FE000
7FC000
FF8000
FF0000
FF8000
7FC000
3FE000
1FF000
0FF800
07FC00
03FE00
01FE00
00FF00
007F00
003F80
001F80
000F80
0007C0
0003C0
000180
000080
ENDCHAR
STARTCHAR 203A
ENCODING 8250
SWIDTH 294 0
DWIDTH 30 0
BBX 18 34 7 13
BITMAP
800000
C00000
E00000
F00000
F80000
FC0000
7E0000
7F0000
3F8000
3FC000
1FE000
0FF000
07F800
03FC00
01FE00
00FF00
007F80
003FC0
007F80
00FF00
01FE00
03FC00
07F800
0FF000
1FE000
3FC000
3F8000
7F0000
7E0000
FC0000
F80000
F00000
E00000
C00000
ENDCHAR
STARTCHAR 2044
ENCODING 8260
SWIDTH 450 0
DWIDTH 46 0
BBX 44 73 1 0
BITMAP
000000000FF0
000000001FE0
000000003FE0
000000003FC0
000000007FC0
000000007F80
00000000FF80
00000000FF00
00000001FF00
00000001FE00
00000001FE00
00000003FC00
00000003FC00
00000007F800
00000007F800
0000000FF000
0000000FF000
0000001FE000
0000001FE000
0000003FC000
0000003FC000
0000007F8000
0000007F8000
000000FF0000
000000FF0000
000001FE0000
000001FE0000
000003FC0000
000003FC0000
000007F80000
000007F80000
00000FF00000
00000FF00000
00001FE00000
00001FE00000
00003FE00000
00003FC00000
00007FC00000
00007F800000
0000FF800000
0000FF000000
0001FF000000
0001FE000000
0003FE000000
0003FC000000
0007FC000000
0007F8000000
0007F8000000
000FF0000000
000FF0000000
001FE0000000
001FE0000000
003FC0000000
003FC0000000
007F80000000
007F80000000
00FF00000000
00FF00000000
01FE00000000
01FE00000000
03FC00000000
03FC00000000
07F800000000
07F800000000
0FF000000000
0FF000000000
1FE000000000
1FE000000000
3FC000000000
3FC000000000
7F8000000000
7F8000000000
FF0000000000
ENDCHAR
STARTCHAR 2074
ENCODING 8308
SWIDTH 352 0
DWIDTH 36 0
BBX 28 41 4 30
BITMAP
000FFC00
000FFC00
001FFC00
001FFC00
003FFC00
003FFC00
007FFC00
007FFC00
00FFFC00
00FFFC00
01FFFC00
01FFFC00
01FBFC00
03FBFC00
03F3FC00
07F3FC00
07E3FC00
0FE3FC00
0FC3FC00
1FC3FC00
1F83FC00
3F83FC00
3F83FC00
3F03FC00
7F03FC00
7E03FC00
FE03FC00
FFFFFFF0
FFFFFFF0
FFFFFFE0
FFFFFFE0
FFFFFFC0
7FFFFF80
0003FC00
0003FC00
0003FC00
0003FC00
0003FC00
0003FC00
0003F800
0003F800
ENDCHAR
STARTCHAR 20AC
ENCODING 8364
SWIDTH 450 0
DWIDTH 46 0
BBX 36 71 5 0
BITMAP
000FFFFF00
003FFFFFC0
007FFFFFC0
00FFFFFFE0
01FFFFFFE0
01FFFFFFF0
01FF800000
01FF000000
01FE000000
01FE000000
01FE000000
01FE000000
01FE000000
01FE000000
01FE000000
01FE000000
01FE000000
01FE000000
01FE000000
01FE000000
01FE000000
01FE000000
01FE000000
01FE000000
01FE000000
01FE000000
FFFFFFFC00
FFFFFFFE00
FFFFFFFE00
FFFFFFFE00
FFFFFFFE00
7FFFFFFE00
01FE000000
01FE000000
01FE000000
01FE000000
01FE000000
01FE000000
01FE000000
01FE000000
FFFFFFFC00
FFFFFFFE00
FFFFFFFE00
FFFFFFFE00
FFFFFFFE00
7FFFFFFE00
01FE000000
01FE000000
01FE000000
01FE000000
01FE000000
01FE000000
01FE000000
01FE000000
01FE000000
01FE000000
01FE000000
01FE000000
01FE000000
01FE000000
01FE000000
01FE000000
01FE000000
01FF000000
01FF800000
01FFFFFFF0
01FFFFFFF0
00FFFFFFF0
007FFFFFF0
003FFFFFF0
000FFFFFE0
ENDCHAR
STARTCHAR 2212
ENCODING 8722
SWIDTH 431 0
DWIDTH 44 0
BBX 31 6 7 34
BITMAP
FFFFFFFC
FFFFFFFC
FFFFFFFE
FFFFFFFE
FFFFFFFE
7FFFFFFE
ENDCHAR
ENDFONT
